<svg width="29" height="29" viewBox="0 0 29 29" fill="none" xmlns="http://www.w3.org/2000/svg">
<mask id="mask0_1477_295" style="mask-type:alpha" maskUnits="userSpaceOnUse" x="0" y="0" width="29" height="29">
<rect width="28.7169" height="28.7169" fill="#D9D9D9"/>
</mask>
<g mask="url(#mask0_1477_295)">
<path d="M18.2472 5.98267C17.8284 5.98267 17.4744 5.83809 17.1852 5.54893C16.8961 5.25977 16.7515 4.90579 16.7515 4.487C16.7515 4.06822 16.8961 3.71424 17.1852 3.42508C17.4744 3.13592 17.8284 2.99133 18.2472 2.99133C18.666 2.99133 19.0199 3.13592 19.3091 3.42508C19.5983 3.71424 19.7428 4.06822 19.7428 4.487C19.7428 4.90579 19.5983 5.25977 19.3091 5.54893C19.0199 5.83809 18.666 5.98267 18.2472 5.98267ZM18.2472 25.7255C17.8284 25.7255 17.4744 25.5809 17.1852 25.2918C16.8961 25.0026 16.7515 24.6486 16.7515 24.2298C16.7515 23.8111 16.8961 23.4571 17.1852 23.1679C17.4744 22.8788 17.8284 22.7342 18.2472 22.7342C18.666 22.7342 19.0199 22.8788 19.3091 23.1679C19.5983 23.4571 19.7428 23.8111 19.7428 24.2298C19.7428 24.6486 19.5983 25.0026 19.3091 25.2918C19.0199 25.5809 18.666 25.7255 18.2472 25.7255ZM23.0333 10.1705C22.6145 10.1705 22.2605 10.026 21.9714 9.73681C21.6822 9.44764 21.5376 9.09367 21.5376 8.67488C21.5376 8.25609 21.6822 7.90212 21.9714 7.61295C22.2605 7.32379 22.6145 7.17921 23.0333 7.17921C23.4521 7.17921 23.8061 7.32379 24.0952 7.61295C24.3844 7.90212 24.529 8.25609 24.529 8.67488C24.529 9.09367 24.3844 9.44764 24.0952 9.73681C23.8061 10.026 23.4521 10.1705 23.0333 10.1705ZM23.0333 21.5376C22.6145 21.5376 22.2605 21.3931 21.9714 21.1039C21.6822 20.8147 21.5376 20.4608 21.5376 20.042C21.5376 19.6232 21.6822 19.2692 21.9714 18.98C22.2605 18.6909 22.6145 18.5463 23.0333 18.5463C23.4521 18.5463 23.8061 18.6909 24.0952 18.98C24.3844 19.2692 24.529 19.6232 24.529 20.042C24.529 20.4608 24.3844 20.8147 24.0952 21.1039C23.8061 21.3931 23.4521 21.5376 23.0333 21.5376ZM24.8281 15.8541C24.4093 15.8541 24.0554 15.7095 23.7662 15.4203C23.477 15.1312 23.3324 14.7772 23.3324 14.3584C23.3324 13.9396 23.477 13.5857 23.7662 13.2965C24.0554 13.0073 24.4093 12.8628 24.8281 12.8628C25.2469 12.8628 25.6009 13.0073 25.89 13.2965C26.1792 13.5857 26.3238 13.9396 26.3238 14.3584C26.3238 14.7772 26.1792 15.1312 25.89 15.4203C25.6009 15.7095 25.2469 15.8541 24.8281 15.8541ZM14.3584 26.3238C12.7032 26.3238 11.1477 26.0097 9.69193 25.3815C8.23615 24.7533 6.96982 23.9008 5.89293 22.8239C4.81605 21.747 3.96352 20.4807 3.33534 19.0249C2.70716 17.5691 2.39307 16.0136 2.39307 14.3584C2.39307 12.7032 2.70716 11.1477 3.33534 9.69193C3.96352 8.23615 4.81605 6.96982 5.89293 5.89293C6.96982 4.81605 8.23615 3.96352 9.69193 3.33534C11.1477 2.70716 12.7032 2.39307 14.3584 2.39307V4.78614C11.6862 4.78614 9.42271 5.71345 7.56808 7.56808C5.71345 9.42271 4.78614 11.6862 4.78614 14.3584C4.78614 17.0307 5.71345 19.2941 7.56808 21.1488C9.42271 23.0034 11.6862 23.9307 14.3584 23.9307V26.3238ZM14.3584 16.7515C13.7003 16.7515 13.137 16.5172 12.6683 16.0485C12.1997 15.5799 11.9654 15.0165 11.9654 14.3584C11.9654 14.2587 11.9703 14.154 11.9803 14.0443C11.9903 13.9347 12.0152 13.83 12.0551 13.7302L9.57228 11.2474L11.2474 9.57228L13.7302 12.0551C13.81 12.0352 14.0194 12.0052 14.3584 11.9654C15.0165 11.9654 15.5799 12.1997 16.0485 12.6683C16.5172 13.137 16.7515 13.7003 16.7515 14.3584C16.7515 15.0165 16.5172 15.5799 16.0485 16.0485C15.5799 16.5172 15.0165 16.7515 14.3584 16.7515Z" fill="#CBA769"/>
</g>
</svg>
