<svg width="24" height="24" viewBox="0 0 24 24" fill="none" xmlns="http://www.w3.org/2000/svg">
<mask id="mask0_913_248" style="mask-type:alpha" maskUnits="userSpaceOnUse" x="0" y="0" width="24" height="24">
<rect width="23.9353" height="24" fill="#D9D9D9"/>
</mask>
<g mask="url(#mask0_913_248)">
<path d="M4.98649 8H18.9488V6H4.98649V8ZM4.98649 22C4.43797 22 3.96841 21.8042 3.5778 21.4125C3.18719 21.0208 2.99188 20.55 2.99188 20V6C2.99188 5.45 3.18719 4.97917 3.5778 4.5875C3.96841 4.19583 4.43797 4 4.98649 4H5.9838V2H7.97841V4H15.9568V2H17.9515V4H18.9488C19.4973 4 19.9668 4.19583 20.3574 4.5875C20.7481 4.97917 20.9434 5.45 20.9434 6V11.675C20.6276 11.525 20.3034 11.4 19.971 11.3C19.6386 11.2 19.2978 11.125 18.9488 11.075V10H4.98649V20H11.2695C11.3859 20.3667 11.523 20.7167 11.6809 21.05C11.8388 21.3833 12.0258 21.7 12.2419 22H4.98649ZM17.9515 23C16.5718 23 15.3959 22.5125 14.4235 21.5375C13.4511 20.5625 12.9649 19.3833 12.9649 18C12.9649 16.6167 13.4511 15.4375 14.4235 14.4625C15.3959 13.4875 16.5718 13 17.9515 13C19.3311 13 20.507 13.4875 21.4794 14.4625C22.4518 15.4375 22.938 16.6167 22.938 18C22.938 19.3833 22.4518 20.5625 21.4794 21.5375C20.507 22.5125 19.3311 23 17.9515 23ZM19.6219 20.375L20.32 19.675L18.4501 17.8V15H17.4528V18.2L19.6219 20.375Z" fill="#515151"/>
</g>
</svg>
