<svg width="16" height="15" viewBox="0 0 16 15" fill="none" xmlns="http://www.w3.org/2000/svg">
<g clip-path="url(#clip0_619_2329)">
<path d="M10.2511 0.629629C10.2511 0.320865 10.5627 0.0700684 10.9479 0.0700684C11.3332 0.0700684 11.6447 0.320865 11.6447 0.629629V3.08081C11.6447 3.38958 11.3332 3.64037 10.9479 3.64037C10.5627 3.64037 10.2511 3.38958 10.2511 3.08081V0.629629ZM8.37927 12.3508C8.33821 12.3508 8.3056 12.1817 8.3056 11.9723C8.3056 11.7629 8.33821 11.5937 8.37927 11.5937H10.2861C10.3272 11.5937 10.3598 11.7629 10.3598 11.9723C10.3598 12.1817 10.3272 12.3508 10.2861 12.3508H8.37927ZM2.30963 8.00684C2.26857 8.00684 2.23596 7.83767 2.23596 7.62828C2.23596 7.41889 2.26857 7.24972 2.30963 7.24972H4.2165C4.25756 7.24972 4.29017 7.41889 4.29017 7.62828C4.29017 7.83767 4.25756 8.00684 4.2165 8.00684H2.30963ZM5.34445 8.00684C5.30339 8.00684 5.27078 7.83767 5.27078 7.62828C5.27078 7.41889 5.30339 7.24972 5.34445 7.24972H7.25132C7.29238 7.24972 7.32499 7.41889 7.32499 7.62828C7.32499 7.83767 7.29238 8.00684 7.25132 8.00684H5.34445ZM8.37927 8.00684C8.33821 8.00684 8.3056 7.83767 8.3056 7.62828C8.3056 7.41889 8.33821 7.24972 8.37927 7.24972H10.2861C10.3272 7.24972 10.3598 7.41889 10.3598 7.62828C10.3598 7.83767 10.3272 8.00684 10.2861 8.00684H8.37927ZM11.4153 8.00684C11.3742 8.00684 11.3416 7.83767 11.3416 7.62828C11.3416 7.41889 11.3742 7.24972 11.4153 7.24972H13.3222C13.3632 7.24972 13.3958 7.41889 13.3958 7.62828C13.3958 7.83767 13.3632 8.00684 13.3222 8.00684H11.4153ZM2.30963 10.1788C2.26857 10.1788 2.23596 10.0097 2.23596 9.80027C2.23596 9.59088 2.26857 9.42171 2.30963 9.42171H4.2165C4.25756 9.42171 4.29017 9.59088 4.29017 9.80027C4.29017 10.0097 4.25756 10.1788 4.2165 10.1788H2.30963ZM5.34445 10.1788C5.30339 10.1788 5.27078 10.0097 5.27078 9.80027C5.27078 9.59088 5.30339 9.42171 5.34445 9.42171H7.25132C7.29238 9.42171 7.32499 9.59088 7.32499 9.80027C7.32499 10.0097 7.29238 10.1788 7.25132 10.1788H5.34445ZM8.37927 10.1788C8.33821 10.1788 8.3056 10.0097 8.3056 9.80027C8.3056 9.59088 8.33821 9.42171 8.37927 9.42171H10.2861C10.3272 9.42171 10.3598 9.59088 10.3598 9.80027C10.3598 10.0097 10.3272 10.1788 10.2861 10.1788H8.37927ZM11.4153 10.1788C11.3742 10.1788 11.3416 10.0097 11.3416 9.80027C11.3416 9.59088 11.3742 9.42171 11.4153 9.42171H13.3222C13.3632 9.42171 13.3958 9.59088 13.3958 9.80027C13.3958 10.0097 13.3632 10.1788 13.3222 10.1788H11.4153ZM2.30963 12.3508C2.26857 12.3508 2.23596 12.1817 2.23596 11.9723C2.23596 11.7629 2.26857 11.5937 2.30963 11.5937H4.2165C4.25756 11.5937 4.29017 11.7629 4.29017 11.9723C4.29017 12.1817 4.25756 12.3508 4.2165 12.3508H2.30963ZM5.34445 12.3508C5.30339 12.3508 5.27078 12.1817 5.27078 11.9723C5.27078 11.7629 5.30339 11.5937 5.34445 11.5937H7.25132C7.29238 11.5937 7.32499 11.7629 7.32499 11.9723C7.32499 12.1817 7.29238 12.3508 7.25132 12.3508H5.34445ZM3.97135 0.629629C3.97135 0.320865 4.28293 0.0700684 4.66816 0.0700684C5.0534 0.0700684 5.36498 0.320865 5.36498 0.629629V3.08081C5.36498 3.38958 5.0534 3.64037 4.66816 3.64037C4.28293 3.64037 3.97135 3.38958 3.97135 3.08081V0.629629ZM1.1684 5.43144H14.461V2.60998C14.461 2.51534 14.4211 2.42898 14.3571 2.3651C14.2931 2.3024 14.205 2.26336 14.1071 2.26336H12.8343C12.6205 2.26336 12.4478 2.09419 12.4478 1.8848C12.4478 1.6754 12.6205 1.50623 12.8343 1.50623H14.1083C14.4187 1.50623 14.7001 1.63045 14.9042 1.83038C15.1083 2.03031 15.2351 2.30595 15.2351 2.60998V5.81119V13.5043C15.2351 13.8083 15.1083 14.0839 14.9042 14.2839C14.7001 14.4838 14.4187 14.608 14.1083 14.608H1.52224C1.21188 14.608 0.930496 14.4838 0.726403 14.2839C0.522311 14.0827 0.395508 13.8071 0.395508 13.5031V5.81V2.60998C0.395508 2.30595 0.522311 2.03031 0.726403 1.83038C0.930496 1.63045 1.21188 1.50623 1.52224 1.50623H2.88326C3.09702 1.50623 3.26971 1.6754 3.26971 1.8848C3.26971 2.09419 3.09702 2.26336 2.88326 2.26336H1.52224C1.42563 2.26336 1.33747 2.3024 1.27226 2.3651C1.20825 2.42779 1.1684 2.51415 1.1684 2.60998V5.43144ZM14.4622 6.18975H1.1684V13.5031C1.1684 13.5977 1.20825 13.6841 1.27226 13.748C1.33627 13.8107 1.42442 13.8497 1.52224 13.8497H14.1083C14.205 13.8497 14.2931 13.8107 14.3583 13.748C14.4223 13.6853 14.4622 13.5989 14.4622 13.5031V6.18975ZM6.48567 2.26336C6.27192 2.26336 6.09923 2.09419 6.09923 1.8848C6.09923 1.6754 6.27192 1.50623 6.48567 1.50623H9.08091C9.29466 1.50623 9.46736 1.6754 9.46736 1.8848C9.46736 2.09419 9.29466 2.26336 9.08091 2.26336H6.48567Z" fill="#291F0D"/>
</g>
<defs>
<clipPath id="clip0_619_2329">
<rect width="14.8396" height="14.5367" fill="white" transform="translate(0.395508 0.0700684)"/>
</clipPath>
</defs>
</svg>
