<svg width="201" height="150" viewBox="0 0 201 150" fill="none" xmlns="http://www.w3.org/2000/svg">
<path d="M200.749 131.45H0V131.55H200.749V131.45Z" fill="#EBEBEB"/>
<path d="M34.3601 135.272H21.0625V135.373H34.3601V135.272Z" fill="#EBEBEB"/>
<path d="M90.3368 135.325H68.7122V135.425H90.3368V135.325Z" fill="#EBEBEB"/>
<path d="M50.171 137.344H42.4663V137.444H50.171V137.344Z" fill="#EBEBEB"/>
<path d="M179.068 137.296H171.347V137.396H179.068V137.296Z" fill="#EBEBEB"/>
<path d="M167.769 137.296H155.608V137.396H167.769V137.296Z" fill="#EBEBEB"/>
<path d="M148.911 136.633H131.823V136.734H148.911V136.633Z" fill="#EBEBEB"/>
<path d="M95.1548 113.543H17.6297C17.0224 113.542 16.4403 113.3 16.0112 112.87C15.5822 112.441 15.3412 111.858 15.3412 111.251V2.27247C15.3465 1.66863 15.5898 1.09126 16.0183 0.66577C16.4468 0.240279 17.0259 0.00103441 17.6297 0H95.1548C95.7628 0 96.3459 0.241536 96.7759 0.671472C97.2058 1.10141 97.4473 1.68453 97.4473 2.29255V111.251C97.4473 111.859 97.2058 112.442 96.7759 112.872C96.3459 113.302 95.7628 113.543 95.1548 113.543ZM17.6297 0.0802997C17.049 0.0813633 16.4925 0.312792 16.0822 0.723789C15.672 1.13479 15.4416 1.69177 15.4416 2.27247V111.251C15.4416 111.831 15.672 112.388 16.0822 112.799C16.4925 113.21 17.049 113.442 17.6297 113.443H95.1548C95.7359 113.442 96.2928 113.211 96.7037 112.8C97.1146 112.389 97.3459 111.832 97.347 111.251V2.27247C97.3459 1.6914 97.1146 1.13443 96.7037 0.723544C96.2928 0.312662 95.7359 0.081361 95.1548 0.0802997H17.6297Z" fill="#EBEBEB"/>
<path d="M182.003 113.543H104.474C103.866 113.542 103.283 113.3 102.854 112.871C102.424 112.441 102.182 111.858 102.181 111.251V2.27247C102.187 1.66827 102.432 1.0909 102.861 0.665518C103.29 0.240139 103.869 0.00102313 104.474 0H182.003C182.606 0.00208959 183.184 0.241801 183.611 0.667179C184.039 1.09256 184.282 1.66932 184.287 2.27247V111.251C184.287 111.857 184.047 112.439 183.619 112.869C183.19 113.299 182.609 113.541 182.003 113.543ZM104.474 0.0802997C103.893 0.081361 103.336 0.312662 102.925 0.723544C102.514 1.13443 102.282 1.6914 102.281 2.27247V111.251C102.282 111.832 102.514 112.389 102.925 112.8C103.336 113.211 103.893 113.442 104.474 113.443H182.003C182.584 113.442 183.141 113.211 183.552 112.8C183.962 112.389 184.194 111.832 184.195 111.251V2.27247C184.194 1.6914 183.962 1.13443 183.552 0.723544C183.141 0.312662 182.584 0.081361 182.003 0.0802997H104.474Z" fill="#EBEBEB"/>
<path d="M168.581 14.4619H121.967V70.1174H168.581V14.4619Z" fill="#BAACAC"/>
<path d="M169.745 14.4619H123.131V70.1174H169.745V14.4619Z" fill="#C2BABA"/>
<path d="M167.657 67.7687V16.8067L125.223 16.8067V67.7687H167.657Z" fill="#F1F1F1"/>
<path d="M167.653 67.7687V16.8067H166.774V67.7687H167.653Z" fill="#BAACAC"/>
<path d="M168.878 55.6957H123.994V58.8474H168.878V55.6957Z" fill="#C2BABA"/>
<path d="M172.021 10.5794H119.69C119.605 10.5794 119.523 10.6133 119.463 10.6735C119.403 10.7337 119.369 10.8154 119.369 10.9006C119.369 10.9858 119.403 11.0675 119.463 11.1278C119.523 11.188 119.605 11.2218 119.69 11.2218H172.021C172.107 11.2218 172.188 11.188 172.249 11.1278C172.309 11.0675 172.343 10.9858 172.343 10.9006C172.343 10.8154 172.309 10.7337 172.249 10.6735C172.188 10.6133 172.107 10.5794 172.021 10.5794Z" fill="#BAACAC"/>
<path d="M172.343 12.5066C173.23 12.5066 173.949 11.7876 173.949 10.9007C173.949 10.0137 173.23 9.29466 172.343 9.29466C171.456 9.29466 170.737 10.0137 170.737 10.9007C170.737 11.7876 171.456 12.5066 172.343 12.5066Z" fill="#BAACAC"/>
<path d="M122.4 12.6993C122.285 12.6993 122.175 12.6537 122.094 12.5723C122.012 12.491 121.967 12.3807 121.967 12.2657V11.3343C121.968 11.2196 122.014 11.1099 122.095 11.0288C122.176 10.9477 122.286 10.9017 122.4 10.9006C122.515 10.9006 122.626 10.9463 122.707 11.0276C122.788 11.109 122.834 11.2192 122.834 11.3343V12.2657C122.834 12.3807 122.788 12.491 122.707 12.5723C122.626 12.6537 122.515 12.6993 122.4 12.6993Z" fill="#BAACAC"/>
<path d="M167.171 12.6993C167.056 12.6993 166.946 12.6537 166.865 12.5723C166.783 12.491 166.738 12.3807 166.738 12.2657V11.3343C166.739 11.2196 166.785 11.1099 166.866 11.0288C166.947 10.9477 167.057 10.9017 167.171 10.9006C167.286 10.9006 167.397 10.9463 167.478 11.0276C167.559 11.109 167.605 11.2192 167.605 11.3343V12.2657C167.605 12.3807 167.559 12.491 167.478 12.5723C167.397 12.6537 167.286 12.6993 167.171 12.6993Z" fill="#BAACAC"/>
<path opacity="0.5" d="M171.917 10.9006H123.994V34.2758H171.917V10.9006Z" fill="#E0E0E0"/>
<path d="M127.572 12.5066C128.459 12.5066 129.178 11.7876 129.178 10.9007C129.178 10.0137 128.459 9.29466 127.572 9.29466C126.685 9.29466 125.966 10.0137 125.966 10.9007C125.966 11.7876 126.685 12.5066 127.572 12.5066Z" fill="#BAACAC"/>
<path d="M36.0183 76.0957H19.0149L20.5205 56.1935H34.5127L36.0183 76.0957Z" fill="#EBEBEB"/>
<path d="M32.2884 76.0957H29.3655L28.7432 56.1935H31.4412L32.2884 76.0957Z" fill="#C2BABA"/>
<path d="M28.3698 76.0957H26.6675V131.45H28.3698V76.0957Z" fill="#E9E2E2"/>
<path d="M28.161 84.2501H26.8762C26.2509 84.2501 25.744 84.757 25.744 85.3823V89.5619C25.744 90.1872 26.2509 90.6942 26.8762 90.6942H28.161C28.7863 90.6942 29.2933 90.1872 29.2933 89.5619V85.3823C29.2933 84.757 28.7863 84.2501 28.161 84.2501Z" fill="#E9E2E2"/>
<path d="M28.161 94.5766H26.8762C26.2509 94.5766 25.744 95.0835 25.744 95.7089V99.8884C25.744 100.514 26.2509 101.021 26.8762 101.021H28.161C28.7863 101.021 29.2933 100.514 29.2933 99.8884V95.7089C29.2933 95.0835 28.7863 94.5766 28.161 94.5766Z" fill="#E9E2E2"/>
<path d="M30.2087 131.45H24.8246C24.8246 131.146 24.9456 130.854 25.1609 130.638C25.3763 130.423 25.6683 130.302 25.9729 130.302H29.0604C29.3649 130.302 29.657 130.423 29.8723 130.638C30.0877 130.854 30.2087 131.146 30.2087 131.45Z" fill="#E9E2E2"/>
<path d="M28.3698 76.0957H26.6675V77.1356H28.3698V76.0957Z" fill="#E0E0E0"/>
<path d="M38.6682 59.5822L85.6594 59.5822V12.4625L38.6682 12.4625L38.6682 59.5822Z" fill="#E9E2E2"/>
<path d="M38.6682 12.4625H37.8572V59.5821H38.6682V12.4625Z" fill="#E0E0E0"/>
<path d="M42.8197 56.603L81.512 56.603V15.4376L42.8197 15.4376L42.8197 56.603Z" fill="#BBB3B3"/>
<path d="M59.9395 47.481H64.3961C69.1147 47.481 72.9399 43.6558 72.9399 38.9372V33.1034C72.9399 28.3848 69.1147 24.5596 64.3961 24.5596H59.9395C55.2208 24.5596 51.3956 28.3848 51.3956 33.1034V38.9372C51.3956 43.6558 55.2208 47.481 59.9395 47.481Z" fill="#C2BABA"/>
<path d="M163.618 77.2641H145.731V131.446H163.618V77.2641Z" fill="#BAACAC"/>
<path d="M154.885 131.45H163.618V123.97H145.731L154.885 131.45Z" fill="#BBB3B3"/>
<path d="M92.2842 77.2641H74.3975V131.446H92.2842V77.2641Z" fill="#BAACAC"/>
<path d="M163.614 77.2641H84.6637V128.873H163.614V77.2641Z" fill="#BBB3B3"/>
<path d="M93.3963 131.45H84.6677V123.97H102.554L93.3963 131.45Z" fill="#BBB3B3"/>
<path d="M156.845 96.4958H91.4409V109.412H156.845V96.4958Z" fill="#E9E2E2"/>
<path d="M156.845 112.174H91.4409V125.09H156.845V112.174Z" fill="#E9E2E2"/>
<path d="M141.267 97.8769H107.015C106.353 97.8769 105.717 97.6138 105.249 97.1455C104.781 96.6771 104.518 96.042 104.518 95.3796H143.764C143.765 95.7077 143.7 96.0327 143.575 96.3359C143.45 96.6391 143.266 96.9147 143.034 97.1467C142.802 97.3787 142.526 97.5626 142.223 97.6879C141.92 97.8132 141.595 97.8775 141.267 97.8769Z" fill="#BBB3B3"/>
<path d="M156.845 80.8213H91.4409V93.7375H156.845V80.8213Z" fill="#E9E2E2"/>
<path d="M141.267 82.2025H107.015C106.352 82.2014 105.717 81.9374 105.249 81.4685C104.781 80.9995 104.518 80.3639 104.518 79.7012H143.764C143.765 80.0295 143.7 80.3546 143.575 80.6581C143.45 80.9615 143.266 81.2373 143.034 81.4696C142.802 81.702 142.527 81.8863 142.223 82.012C141.92 82.1378 141.595 82.2025 141.267 82.2025Z" fill="#BBB3B3"/>
<path d="M141.267 113.555H107.015C106.352 113.554 105.717 113.29 105.249 112.821C104.781 112.352 104.518 111.717 104.518 111.054H143.764C143.765 111.382 143.7 111.708 143.575 112.011C143.45 112.314 143.266 112.59 143.034 112.823C142.802 113.055 142.527 113.239 142.223 113.365C141.92 113.491 141.595 113.555 141.267 113.555Z" fill="#BBB3B3"/>
<path d="M100.374 149.582C143.368 149.582 178.22 147.547 178.22 145.037C178.22 142.527 143.368 140.492 100.374 140.492C57.3809 140.492 22.528 142.527 22.528 145.037C22.528 147.547 57.3809 149.582 100.374 149.582Z" fill="#C2BABA"/>
<path d="M30.3331 65.2392H90.2526C88.4741 65.2173 86.7691 64.527 85.4762 63.3056C84.1834 62.0841 83.3974 60.421 83.2745 58.6467L82.2146 40.7881H22.2992L23.3551 58.6467C23.478 60.421 24.264 62.0841 25.5568 63.3056C26.8496 64.527 28.5547 65.2173 30.3331 65.2392Z" fill="#635B5B"/>
<path opacity="0.6" d="M30.3331 65.2392H90.2526C88.4741 65.2173 86.7691 64.527 85.4762 63.3056C84.1834 62.0841 83.3974 60.421 83.2745 58.6467L82.2146 40.7881H22.2992L23.3551 58.6467C23.478 60.421 24.264 62.0841 25.5568 63.3056C26.8496 64.527 28.5547 65.2173 30.3331 65.2392Z" fill="#F1F1F1"/>
<path d="M94.6931 28.9078H41.3542C40.5039 28.8978 39.6608 29.0644 38.8782 29.3971C38.0956 29.7299 37.3906 30.2215 36.8079 30.8408C36.2252 31.4601 35.7774 32.1937 35.4929 32.9951C35.2084 33.7965 35.0934 34.6482 35.1551 35.4963L36.5363 58.6507C36.5993 59.4991 36.4851 60.3513 36.2011 61.1532C35.917 61.9552 35.4693 62.6893 34.8863 63.3088C34.3033 63.9285 33.5978 64.42 32.8147 64.7523C32.0315 65.0847 31.1878 65.2505 30.3372 65.2392H90.2526C91.1032 65.2505 91.9469 65.0847 92.7301 64.7523C93.5132 64.42 94.2187 63.9285 94.8017 63.3088C95.3847 62.6893 95.8324 61.9552 96.1165 61.1532C96.4005 60.3513 96.5147 59.4991 96.4517 58.6507L96.6002 61.156L95.0826 35.5124C95.0172 34.6627 95.1297 33.8087 95.4127 33.0049C95.6956 32.201 96.143 31.465 96.7262 30.8436C97.3095 30.2222 98.0157 29.7292 98.8001 29.3959C99.5844 29.0626 100.43 28.8963 101.282 28.9078H94.6931Z" fill="#635B5B"/>
<path d="M101.282 28.9078H41.3542C43.1326 28.9278 44.8382 29.6169 46.1313 30.8379C47.4244 32.0588 48.2102 33.7221 48.3323 35.4963L53.4915 122.497H113.407L108.26 35.5124C108.14 33.7359 107.355 32.0698 106.062 30.8459C104.769 29.6219 103.062 28.93 101.282 28.9078Z" fill="#635B5B"/>
<path opacity="0.8" d="M101.282 28.9078H41.3542C43.1326 28.9278 44.8382 29.6169 46.1313 30.8379C47.4244 32.0588 48.2102 33.7221 48.3323 35.4963L53.4915 122.497H113.407L108.26 35.5124C108.14 33.7359 107.355 32.0698 106.062 30.8459C104.769 29.6219 103.062 28.93 101.282 28.9078Z" fill="#F1F1F1"/>
<path d="M68.5196 53.6721H57.4142L56.7437 42.5587H67.8531L68.5196 53.6721ZM58.6186 52.3632H67.1183L66.6486 43.8635H58.1328L58.6186 52.3632Z" fill="#F1F1F1"/>
<path d="M70.0694 79.8136H58.9519L58.2935 68.6961H69.4109L70.0694 79.8136ZM60.1805 78.5047H68.6802L68.1783 70.005H59.6786L60.1805 78.5047Z" fill="#F1F1F1"/>
<path d="M71.6151 105.955H60.4976L59.8231 94.8376H70.9406L71.6151 105.955ZM61.7302 104.646H70.2299L69.724 96.1465H61.2243L61.7302 104.646Z" fill="#F1F1F1"/>
<path d="M99.5071 42.5547H73.9478V43.8636H99.5071V42.5547Z" fill="#F1F1F1"/>
<path d="M96.7929 47.461H74.2368V48.7698H96.7929V47.461Z" fill="#F1F1F1"/>
<path d="M100.085 52.3632H74.5259V53.6721H100.085V52.3632Z" fill="#F1F1F1"/>
<path d="M101.053 68.6961H75.4935V70.005H101.053V68.6961Z" fill="#F1F1F1"/>
<path d="M90.7865 73.6024H75.7826V74.9113H90.7865V73.6024Z" fill="#F1F1F1"/>
<path d="M83.8206 78.5047H76.0757V79.8136H83.8206V78.5047Z" fill="#F1F1F1"/>
<path d="M101.635 78.5047H88.8553V79.8136H101.635V78.5047Z" fill="#F1F1F1"/>
<path d="M102.599 94.8376H77.0393V96.1465H102.599V94.8376Z" fill="#F1F1F1"/>
<path d="M102.892 99.7439H77.3324V101.053H102.892V99.7439Z" fill="#F1F1F1"/>
<path d="M91.7582 104.646H77.6215V105.955H91.7582V104.646Z" fill="#F1F1F1"/>
<path d="M63.6896 51.0544C63.4118 51.0547 63.1445 50.9483 62.9428 50.7572L60.2247 48.1796C60.1208 48.0813 60.0373 47.9635 59.979 47.8329C59.9206 47.7023 59.8886 47.5615 59.8847 47.4185C59.8768 47.1297 59.9839 46.8497 60.1825 46.6399C60.3811 46.4301 60.6549 46.3078 60.9436 46.2999C61.2324 46.292 61.5125 46.3991 61.7222 46.5977L63.6575 48.4245L68.0137 43.7953C68.2118 43.585 68.4852 43.462 68.774 43.4533C69.0628 43.4447 69.3431 43.5511 69.5534 43.7491C69.7637 43.9472 69.8868 44.2207 69.8954 44.5094C69.9041 44.7982 69.7977 45.0786 69.5996 45.2889L64.4966 50.7131C64.3988 50.8181 64.2808 50.9025 64.1498 50.9611C64.0187 51.0197 63.8773 51.0514 63.7337 51.0544H63.6896Z" fill="#635B5B"/>
<path d="M65.2393 77.1958C64.9614 77.197 64.6937 77.0905 64.4925 76.8987L61.7624 74.3211C61.6548 74.224 61.5677 74.1063 61.5063 73.9751C61.4448 73.8439 61.4102 73.7017 61.4044 73.5569C61.3987 73.4121 61.4219 73.2676 61.4727 73.1319C61.5236 72.9962 61.601 72.872 61.7005 72.7666C61.8 72.6613 61.9195 72.5768 62.0521 72.5183C62.1846 72.4598 62.3275 72.4283 62.4724 72.4257C62.6173 72.4232 62.7613 72.4496 62.8958 72.5034C63.0303 72.5572 63.1528 72.6374 63.2559 72.7392L65.1952 74.566L69.5474 69.9368C69.7454 69.7264 70.0189 69.6034 70.3077 69.5948C70.5964 69.5861 70.8768 69.6925 71.0871 69.8906C71.2974 70.0886 71.4204 70.3621 71.4291 70.6509C71.4378 70.9396 71.3313 71.22 71.1333 71.4303L66.0303 76.8545C65.9331 76.9593 65.8158 77.0435 65.6855 77.1021C65.5551 77.1607 65.4143 77.1926 65.2714 77.1958H65.2393Z" fill="#635B5B"/>
<path d="M66.7851 103.341C66.5067 103.341 66.2391 103.233 66.0383 103.04L63.3081 100.463C63.2006 100.365 63.1135 100.248 63.0521 100.117C62.9906 99.9854 62.956 99.8432 62.9502 99.6984C62.9444 99.5536 62.9677 99.4091 63.0185 99.2734C63.0693 99.1377 63.1468 99.0135 63.2463 98.9081C63.3457 98.8028 63.4653 98.7183 63.5978 98.6598C63.7304 98.6012 63.8733 98.5698 64.0182 98.5672C64.1631 98.5647 64.307 98.5911 64.4416 98.6449C64.5761 98.6987 64.6986 98.7789 64.8017 98.8807L66.7409 100.707L71.0972 96.0782C71.3012 95.903 71.5628 95.8095 71.8316 95.8158C72.1005 95.8221 72.3574 95.9278 72.553 96.1123C72.7486 96.2969 72.8688 96.5474 72.8906 96.8154C72.9124 97.0834 72.8342 97.35 72.671 97.5638L67.568 102.988C67.4698 103.093 67.3517 103.177 67.2208 103.235C67.0899 103.294 66.9486 103.326 66.8052 103.329L66.7851 103.341Z" fill="#635B5B"/>
</svg>
