<svg width="21" height="20" viewBox="0 0 21 20" fill="none" xmlns="http://www.w3.org/2000/svg">
<path d="M2.00115 20C1.45084 20 0.979732 19.8044 0.587839 19.4132C0.195946 19.0221 0 18.5518 0 18.0025V4.01998C0 3.47066 0.195946 3.00042 0.587839 2.60924C0.979732 2.21806 1.45084 2.02247 2.00115 2.02247H10.9313L8.93015 4.01998H2.00115V18.0025H16.0092V11.0612L18.0104 9.06367V18.0025C18.0104 18.5518 17.8144 19.0221 17.4225 19.4132C17.0307 19.8044 16.5595 20 16.0092 20H2.00115ZM6.00346 14.0075V9.7628L15.1838 0.599251C15.3839 0.399501 15.609 0.249688 15.8591 0.149813C16.1093 0.0499376 16.3594 0 16.6096 0C16.8764 0 17.1307 0.0499376 17.3725 0.149813C17.6143 0.249688 17.8353 0.399501 18.0354 0.599251L19.4362 2.02247C19.6196 2.22222 19.7614 2.44278 19.8615 2.68414C19.9615 2.92551 20.0115 3.17104 20.0115 3.42072C20.0115 3.67041 19.9657 3.91594 19.874 4.1573C19.7822 4.39867 19.6363 4.61923 19.4362 4.81898L10.2559 14.0075H6.00346ZM8.00462 12.01H9.40542L15.2088 6.21723L14.5084 5.5181L13.7829 4.81898L8.00462 10.5868V12.01Z" fill="#8336FE"/>
</svg>
