<svg width="20" height="15" viewBox="0 0 20 15" fill="none" xmlns="http://www.w3.org/2000/svg">
<path d="M0.292523 4.29333L4.28829 0.293333C4.64855 -0.067367 5.2157 -0.0953685 5.60816 0.209332L5.70241 0.292532L9.70765 4.29253C10.0985 4.68273 10.0989 5.31593 9.70855 5.70673C9.34835 6.06743 8.78115 6.09553 8.38865 5.79073L8.29435 5.70763L6.001 3.41703L6.00101 14.0007C6.00101 14.5136 5.61497 14.9362 5.11763 14.994L5.00101 15.0007C4.48817 15.0007 4.0655 14.6147 4.00774 14.1174L4.00101 14.0007L4.001 3.41003L1.70748 5.70683C1.34718 6.06743 0.779973 6.09553 0.387523 5.79063L0.293263 5.70753C-0.0674069 5.34723 -0.0954371 4.78003 0.209383 4.38753L0.292523 4.29333ZM14.8844 0.0100327L15.0011 0.00323296C15.5139 0.00323296 15.9366 0.389333 15.9943 0.886633L16.0011 1.00323L16.001 11.5871L18.2936 9.29323C18.6539 8.93263 19.2212 8.90463 19.6136 9.20943L19.7078 9.29263C20.0685 9.65293 20.0965 10.2202 19.7916 10.6126L19.7085 10.7068L15.7123 14.7068C15.3519 15.0675 14.7847 15.0955 14.3923 14.7906L14.298 14.7075L10.2943 10.7075C9.90355 10.3172 9.90325 9.68399 10.2936 9.29323C10.6539 8.93263 11.2212 8.90463 11.6136 9.20943L11.7078 9.29263L14.001 11.5831L14.0011 1.00323C14.0011 0.490433 14.3871 0.0677327 14.8844 0.0100327Z" fill="white"/>
</svg>
