<svg width="115" height="93" viewBox="0 0 115 93" fill="none" xmlns="http://www.w3.org/2000/svg">
<path d="M11.8334 92.1666C8.69383 92.1666 6.00616 91.0487 3.77039 88.8129C1.53463 86.5772 0.416748 83.8895 0.416748 80.7499V12.2499C0.416748 9.11034 1.53463 6.42266 3.77039 4.1869C6.00616 1.95113 8.69383 0.833252 11.8334 0.833252H46.0834L57.5001 12.2499H103.167C106.306 12.2499 108.994 13.3678 111.23 15.6036C113.466 17.8393 114.583 20.527 114.583 23.6666V80.7499C114.583 83.8895 113.466 86.5772 111.23 88.8129C108.994 91.0487 106.306 92.1666 103.167 92.1666H11.8334ZM11.8334 80.7499H103.167V23.6666H52.7907L41.374 12.2499H11.8334V80.7499Z" fill="#D9D9D9"/>
</svg>
