<svg width="168" height="168" viewBox="0 0 168 168" fill="none" xmlns="http://www.w3.org/2000/svg">
<mask id="mask0_353_241" style="mask-type:alpha" maskUnits="userSpaceOnUse" x="0" y="0" width="168" height="168">
<rect width="168" height="168" fill="#D9D9D9"/>
</mask>
<g mask="url(#mask0_353_241)">
<path d="M28 140C24.15 140 20.8542 138.629 18.1125 135.888C15.3708 133.146 14 129.85 14 126V42C14 38.15 15.3708 34.8542 18.1125 32.1125C20.8542 29.3708 24.15 28 28 28H70L84 42H140C143.85 42 147.146 43.3708 149.887 46.1125C152.629 48.8542 154 52.15 154 56V126C154 129.85 152.629 133.146 149.887 135.888C147.146 138.629 143.85 140 140 140H28ZM28 126H140V56H78.225L64.225 42H28V126Z" fill="#CBA769"/>
</g>
</svg>
