<svg width="14" height="20" viewBox="0 0 14 20" fill="none" xmlns="http://www.w3.org/2000/svg">
<path d="M7 20C5.23333 20 3.79167 19.7208 2.675 19.1625C1.55833 18.6042 1 17.8833 1 17C1 16.6 1.12083 16.2292 1.3625 15.8875C1.60417 15.5458 1.94167 15.25 2.375 15L3.95 16.475C3.8 16.5417 3.6375 16.6167 3.4625 16.7C3.2875 16.7833 3.15 16.8833 3.05 17C3.26667 17.2667 3.76667 17.5 4.55 17.7C5.33333 17.9 6.15 18 7 18C7.85 18 8.67083 17.9 9.4625 17.7C10.2542 17.5 10.7583 17.2667 10.975 17C10.8583 16.8667 10.7083 16.7583 10.525 16.675C10.3417 16.5917 10.1667 16.5167 10 16.45L11.55 14.95C12.0167 15.2167 12.375 15.5208 12.625 15.8625C12.875 16.2042 13 16.5833 13 17C13 17.8833 12.4417 18.6042 11.325 19.1625C10.2083 19.7208 8.76667 20 7 20ZM7.025 14.5C8.675 13.2833 9.91667 12.0625 10.75 10.8375C11.5833 9.6125 12 8.38333 12 7.15C12 5.45 11.4583 4.16667 10.375 3.3C9.29167 2.43333 8.16667 2 7 2C5.83333 2 4.70833 2.43333 3.625 3.3C2.54167 4.16667 2 5.45 2 7.15C2 8.26667 2.40833 9.42917 3.225 10.6375C4.04167 11.8458 5.30833 13.1333 7.025 14.5ZM7 17C4.65 15.2667 2.89583 13.5833 1.7375 11.95C0.579167 10.3167 0 8.71667 0 7.15C0 5.96667 0.2125 4.92917 0.6375 4.0375C1.0625 3.14583 1.60833 2.4 2.275 1.8C2.94167 1.2 3.69167 0.75 4.525 0.45C5.35833 0.15 6.18333 0 7 0C7.81667 0 8.64167 0.15 9.475 0.45C10.3083 0.75 11.0583 1.2 11.725 1.8C12.3917 2.4 12.9375 3.14583 13.3625 4.0375C13.7875 4.92917 14 5.96667 14 7.15C14 8.71667 13.4208 10.3167 12.2625 11.95C11.1042 13.5833 9.35 15.2667 7 17ZM7 9C7.55 9 8.02083 8.80417 8.4125 8.4125C8.80417 8.02083 9 7.55 9 7C9 6.45 8.80417 5.97917 8.4125 5.5875C8.02083 5.19583 7.55 5 7 5C6.45 5 5.97917 5.19583 5.5875 5.5875C5.19583 5.97917 5 6.45 5 7C5 7.55 5.19583 8.02083 5.5875 8.4125C5.97917 8.80417 6.45 9 7 9Z" fill="#DD4247"/>
</svg>
