<svg width="24" height="24" viewBox="0 0 24 24" fill="none" xmlns="http://www.w3.org/2000/svg">
<path d="M19 8C18.1667 8 17.4583 7.70833 16.875 7.125C16.2917 6.54167 16 5.83333 16 5C16 4.16667 16.2917 3.45833 16.875 2.875C17.4583 2.29167 18.1667 2 19 2C19.8333 2 20.5417 2.29167 21.125 2.875C21.7083 3.45833 22 4.16667 22 5C22 5.83333 21.7083 6.54167 21.125 7.125C20.5417 7.70833 19.8333 8 19 8ZM4 20C3.45 20 2.97917 19.8042 2.5875 19.4125C2.19583 19.0208 2 18.55 2 18V6C2 5.45 2.19583 4.97917 2.5875 4.5875C2.97917 4.19583 3.45 4 4 4H14.1C14.0333 4.33333 14 4.66667 14 5C14 5.33333 14.0333 5.66667 14.1 6C14.2167 6.53333 14.4083 7.02917 14.675 7.4875C14.9417 7.94583 15.2667 8.35 15.65 8.7L12 11L4 6V8L12 13L17.275 9.7C17.5583 9.8 17.8417 9.875 18.125 9.925C18.4083 9.975 18.7 10 19 10C19.5333 10 20.0583 9.91667 20.575 9.75C21.0917 9.58333 21.5667 9.33333 22 9V18C22 18.55 21.8042 19.0208 21.4125 19.4125C21.0208 19.8042 20.55 20 20 20H4Z" fill="#CBA76B"/>
<circle cx="19" cy="5" r="3" fill="#DD4247"/>
</svg>
