<svg width="226" height="209" viewBox="0 0 226 209" fill="none" xmlns="http://www.w3.org/2000/svg">
<path d="M195.733 34.7179L194.676 32.9987C185.777 18.5183 169.687 9.78814 152.725 10.8395C150.547 10.9773 148.382 11.2721 146.247 11.7215C130.825 14.9804 117.406 26.501 111.865 41.2505C108.596 49.9258 107.679 59.9117 101.47 66.7981C93.3928 75.7674 79.6747 76.0415 67.616 75.6728C55.5572 75.304 41.8292 75.618 33.7867 84.6122C28.7489 90.2479 27.1494 98.2605 27.558 105.805C28.6343 125.781 42.7311 143.645 60.6598 152.525C78.5884 161.404 99.6962 162.202 119.319 158.295C146.805 152.814 172.946 137.795 188.657 114.59C204.368 91.384 208.325 59.7672 195.733 34.7179Z" fill="#EBEBEB"/>
<mask id="path-2-inside-1_108_9815" fill="white">
<path d="M97.5759 64.216L88.8259 62.0633H88.8906C86.6313 63.5005 84.0187 64.2851 81.3415 64.3306C79.7565 64.3378 78.1793 64.1077 76.6625 63.6479C73.9957 62.7916 71.6297 61.1898 69.8443 59.0317C68.0589 56.8737 66.9285 54.2496 66.5869 51.4696C66.3186 49.3671 66.5162 47.2313 67.1654 45.2137C67.8147 43.196 68.8999 41.3459 70.3441 39.7945C71.1032 38.9607 71.9541 38.2151 72.8804 37.5721C73.3488 37.2781 73.8172 36.9742 74.3055 36.72L75.048 36.3612L75.4167 36.1819L75.8054 36.0423C77.8063 35.2668 79.9527 34.9385 82.0939 35.0806C84.9635 35.267 87.7138 36.2986 89.9981 38.0455C92.2824 39.7924 93.9984 42.1764 94.93 44.897C95.4475 46.419 95.72 48.0135 95.7372 49.6209C95.7497 52.2923 95.0237 54.9152 93.6394 57.2V57.1202C96.0711 61.5102 97.2969 63.7276 97.571 64.216C97.2869 63.7177 96.0163 61.5401 93.4999 57.195V57.1551V57.1153C94.8345 54.8526 95.5238 52.2676 95.4931 49.6408C95.4699 48.0591 95.194 46.4913 94.6759 44.9967C93.7544 42.3317 92.0673 39.9978 89.8257 38.2871C87.5841 36.5764 84.8876 35.565 82.074 35.3796C79.9749 35.2428 77.8713 35.5659 75.91 36.3264L75.5313 36.4609L75.1676 36.6403L74.4401 36.9891C73.9418 37.2432 73.5033 37.5372 73.0399 37.8262C72.1314 38.452 71.2957 39.1774 70.5484 39.9888C69.1306 41.5118 68.065 43.3279 67.4269 45.3084C66.7889 47.2889 66.594 49.3854 66.856 51.4496C67.318 55.2313 69.2582 58.6764 72.2526 61.0319C73.5913 62.0926 75.1105 62.9029 76.7372 63.4237C78.2268 63.8842 79.7773 64.1177 81.3365 64.1163C83.9817 64.088 86.5679 63.3311 88.8109 61.9288H88.8408H88.8956L97.5759 64.216Z"/>
</mask>
<path d="M97.5759 64.216L88.8259 62.0633H88.8906C86.6313 63.5005 84.0187 64.2851 81.3415 64.3306C79.7565 64.3378 78.1793 64.1077 76.6625 63.6479C73.9957 62.7916 71.6297 61.1898 69.8443 59.0317C68.0589 56.8737 66.9285 54.2496 66.5869 51.4696C66.3186 49.3671 66.5162 47.2313 67.1654 45.2137C67.8147 43.196 68.8999 41.3459 70.3441 39.7945C71.1032 38.9607 71.9541 38.2151 72.8804 37.5721C73.3488 37.2781 73.8172 36.9742 74.3055 36.72L75.048 36.3612L75.4167 36.1819L75.8054 36.0423C77.8063 35.2668 79.9527 34.9385 82.0939 35.0806C84.9635 35.267 87.7138 36.2986 89.9981 38.0455C92.2824 39.7924 93.9984 42.1764 94.93 44.897C95.4475 46.419 95.72 48.0135 95.7372 49.6209C95.7497 52.2923 95.0237 54.9152 93.6394 57.2V57.1202C96.0711 61.5102 97.2969 63.7276 97.571 64.216C97.2869 63.7177 96.0163 61.5401 93.4999 57.195V57.1551V57.1153C94.8345 54.8526 95.5238 52.2676 95.4931 49.6408C95.4699 48.0591 95.194 46.4913 94.6759 44.9967C93.7544 42.3317 92.0673 39.9978 89.8257 38.2871C87.5841 36.5764 84.8876 35.565 82.074 35.3796C79.9749 35.2428 77.8713 35.5659 75.91 36.3264L75.5313 36.4609L75.1676 36.6403L74.4401 36.9891C73.9418 37.2432 73.5033 37.5372 73.0399 37.8262C72.1314 38.452 71.2957 39.1774 70.5484 39.9888C69.1306 41.5118 68.065 43.3279 67.4269 45.3084C66.7889 47.2889 66.594 49.3854 66.856 51.4496C67.318 55.2313 69.2582 58.6764 72.2526 61.0319C73.5913 62.0926 75.1105 62.9029 76.7372 63.4237C78.2268 63.8842 79.7773 64.1177 81.3365 64.1163C83.9817 64.088 86.5679 63.3311 88.8109 61.9288H88.8408H88.8956L97.5759 64.216Z" fill="#897E7E"/>
<path d="M97.5759 64.216L97.2872 65.3895L97.8839 63.0473L97.5759 64.216ZM88.8259 62.0633V60.8548L88.5372 63.2369L88.8259 62.0633ZM88.8906 62.0633L89.5393 63.0831L93.0424 60.8548H88.8906V62.0633ZM81.3415 64.3306L81.347 65.5391L81.3545 65.5391L81.362 65.539L81.3415 64.3306ZM76.6625 63.6479L76.293 64.7986L76.3024 64.8016L76.3119 64.8045L76.6625 63.6479ZM66.5869 51.4696L67.7865 51.3222L67.7858 51.3166L66.5869 51.4696ZM70.3441 39.7945L71.2288 40.618L71.2378 40.6081L70.3441 39.7945ZM72.8804 37.5721L72.2379 36.5485L72.2142 36.5633L72.1912 36.5793L72.8804 37.5721ZM74.3055 36.72L73.7797 35.6318L73.7635 35.6397L73.7476 35.6479L74.3055 36.72ZM75.048 36.3612L75.5738 37.4494L75.5767 37.448L75.048 36.3612ZM75.4167 36.1819L75.0084 35.0444L74.9468 35.0665L74.888 35.0951L75.4167 36.1819ZM75.8054 36.0423L76.2137 37.1798L76.228 37.1747L76.2422 37.1692L75.8054 36.0423ZM82.0939 35.0806L82.0138 36.2865L82.0156 36.2866L82.0939 35.0806ZM94.93 44.897L96.0742 44.508L96.0734 44.5056L94.93 44.897ZM95.7372 49.6209L96.9458 49.6152L96.9457 49.6079L95.7372 49.6209ZM93.6394 57.2H92.4308V61.5269L94.673 57.8262L93.6394 57.2ZM93.6394 57.1202L94.6966 56.5346L92.4308 52.4442V57.1202H93.6394ZM97.571 64.216L96.521 64.8144L98.6249 63.6245L97.571 64.216ZM93.4999 57.195H92.2913V57.5197L92.454 57.8007L93.4999 57.195ZM93.4999 57.1153L92.4589 56.5013L92.2913 56.7854V57.1153H93.4999ZM95.4931 49.6408L96.7015 49.6267L96.7015 49.6232L95.4931 49.6408ZM94.6759 44.9967L93.5336 45.3916L93.534 45.3926L94.6759 44.9967ZM82.074 35.3796L82.1534 34.1737L82.1526 34.1736L82.074 35.3796ZM75.91 36.3264L76.3146 37.4652L76.3309 37.4594L76.347 37.4532L75.91 36.3264ZM75.5313 36.4609L75.1268 35.3221L75.0602 35.3457L74.9968 35.377L75.5313 36.4609ZM75.1676 36.6403L75.6901 37.7301L75.7021 37.7242L75.1676 36.6403ZM74.4401 36.9891L73.9176 35.8993L73.9042 35.9057L73.891 35.9125L74.4401 36.9891ZM73.0399 37.8262L72.4003 36.8008L72.377 36.8153L72.3543 36.831L73.0399 37.8262ZM70.5484 39.9888L71.433 40.8123L71.4374 40.8076L70.5484 39.9888ZM66.856 51.4496L68.0557 51.3031L68.055 51.2974L66.856 51.4496ZM72.2526 61.0319L73.0031 60.0846L72.9998 60.082L72.2526 61.0319ZM76.7372 63.4237L76.3687 64.5747L76.3803 64.5783L76.7372 63.4237ZM81.3365 64.1163L81.3375 65.3249L81.3494 65.3248L81.3365 64.1163ZM88.8109 61.9288V60.7202H88.4642L88.1703 60.904L88.8109 61.9288ZM88.8956 61.9288L89.2036 60.7601L89.0522 60.7202H88.8956V61.9288ZM97.8646 63.0424L89.1146 60.8898L88.5372 63.2369L97.2872 65.3895L97.8646 63.0424ZM88.8259 63.2719H88.8906V60.8548H88.8259V63.2719ZM88.242 61.0436C86.1707 62.3611 83.7754 63.0805 81.3209 63.1222L81.362 65.539C84.262 65.4897 87.092 64.6398 89.5393 63.0831L88.242 61.0436ZM81.336 63.122C79.8716 63.1287 78.4145 62.9161 77.0131 62.4913L76.3119 64.8045C77.9442 65.2993 79.6414 65.5469 81.347 65.5391L81.336 63.122ZM77.0319 62.4972C74.5848 61.7115 72.4138 60.2416 70.7755 58.2613L68.9131 59.8021C70.8456 62.138 73.4065 63.8718 76.293 64.7986L77.0319 62.4972ZM70.7755 58.2613C69.1371 56.2811 68.0999 53.8731 67.7865 51.3222L65.3874 51.617C65.7571 54.626 66.9806 57.4663 68.9131 59.8021L70.7755 58.2613ZM67.7858 51.3166C67.5399 49.3899 67.7209 47.4328 68.3159 45.5839L66.015 44.8434C65.3114 47.0298 65.0974 49.3442 65.3881 51.6225L67.7858 51.3166ZM68.3159 45.5839C68.9109 43.735 69.9053 42.0396 71.2287 40.618L69.4595 38.971C67.8945 40.6522 66.7186 42.657 66.015 44.8434L68.3159 45.5839ZM71.2378 40.6081C71.9357 39.8415 72.7179 39.1561 73.5696 38.5649L72.1912 36.5793C71.1902 37.2742 70.2708 38.0798 69.4504 38.9809L71.2378 40.6081ZM73.5229 38.5957C74.0152 38.2868 74.4301 38.0176 74.8635 37.7921L73.7476 35.6479C73.2043 35.9307 72.6825 36.2695 72.2379 36.5485L73.5229 38.5957ZM74.8314 37.8082L75.5738 37.4494L74.5222 35.2731L73.7797 35.6318L74.8314 37.8082ZM75.5767 37.448L75.9454 37.2686L74.888 35.0951L74.5193 35.2745L75.5767 37.448ZM75.8251 37.3194L76.2137 37.1798L75.3971 34.9048L75.0084 35.0444L75.8251 37.3194ZM76.2422 37.1692C78.0786 36.4574 80.0486 36.1561 82.0138 36.2865L82.1739 33.8747C79.8567 33.7209 77.5339 34.0761 75.3686 34.9155L76.2422 37.1692ZM82.0156 36.2866C84.6471 36.4575 87.1692 37.4035 89.264 39.0055L90.7323 37.0855C88.2585 35.1936 85.28 34.0764 82.1722 33.8746L82.0156 36.2866ZM89.264 39.0055C91.3587 40.6075 92.9324 42.7936 93.7866 45.2885L96.0734 44.5056C95.0645 41.5592 93.2061 38.9773 90.7323 37.0855L89.264 39.0055ZM93.7858 45.2861C94.2621 46.6869 94.5129 48.1544 94.5287 49.6338L96.9457 49.6079C96.9271 47.8725 96.6329 46.1511 96.0742 44.508L93.7858 45.2861ZM94.5287 49.6265C94.5401 52.0752 93.8746 54.4794 92.6058 56.5737L94.673 57.8262C96.1728 55.3509 96.9593 52.5094 96.9458 49.6152L94.5287 49.6265ZM94.848 57.2V57.1202H92.4308V57.2H94.848ZM92.5822 57.7058C95.0115 62.0916 96.2408 64.3152 96.517 64.8075L98.6249 63.6245C98.353 63.1401 97.1306 60.9289 94.6966 56.5346L92.5822 57.7058ZM98.6209 63.6175C98.3343 63.1147 97.0572 60.9261 94.5457 56.5893L92.454 57.8007C94.9753 62.1542 96.2395 64.3207 96.521 64.8144L98.6209 63.6175ZM94.7084 57.195V57.1551H92.2913V57.195H94.7084ZM94.7084 57.1551V57.1153H92.2913V57.1551H94.7084ZM94.5408 57.7293C95.9876 55.2764 96.7349 52.4742 96.7015 49.6267L94.2846 49.655C94.3127 52.061 93.6813 54.4287 92.4589 56.5013L94.5408 57.7293ZM96.7015 49.6232C96.6765 47.9126 96.3781 46.2171 95.8177 44.6008L93.534 45.3926C94.01 46.7655 94.2634 48.2056 94.2846 49.6585L96.7015 49.6232ZM95.8181 44.6018C94.819 41.7121 92.9895 39.1813 90.5589 37.3263L89.0925 39.2478C91.1451 40.8142 92.6899 42.9514 93.5336 45.3916L95.8181 44.6018ZM90.5589 37.3263C88.1283 35.4714 85.2044 34.3747 82.1534 34.1737L81.9945 36.5855C84.5709 36.7553 87.0399 37.6814 89.0925 39.2478L90.5589 37.3263ZM82.1526 34.1736C79.8779 34.0254 77.5984 34.3755 75.4731 35.1995L76.347 37.4532C78.1442 36.7563 80.0719 36.4602 81.9954 36.5856L82.1526 34.1736ZM75.5055 35.1875L75.1268 35.3221L75.9359 37.5997L76.3146 37.4652L75.5055 35.1875ZM74.9968 35.377L74.6331 35.5564L75.7021 37.7242L76.0659 37.5448L74.9968 35.377ZM74.6451 35.5505L73.9176 35.8993L74.9626 38.0789L75.6901 37.7301L74.6451 35.5505ZM73.891 35.9125C73.3316 36.1978 72.8211 36.5384 72.4003 36.8008L73.6794 38.8517C74.1855 38.5361 74.552 38.2887 74.9892 38.0657L73.891 35.9125ZM72.3543 36.831C71.3716 37.5078 70.4677 38.2924 69.6594 39.1701L71.4374 40.8076C72.1237 40.0624 72.8911 39.3962 73.7255 38.8215L72.3543 36.831ZM69.6638 39.1654C68.1253 40.818 66.969 42.7887 66.2766 44.9378L68.5773 45.679C69.161 43.8671 70.1359 42.2056 71.433 40.8123L69.6638 39.1654ZM66.2766 44.9378C65.5842 47.0869 65.3727 49.3619 65.6571 51.6018L68.055 51.2974C67.8152 49.409 67.9935 47.4909 68.5773 45.679L66.2766 44.9378ZM65.6564 51.5962C66.1571 55.6949 68.2599 59.4288 71.5053 61.9817L72.9998 60.082C70.2564 57.924 68.4789 54.7677 68.0557 51.3031L65.6564 51.5962ZM71.502 61.9791C72.9548 63.1302 74.6034 64.0095 76.3687 64.5747L77.1057 62.2727C75.6176 61.7962 74.2278 61.055 73.0031 60.0846L71.502 61.9791ZM76.3803 64.5783C77.9858 65.0747 79.657 65.3263 81.3375 65.3249L81.3354 62.9077C79.8976 62.909 78.4678 62.6937 77.0942 62.269L76.3803 64.5783ZM81.3494 65.3248C84.2168 65.2941 87.0201 64.4736 89.4516 62.9536L88.1703 60.904C86.1156 62.1885 83.7466 62.8819 81.3235 62.9078L81.3494 65.3248ZM88.8109 63.1373H88.8408V60.7202H88.8109V63.1373ZM88.8408 63.1373H88.8956V60.7202H88.8408V63.1373ZM88.5877 63.0975L97.268 65.3846L97.8839 63.0473L89.2036 60.7601L88.5877 63.0975Z" fill="#EBEBEB" mask="url(#path-2-inside-1_108_9815)"/>
<path d="M220.114 208.339C220.114 208.414 172.218 208.468 113.155 208.468C54.0917 208.468 6.18555 208.414 6.18555 208.339C6.18555 208.264 54.0717 208.209 113.155 208.209C172.238 208.209 220.114 208.269 220.114 208.339Z" fill="#263238"/>
<path d="M204.722 195.299C204.745 195.226 204.775 195.156 204.812 195.089C204.881 194.94 204.976 194.74 205.091 194.486C205.437 193.708 205.716 192.901 205.923 192.075C206.471 189.932 206.665 186.658 205.853 182.771C205.412 180.652 204.834 178.563 204.124 176.518C203.397 174.3 202.544 171.948 201.852 169.402C201.07 166.746 200.692 163.988 200.731 161.22C200.835 158.325 201.692 155.44 202.634 152.56C203.576 149.68 204.548 146.874 204.837 144.034C205.158 141.31 204.61 138.555 203.272 136.161C202.026 133.864 200.457 131.895 199.286 129.862C198.189 127.973 197.381 125.931 196.889 123.803C196.182 120.722 196.129 117.528 196.734 114.425C196.955 113.29 197.289 112.18 197.731 111.112C197.718 111.186 197.698 111.26 197.671 111.331L197.472 111.964C197.302 112.522 197.078 113.359 196.864 114.455C196.307 117.543 196.39 120.713 197.108 123.768C197.608 125.87 198.419 127.886 199.515 129.748C200.686 131.741 202.26 133.734 203.536 136.041C204.907 138.484 205.47 141.297 205.146 144.079C204.852 146.959 203.875 149.794 202.933 152.669C201.991 155.545 201.144 158.4 201.04 161.245C200.995 163.986 201.365 166.717 202.136 169.347C202.819 171.879 203.656 174.231 204.378 176.458C205.082 178.514 205.648 180.615 206.072 182.747C206.865 186.663 206.64 189.972 206.072 192.119C205.85 192.948 205.552 193.753 205.18 194.526L204.872 195.119C204.829 195.184 204.779 195.245 204.722 195.299Z" fill="#263238"/>
<path d="M200.88 131.87C200.88 131.87 198.498 124.242 202.773 119.777C202.806 119.741 202.849 119.715 202.896 119.702C202.943 119.689 202.993 119.689 203.04 119.702C203.087 119.715 203.129 119.742 203.162 119.778C203.195 119.814 203.218 119.858 203.227 119.906C203.456 121.167 203.74 125.004 200.88 131.87Z" fill="#897E7E"/>
<path d="M202.31 122.318C202.303 122.791 202.249 123.261 202.151 123.723C201.991 124.695 201.807 125.831 201.608 127.087C201.408 128.343 201.224 129.484 201.07 130.45C201.026 130.922 200.943 131.388 200.82 131.846C200.774 131.374 200.784 130.899 200.85 130.43C200.93 129.558 201.084 128.362 201.299 127.047C201.513 125.731 201.747 124.555 201.932 123.693C202.004 123.222 202.131 122.76 202.31 122.318Z" fill="#263238"/>
<path d="M203.68 149.864C203.68 149.864 205.14 142.006 211.01 140.063C211.056 140.046 211.106 140.044 211.154 140.054C211.202 140.065 211.246 140.088 211.281 140.122C211.316 140.157 211.341 140.2 211.353 140.247C211.365 140.295 211.364 140.345 211.349 140.391C210.96 141.602 209.421 145.125 203.68 149.864Z" fill="#897E7E"/>
<path d="M209.411 142.081C209.183 142.496 208.916 142.888 208.614 143.252L206.556 145.967L204.513 148.693C204.255 149.088 203.964 149.46 203.641 149.804C203.823 149.366 204.057 148.951 204.338 148.568C204.837 147.836 205.514 146.849 206.331 145.788C207.149 144.727 207.891 143.795 208.454 143.117C208.734 142.737 209.055 142.39 209.411 142.081Z" fill="#263238"/>
<path d="M202.096 169.562C202.096 169.562 201.209 161.619 206.262 158.056C206.301 158.026 206.348 158.007 206.397 158.002C206.446 157.997 206.496 158.007 206.54 158.029C206.584 158.052 206.62 158.087 206.645 158.129C206.67 158.172 206.682 158.221 206.68 158.27C206.665 159.551 206.212 163.368 202.096 169.562Z" fill="#897E7E"/>
<path d="M205.335 160.458C205.242 160.922 205.1 161.374 204.911 161.808L203.735 165.007C203.297 166.203 202.903 167.284 202.569 168.206C202.441 168.66 202.275 169.102 202.071 169.527C202.117 169.054 202.221 168.589 202.38 168.141C202.624 167.304 203.003 166.148 203.466 164.903C203.929 163.657 204.383 162.536 204.727 161.733C204.885 161.289 205.089 160.861 205.335 160.458Z" fill="#263238"/>
<path d="M206.516 189.384C206.516 189.384 205.918 181.411 211.09 178.033C211.131 178.005 211.178 177.989 211.227 177.986C211.276 177.984 211.325 177.995 211.368 178.019C211.411 178.043 211.446 178.078 211.47 178.121C211.494 178.164 211.506 178.213 211.504 178.262C211.444 179.542 210.856 183.344 206.516 189.384Z" fill="#897E7E"/>
<path d="M210.064 180.405C209.952 180.865 209.793 181.312 209.59 181.74C209.221 182.647 208.783 183.733 208.3 184.894C207.816 186.055 207.393 187.137 207.024 188.048C206.876 188.498 206.688 188.934 206.461 189.349C206.527 188.878 206.649 188.416 206.825 187.974C207.099 187.146 207.517 186.01 208.026 184.78C208.534 183.549 209.022 182.443 209.396 181.655C209.573 181.216 209.797 180.796 210.064 180.405Z" fill="#263238"/>
<path d="M197.452 125.168C197.452 125.168 190.386 121.461 190.231 115.287C190.231 115.239 190.244 115.191 190.268 115.149C190.293 115.108 190.328 115.073 190.37 115.05C190.412 115.026 190.46 115.015 190.509 115.016C190.557 115.017 190.604 115.032 190.645 115.058C191.696 115.785 194.616 118.297 197.452 125.168Z" fill="#897E7E"/>
<path d="M191.701 117.41C192.033 117.749 192.328 118.121 192.583 118.521C193.161 119.314 193.834 120.25 194.576 121.282L196.57 124.033C196.873 124.394 197.143 124.783 197.377 125.194C197.012 124.89 196.686 124.544 196.405 124.162C195.842 123.494 195.105 122.538 194.327 121.456C193.55 120.375 192.867 119.373 192.399 118.641C192.124 118.256 191.89 117.844 191.701 117.41Z" fill="#263238"/>
<path d="M205.061 141.547C205.061 141.547 197.766 138.283 197.252 132.12C197.248 132.071 197.258 132.023 197.279 131.979C197.301 131.936 197.334 131.899 197.376 131.873C197.417 131.847 197.464 131.834 197.513 131.833C197.562 131.833 197.609 131.845 197.651 131.87C198.742 132.533 201.807 134.855 205.061 141.547Z" fill="#897E7E"/>
<path d="M198.856 134.153C199.208 134.469 199.525 134.822 199.803 135.204L201.966 137.84L204.133 140.466C204.458 140.81 204.752 141.182 205.01 141.577C204.628 141.295 204.28 140.969 203.974 140.606C203.376 139.968 202.579 139.061 201.737 138.03C200.894 136.998 200.157 136.036 199.639 135.334C199.335 134.97 199.073 134.574 198.856 134.153Z" fill="#263238"/>
<path d="M200.85 159.83C200.85 159.83 195.867 153.601 198.194 147.871C198.213 147.826 198.243 147.787 198.282 147.758C198.321 147.729 198.368 147.712 198.416 147.708C198.465 147.704 198.513 147.713 198.557 147.735C198.6 147.756 198.637 147.79 198.663 147.831C199.355 148.912 201.015 152.38 200.85 159.83Z" fill="#897E7E"/>
<path d="M198.698 150.402C198.868 150.845 198.992 151.304 199.066 151.772C199.276 152.729 199.52 153.855 199.789 155.101C200.058 156.347 200.312 157.468 200.521 158.425C200.655 158.879 200.746 159.344 200.795 159.815C200.577 159.391 200.409 158.943 200.297 158.479C200.053 157.637 199.754 156.486 199.475 155.161C199.196 153.835 198.977 152.669 198.837 151.812C198.739 151.349 198.692 150.876 198.698 150.402Z" fill="#263238"/>
<path d="M205.833 181.311C205.833 181.311 198.593 177.928 198.184 171.759C198.18 171.71 198.189 171.66 198.211 171.616C198.233 171.572 198.266 171.535 198.308 171.509C198.351 171.483 198.399 171.469 198.448 171.469C198.498 171.469 198.546 171.484 198.588 171.51C199.659 172.193 202.684 174.569 205.833 181.311Z" fill="#897E7E"/>
<path d="M199.739 173.812C200.081 174.139 200.392 174.497 200.666 174.883L202.783 177.549L204.906 180.215C205.225 180.564 205.512 180.941 205.763 181.341C205.392 181.05 205.058 180.716 204.767 180.345C204.174 179.697 203.396 178.775 202.569 177.729C201.742 176.682 201.024 175.711 200.516 174.998C200.212 174.634 199.951 174.236 199.739 173.812Z" fill="#263238"/>
<path d="M220.239 149.899C220.239 149.899 220.239 149.959 220.239 150.073C220.239 150.188 220.239 150.377 220.239 150.572C220.239 151.07 220.189 151.703 220.154 152.51C220.064 154.214 219.93 156.591 219.775 159.431C219.277 162.321 217.782 165.525 215.789 168.64C214.339 170.932 212.799 173.015 211.503 174.953C210.321 176.654 209.259 178.436 208.324 180.285C207.706 181.534 207.205 182.839 206.829 184.182C206.705 184.655 206.605 185.029 206.55 185.283C206.527 185.415 206.492 185.545 206.446 185.672C206.448 185.537 206.464 185.404 206.496 185.273C206.53 185.014 206.605 184.635 206.72 184.152C207.055 182.786 207.531 181.458 208.14 180.19C209.066 178.327 210.127 176.533 211.314 174.824C212.62 172.87 214.13 170.782 215.575 168.505C217.543 165.406 219.008 162.252 219.561 159.406C219.76 156.571 219.925 154.199 220.059 152.495C220.124 151.688 220.179 151.045 220.219 150.562C220.219 150.362 220.254 150.193 220.269 150.063C220.252 150.01 220.242 149.955 220.239 149.899Z" fill="#263238"/>
<path d="M215.928 168.067C215.928 168.067 218.992 160.692 215.141 155.854C215.111 155.815 215.071 155.785 215.025 155.768C214.979 155.75 214.929 155.746 214.881 155.756C214.833 155.765 214.789 155.787 214.753 155.82C214.717 155.854 214.691 155.896 214.677 155.943C214.333 157.179 213.701 160.971 215.928 168.067Z" fill="#897E7E"/>
<path d="M215.37 158.43C215.502 158.884 215.584 159.352 215.614 159.825C215.724 160.692 215.844 161.893 215.938 163.223C216.033 164.554 216.078 165.76 216.078 166.637C216.108 167.11 216.079 167.585 215.993 168.052C215.907 167.587 215.865 167.115 215.868 166.642C215.804 165.645 215.724 164.514 215.639 163.243C215.555 161.973 215.475 160.822 215.405 159.845C215.347 159.375 215.335 158.901 215.37 158.43Z" fill="#263238"/>
<g opacity="0.3">
<path d="M215.928 168.067C215.928 168.067 218.992 160.692 215.141 155.854C215.111 155.815 215.071 155.785 215.025 155.768C214.979 155.75 214.929 155.746 214.881 155.756C214.833 155.765 214.789 155.787 214.753 155.82C214.717 155.854 214.691 155.896 214.677 155.943C214.333 157.179 213.701 160.971 215.928 168.067Z" fill="black"/>
</g>
<path d="M206.436 185.851C206.436 185.851 208.892 178.247 204.657 173.742C204.624 173.706 204.582 173.68 204.535 173.667C204.488 173.653 204.439 173.653 204.392 173.666C204.345 173.679 204.303 173.704 204.269 173.74C204.236 173.775 204.213 173.819 204.203 173.867C203.964 175.123 203.64 178.959 206.436 185.851Z" fill="#897E7E"/>
<path d="M205.095 176.274C205.268 176.717 205.388 177.178 205.454 177.649C205.633 178.501 205.848 179.692 206.052 181.007C206.256 182.323 206.396 183.524 206.471 184.396C206.535 184.867 206.544 185.343 206.495 185.816C206.377 185.358 206.297 184.892 206.256 184.421C206.112 183.449 205.942 182.313 205.758 181.052C205.574 179.792 205.394 178.656 205.26 177.684C205.159 177.22 205.104 176.748 205.095 176.274Z" fill="#263238"/>
<g opacity="0.3">
<path d="M206.436 185.851C206.436 185.851 208.892 178.247 204.657 173.742C204.624 173.706 204.582 173.68 204.535 173.667C204.488 173.653 204.439 173.653 204.392 173.666C204.345 173.679 204.303 173.704 204.269 173.74C204.236 173.775 204.213 173.819 204.203 173.867C203.964 175.123 203.64 178.959 206.436 185.851Z" fill="black"/>
</g>
<path d="M219.835 159.053C219.835 159.053 226.378 154.468 225.72 148.319C225.715 148.271 225.696 148.225 225.667 148.186C225.637 148.148 225.598 148.118 225.552 148.101C225.507 148.083 225.458 148.078 225.41 148.087C225.362 148.096 225.318 148.117 225.281 148.15C224.33 149.007 221.778 151.857 219.835 159.053Z" fill="#897E7E"/>
<g opacity="0.3">
<path d="M219.835 159.053C219.835 159.053 226.378 154.468 225.72 148.319C225.715 148.271 225.696 148.225 225.667 148.186C225.637 148.148 225.598 148.118 225.552 148.101C225.507 148.083 225.458 148.078 225.41 148.087C225.362 148.096 225.318 148.117 225.281 148.15C224.33 149.007 221.778 151.857 219.835 159.053Z" fill="black"/>
</g>
<path d="M224.534 150.616C224.404 151.073 224.222 151.513 223.991 151.927C223.617 152.714 223.074 153.791 222.441 154.967C221.808 156.143 221.2 157.184 220.732 157.921C220.502 158.335 220.222 158.72 219.9 159.068C220.075 158.629 220.292 158.209 220.548 157.812C221.016 156.95 221.569 155.943 222.177 154.822L223.802 151.832C224.006 151.404 224.251 150.997 224.534 150.616Z" fill="#263238"/>
<path d="M209.077 178.312C209.077 178.312 216.97 177.081 219.082 171.271C219.1 171.225 219.104 171.176 219.095 171.129C219.086 171.081 219.064 171.037 219.032 171.001C218.999 170.965 218.958 170.938 218.911 170.924C218.865 170.911 218.815 170.91 218.768 170.922C217.538 171.291 213.97 172.711 209.077 178.312Z" fill="#897E7E"/>
<g opacity="0.3">
<path d="M209.077 178.312C209.077 178.312 216.97 177.081 219.082 171.271C219.1 171.225 219.104 171.176 219.095 171.129C219.086 171.081 219.064 171.037 219.032 171.001C218.999 170.965 218.958 170.938 218.911 170.924C218.865 170.911 218.815 170.91 218.768 170.922C217.538 171.291 213.97 172.711 209.077 178.312Z" fill="black"/>
</g>
<path d="M217.01 172.811C216.69 173.16 216.332 173.472 215.943 173.742C215.261 174.29 214.299 175.018 213.218 175.795C212.136 176.573 211.125 177.235 210.377 177.694C209.988 177.966 209.566 178.188 209.122 178.357C209.475 178.041 209.857 177.759 210.263 177.514L213.043 175.551L215.819 173.558C216.188 173.267 216.587 173.017 217.01 172.811Z" fill="#263238"/>
<path d="M201.543 192.842L199.241 208.339H213.592L211.733 192.842H201.543Z" fill="#455A64"/>
<path d="M212.311 197.641C212.311 197.725 209.72 197.79 206.526 197.79C203.331 197.79 200.735 197.725 200.735 197.641C202.662 197.493 204.594 197.443 206.526 197.491C208.455 197.443 210.386 197.493 212.311 197.641Z" fill="#263238"/>
<path d="M212.59 198.876C212.59 198.961 209.914 199.026 206.61 199.026C203.307 199.026 200.631 198.961 200.631 198.876C200.631 198.792 203.307 198.727 206.61 198.727C209.914 198.727 212.59 198.792 212.59 198.876Z" fill="#263238"/>
<path d="M143.754 34.6181C143.754 34.6181 143.62 34.6181 143.36 34.6181C142.982 34.5956 142.603 34.5956 142.224 34.6181C140.761 34.7038 139.323 35.0409 137.974 35.6147C135.835 36.511 133.974 37.961 132.582 39.8153C131.724 40.9731 131.086 42.2787 130.699 43.6671C129.827 46.9744 130.298 50.4923 132.009 53.4536C132.476 54.2735 133.045 55.0304 133.703 55.7059C134.368 56.4216 135.141 57.0271 135.996 57.4998C136.872 57.9931 137.865 58.2426 138.871 58.2223C139.908 58.2099 140.902 57.8079 141.656 57.0962C142.021 56.7142 142.307 56.2641 142.497 55.7716C142.688 55.2791 142.78 54.7539 142.767 54.226C142.76 53.1291 142.412 52.0617 141.771 51.1714C140.48 49.3527 138.387 48.1318 136.16 47.4741C133.85 46.8254 131.411 46.7911 129.084 47.3744C127.896 47.6834 126.752 48.1387 125.676 48.7298C124.59 49.3426 123.604 50.1172 122.751 51.0269C122.547 51.2611 122.312 51.4754 122.128 51.7345L121.565 52.4919C121.223 53.0256 120.916 53.5817 120.648 54.1562C120.115 55.3228 119.751 56.5594 119.567 57.8287C119.205 60.3644 119.55 62.9507 120.563 65.3031C121.532 67.6016 123.219 69.5247 125.372 70.7844C126.416 71.3807 127.581 71.7334 128.78 71.8158C129.956 71.8816 131.126 71.6009 132.144 71.0086C133.154 70.4501 133.953 69.5746 134.416 68.5171C134.853 67.4749 134.883 66.3067 134.501 65.2433C134.107 64.2173 133.463 63.306 132.627 62.5924C131.817 61.8918 130.882 61.3493 129.872 60.9928C127.901 60.3716 125.793 60.3352 123.802 60.8882C121.94 61.3929 120.229 62.3458 118.819 63.6637C117.535 64.8937 116.558 66.4075 115.964 68.0836C114.926 70.9918 114.974 74.1771 116.099 77.0529C116.976 79.1998 118.388 81.0867 120.2 82.5342C121.341 83.4496 122.612 84.1902 123.972 84.7316C124.44 84.906 124.804 85.0356 125.053 85.1054L125.422 85.225C125.422 85.225 125.292 85.2 125.043 85.1303C124.675 85.0317 124.312 84.9136 123.957 84.7765C122.58 84.2589 121.292 83.5293 120.14 82.6139C118.297 81.1674 116.857 79.2713 115.959 77.1077C114.815 74.2048 114.756 70.9863 115.795 68.0437C116.389 66.3422 117.378 64.8055 118.68 63.5591C120.109 62.2147 121.846 61.2397 123.738 60.7188C125.77 60.1517 127.923 60.1864 129.936 60.8184C130.976 61.1811 131.938 61.7374 132.772 62.4578C133.64 63.1949 134.309 64.1393 134.715 65.2034C135.125 66.3144 135.107 67.5381 134.665 68.6367C134.174 69.7358 133.34 70.6465 132.288 71.2328C131.233 71.8481 130.021 72.1424 128.8 72.0799C127.572 71.9942 126.379 71.6295 125.312 71.0136C123.11 69.7363 121.381 67.78 120.384 65.4376C119.349 63.0422 118.994 60.4078 119.358 57.8237C119.548 56.5287 119.92 55.2672 120.464 54.0765C120.738 53.4897 121.05 52.922 121.401 52.3773L121.979 51.605C122.163 51.3409 122.402 51.1067 122.611 50.8774C123.484 49.9505 124.492 49.1609 125.601 48.5355C126.702 47.9331 127.874 47.471 129.089 47.1602C131.461 46.5659 133.946 46.6019 136.3 47.2648C138.572 47.9425 140.7 49.1832 142.04 51.0668C142.714 51.9943 143.08 53.1096 143.086 54.2559C143.111 55.384 142.686 56.4755 141.905 57.2905C141.108 58.0389 140.059 58.4604 138.965 58.4715C137.919 58.4952 136.886 58.2352 135.976 57.719C135.101 57.2364 134.31 56.6155 133.634 55.8803C132.967 55.1897 132.389 54.4179 131.915 53.5832C130.173 50.5669 129.699 46.9823 130.599 43.6173C130.998 42.2128 131.652 40.8937 132.527 39.7256C133.945 37.8572 135.838 36.4032 138.009 35.515C139.369 34.9523 140.818 34.6351 142.289 34.5782C142.671 34.553 143.054 34.553 143.435 34.5782L143.754 34.6181Z" fill="#263238"/>
<path d="M160.392 84.4775H90.5259V138.363H160.392V84.4775Z" fill="#897E7E"/>
<path d="M90.5259 84.4775L103.432 96.5164H172.112L160.392 84.4775H90.5259Z" fill="#897E7E"/>
<path d="M90.5259 84.4776L160.412 84.353H160.467L160.506 84.3879L172.107 96.3021L172.226 96.4267L172.441 96.646H172.132L103.452 96.5912H103.422L90.5259 84.4776L103.482 96.4367H103.427L172.107 96.3869L172.017 96.6061L171.893 96.4815L160.297 84.5673L160.387 84.6072L90.5259 84.4776Z" fill="#263238"/>
<path d="M111.514 109.328C111.136 109.341 110.778 109.503 110.517 109.778C110.257 110.053 110.115 110.419 110.122 110.798C110.129 111.177 110.284 111.537 110.554 111.803C110.824 112.068 111.188 112.217 111.567 112.217C111.945 112.217 112.309 112.068 112.579 111.803C112.849 111.537 113.005 111.177 113.011 110.798C113.018 110.419 112.876 110.053 112.616 109.778C112.355 109.503 111.997 109.341 111.619 109.328" fill="#263238"/>
<path d="M128.023 109.328C127.646 109.342 127.29 109.504 127.031 109.778C126.772 110.052 126.631 110.417 126.638 110.794C126.645 111.171 126.8 111.53 127.069 111.795C127.338 112.059 127.701 112.207 128.078 112.207C128.455 112.207 128.817 112.059 129.086 111.795C129.356 111.53 129.51 111.171 129.518 110.794C129.525 110.417 129.384 110.052 129.125 109.778C128.866 109.504 128.509 109.342 128.133 109.328" fill="#263238"/>
<path d="M128.118 122.223C127.83 121.123 127.362 120.077 126.732 119.129C126.033 118.115 125.134 117.254 124.091 116.598C122.834 115.763 121.366 115.298 119.857 115.257C118.348 115.216 116.858 115.599 115.556 116.364C114.48 116.964 113.537 117.774 112.78 118.745C112.099 119.658 111.575 120.679 111.23 121.765C111.234 121.684 111.248 121.604 111.27 121.526C111.318 121.301 111.38 121.08 111.455 120.863C111.728 120.063 112.126 119.311 112.636 118.636C113.387 117.619 114.342 116.77 115.441 116.144C116.776 115.347 118.311 114.946 119.866 114.989C121.42 115.031 122.931 115.515 124.221 116.383C125.282 117.065 126.188 117.961 126.882 119.014C127.355 119.717 127.714 120.491 127.943 121.307C128.005 121.528 128.053 121.752 128.088 121.979C128.105 122.06 128.115 122.141 128.118 122.223Z" fill="#263238"/>
<path opacity="0.5" d="M90.6855 85.0706L103.043 100.737H160.392V96.5164H103.432L90.6855 85.0706Z" fill="black"/>
<path d="M146.614 138.244C146.545 138.244 146.485 128.871 146.485 117.315C146.485 105.76 146.545 96.3867 146.614 96.3867C146.684 96.3867 146.749 105.755 146.749 117.315C146.749 128.876 146.689 138.244 146.614 138.244Z" fill="#263238"/>
<path d="M157.587 126.025H151.428V132.987H157.587V126.025Z" fill="#F5F5F5"/>
<path d="M90.526 84.4775L76.1851 96.5164H90.526V84.4775Z" fill="#897E7E"/>
<g opacity="0.4">
<path d="M90.526 84.4775L76.1851 96.5164H90.526V84.4775Z" fill="black"/>
</g>
<path d="M162.455 138.363H82.125V200.321H162.455V138.363Z" fill="#897E7E"/>
<path opacity="0.3" d="M162.455 138.363H82.125V200.321H162.455V138.363Z" fill="black"/>
<path d="M142.329 199.883C142.259 199.883 142.2 186.075 142.2 169.043C142.2 152.011 142.259 138.199 142.329 138.199C142.399 138.199 142.459 152.006 142.459 169.043C142.459 186.08 142.399 199.883 142.329 199.883Z" fill="#263238"/>
<path d="M155.644 186.219H149.485V193.181H155.644V186.219Z" fill="#F5F5F5"/>
<path d="M115.754 138.528H106.63V151.747H115.754V138.528Z" fill="#263238"/>
<path d="M115.754 186.917H106.63V200.137H115.754V186.917Z" fill="#263238"/>
<path d="M161.758 138.363H161.548H160.945L158.628 138.388L150.092 138.428L121.944 138.493L93.7851 138.458L85.2543 138.418L82.9372 138.393L85.2543 138.368L93.7851 138.328L121.944 138.289L150.092 138.328L158.628 138.368L160.945 138.393H161.548L161.758 138.363Z" fill="#263238"/>
<path d="M79.7674 42.0828L80.2109 49.4077C80.2286 49.6967 80.3514 49.9691 80.556 50.1738C80.7607 50.3785 81.0332 50.5012 81.3221 50.5189C81.6261 50.5361 81.9252 50.4362 82.1578 50.2397C82.3904 50.0433 82.5389 49.7652 82.5728 49.4626L83.3851 42.1227C83.3992 41.9913 83.3853 41.8585 83.3442 41.733C83.3031 41.6075 83.2358 41.4921 83.1467 41.3946C83.0577 41.297 82.9489 41.2196 82.8276 41.1673C82.7063 41.1149 82.5753 41.089 82.4433 41.0912H80.6644C80.5395 41.0949 80.4168 41.1238 80.3034 41.1762C80.19 41.2285 80.0884 41.3033 80.0046 41.3959C79.9208 41.4885 79.8566 41.5971 79.8159 41.7151C79.7751 41.8332 79.7586 41.9582 79.7674 42.0828Z" fill="#897E7E"/>
<path d="M83.2556 54.6098C83.1441 54.9444 82.9359 55.2385 82.6573 55.4548C82.3788 55.6711 82.0423 55.8 81.6905 55.8252C81.3387 55.8504 80.9873 55.7707 80.6808 55.5962C80.3743 55.4218 80.1263 55.1604 79.9683 54.845C79.8103 54.5297 79.7493 54.1746 79.7931 53.8247C79.8368 53.4747 79.9833 53.1455 80.214 52.8788C80.4448 52.612 80.7494 52.4197 81.0895 52.326C81.4295 52.2324 81.7897 52.2416 82.1245 52.3526C82.3471 52.4263 82.5529 52.5433 82.7303 52.6967C82.9076 52.8501 83.053 53.037 83.1581 53.2467C83.2631 53.4563 83.3258 53.6846 83.3425 53.9185C83.3593 54.1524 83.3297 54.3874 83.2556 54.6098Z" fill="#897E7E"/>
</svg>
