<svg width="226" height="209" viewBox="0 0 226 209" fill="none" xmlns="http://www.w3.org/2000/svg">
<path d="M27.558 105.804C27.1494 98.2602 28.7489 90.2477 33.7867 84.6119C41.8292 75.6177 55.5572 75.3038 67.616 75.6725C79.6747 76.0413 93.3928 75.7672 101.47 66.7979C105.778 62.0202 107.538 55.7508 109.304 49.4622C110.083 46.6864 110.864 43.9069 111.865 41.2503C117.406 26.5007 130.825 14.9801 146.247 11.7213M27.558 105.804C28.6343 125.781 42.7311 143.645 60.6598 152.525C78.5884 161.404 99.6962 162.202 119.319 158.295C146.805 152.814 172.946 137.795 188.657 114.589C204.368 91.3838 208.325 59.7669 195.733 34.7176M27.558 105.804L27.6439 105.8C27.236 98.2681 28.8339 90.2817 33.8508 84.6693C37.8553 80.1909 43.278 77.8701 49.2117 76.7156C55.1461 75.5609 61.5845 75.5741 67.6133 75.7585C73.6431 75.9429 80.0956 75.967 86.0523 74.8214C92.0098 73.6757 97.4786 71.3588 101.534 66.8555C104.651 63.3986 106.437 59.1665 107.852 54.721C108.4 52.9982 108.894 51.2414 109.387 49.4848C109.53 48.9752 109.673 48.4657 109.817 47.9571C110.46 45.6937 111.129 43.4459 111.945 41.2806L111.945 41.2805C117.476 26.5585 130.871 15.0583 146.265 11.8055M27.558 105.804L27.6439 105.8C28.7182 125.739 42.7911 143.579 60.6979 152.448C78.6046 161.316 99.6918 162.115 119.302 158.211C146.771 152.733 172.889 137.725 188.586 114.541C204.281 91.3585 208.232 59.7765 195.658 34.7595M195.733 34.7176L194.676 32.9985C185.777 18.518 169.687 9.7879 152.725 10.8393M195.733 34.7176L195.659 34.7627L195.658 34.7595M195.733 34.7176L195.656 34.7563C195.656 34.7573 195.657 34.7584 195.658 34.7595M152.725 10.8393C150.547 10.9771 148.382 11.2718 146.247 11.7213M152.725 10.8393L152.73 10.9252C152.73 10.9252 152.73 10.9252 152.73 10.9252M152.725 10.8393L152.73 10.9252M146.247 11.7213L146.265 11.8055M146.247 11.7213L146.265 11.8055C146.265 11.8055 146.265 11.8055 146.265 11.8055M146.265 11.8055C148.396 11.3569 150.557 11.0627 152.73 10.9252M195.658 34.7595L194.603 33.0435C185.719 18.589 169.659 9.87581 152.73 10.9252" fill="#EBEBEB" stroke="#CCBCE6" stroke-width="0.172051"/>
<mask id="path-2-inside-1_107_5759" fill="white">
<path d="M97.5759 64.2155L88.8259 62.0628H88.8906C86.6313 63.5 84.0187 64.2846 81.3415 64.3301C79.7565 64.3373 78.1793 64.1072 76.6625 63.6474C73.9957 62.7911 71.6297 61.1893 69.8443 59.0312C68.0589 56.8732 66.9285 54.2491 66.5869 51.4691C66.3186 49.3666 66.5162 47.2308 67.1654 45.2132C67.8147 43.1955 68.8999 41.3454 70.3441 39.794C71.1032 38.9602 71.9541 38.2146 72.8804 37.5716C73.3488 37.2776 73.8172 36.9737 74.3055 36.7195L75.048 36.3608L75.4167 36.1814L75.8054 36.0419C77.8063 35.2663 79.9527 34.938 82.0939 35.0801C84.9635 35.2665 87.7138 36.2981 89.9981 38.045C92.2824 39.7919 93.9984 42.1759 94.93 44.8966C95.4475 46.4185 95.72 48.013 95.7372 49.6204C95.7497 52.2918 95.0237 54.9147 93.6394 57.1995V57.1197C96.0711 61.5097 97.2969 63.7271 97.571 64.2155C97.2869 63.7172 96.0163 61.5396 93.4999 57.1945V57.1546V57.1148C94.8345 54.8521 95.5238 52.2671 95.4931 49.6403C95.4699 48.0586 95.194 46.4908 94.6759 44.9962C93.7544 42.3312 92.0673 39.9973 89.8257 38.2866C87.5841 36.5759 84.8876 35.5645 82.074 35.3791C79.9749 35.2423 77.8713 35.5654 75.91 36.3259L75.5313 36.4604L75.1676 36.6398L74.4401 36.9886C73.9418 37.2427 73.5033 37.5367 73.0399 37.8257C72.1314 38.4515 71.2957 39.1769 70.5484 39.9883C69.1306 41.5114 68.065 43.3274 67.4269 45.3079C66.7889 47.2884 66.594 49.385 66.856 51.4491C67.318 55.2308 69.2582 58.6759 72.2526 61.0314C73.5913 62.0921 75.1105 62.9024 76.7372 63.4232C78.2268 63.8837 79.7773 64.1172 81.3365 64.1158C83.9817 64.0875 86.5679 63.3306 88.8109 61.9283H88.8408H88.8956L97.5759 64.2155Z"/>
</mask>
<path d="M97.5759 64.2155L88.8259 62.0628H88.8906C86.6313 63.5 84.0187 64.2846 81.3415 64.3301C79.7565 64.3373 78.1793 64.1072 76.6625 63.6474C73.9957 62.7911 71.6297 61.1893 69.8443 59.0312C68.0589 56.8732 66.9285 54.2491 66.5869 51.4691C66.3186 49.3666 66.5162 47.2308 67.1654 45.2132C67.8147 43.1955 68.8999 41.3454 70.3441 39.794C71.1032 38.9602 71.9541 38.2146 72.8804 37.5716C73.3488 37.2776 73.8172 36.9737 74.3055 36.7195L75.048 36.3608L75.4167 36.1814L75.8054 36.0419C77.8063 35.2663 79.9527 34.938 82.0939 35.0801C84.9635 35.2665 87.7138 36.2981 89.9981 38.045C92.2824 39.7919 93.9984 42.1759 94.93 44.8966C95.4475 46.4185 95.72 48.013 95.7372 49.6204C95.7497 52.2918 95.0237 54.9147 93.6394 57.1995V57.1197C96.0711 61.5097 97.2969 63.7271 97.571 64.2155C97.2869 63.7172 96.0163 61.5396 93.4999 57.1945V57.1546V57.1148C94.8345 54.8521 95.5238 52.2671 95.4931 49.6403C95.4699 48.0586 95.194 46.4908 94.6759 44.9962C93.7544 42.3312 92.0673 39.9973 89.8257 38.2866C87.5841 36.5759 84.8876 35.5645 82.074 35.3791C79.9749 35.2423 77.8713 35.5654 75.91 36.3259L75.5313 36.4604L75.1676 36.6398L74.4401 36.9886C73.9418 37.2427 73.5033 37.5367 73.0399 37.8257C72.1314 38.4515 71.2957 39.1769 70.5484 39.9883C69.1306 41.5114 68.065 43.3274 67.4269 45.3079C66.7889 47.2884 66.594 49.385 66.856 51.4491C67.318 55.2308 69.2582 58.6759 72.2526 61.0314C73.5913 62.0921 75.1105 62.9024 76.7372 63.4232C78.2268 63.8837 79.7773 64.1172 81.3365 64.1158C83.9817 64.0875 86.5679 63.3306 88.8109 61.9283H88.8408H88.8956L97.5759 64.2155Z" fill="#CCBCE6"/>
<path d="M97.5759 64.2155L97.2872 65.389L97.8839 63.0468L97.5759 64.2155ZM88.8259 62.0628V60.8543L88.5372 63.2364L88.8259 62.0628ZM88.8906 62.0628L89.5393 63.0826L93.0424 60.8543H88.8906V62.0628ZM81.3415 64.3301L81.347 65.5386L81.3545 65.5386L81.362 65.5385L81.3415 64.3301ZM76.6625 63.6474L76.293 64.7981L76.3024 64.8011L76.3119 64.804L76.6625 63.6474ZM66.5869 51.4691L67.7865 51.3217L67.7858 51.3161L66.5869 51.4691ZM70.3441 39.794L71.2288 40.6175L71.2378 40.6076L70.3441 39.794ZM72.8804 37.5716L72.2379 36.548L72.2142 36.5629L72.1912 36.5788L72.8804 37.5716ZM74.3055 36.7195L73.7797 35.6314L73.7635 35.6392L73.7476 35.6475L74.3055 36.7195ZM75.048 36.3608L75.5738 37.4489L75.5767 37.4475L75.048 36.3608ZM75.4167 36.1814L75.0084 35.0439L74.9468 35.066L74.888 35.0946L75.4167 36.1814ZM75.8054 36.0419L76.2137 37.1793L76.228 37.1742L76.2422 37.1687L75.8054 36.0419ZM82.0939 35.0801L82.0138 36.286L82.0156 36.2862L82.0939 35.0801ZM94.93 44.8966L96.0742 44.5075L96.0734 44.5051L94.93 44.8966ZM95.7372 49.6204L96.9458 49.6148L96.9457 49.6074L95.7372 49.6204ZM93.6394 57.1995H92.4308V61.5265L94.673 57.8257L93.6394 57.1995ZM93.6394 57.1197L94.6966 56.5341L92.4308 52.4437V57.1197H93.6394ZM97.571 64.2155L96.521 64.814L98.6249 63.624L97.571 64.2155ZM93.4999 57.1945H92.2913V57.5192L92.454 57.8002L93.4999 57.1945ZM93.4999 57.1148L92.4589 56.5008L92.2913 56.7849V57.1148H93.4999ZM95.4931 49.6403L96.7015 49.6262L96.7015 49.6227L95.4931 49.6403ZM94.6759 44.9962L93.5336 45.3911L93.534 45.3921L94.6759 44.9962ZM82.074 35.3791L82.1534 34.1732L82.1526 34.1731L82.074 35.3791ZM75.91 36.3259L76.3146 37.4647L76.3309 37.4589L76.347 37.4527L75.91 36.3259ZM75.5313 36.4604L75.1268 35.3216L75.0602 35.3452L74.9968 35.3765L75.5313 36.4604ZM75.1676 36.6398L75.6901 37.7296L75.7021 37.7237L75.1676 36.6398ZM74.4401 36.9886L73.9176 35.8988L73.9042 35.9052L73.891 35.912L74.4401 36.9886ZM73.0399 37.8257L72.4003 36.8003L72.377 36.8148L72.3543 36.8305L73.0399 37.8257ZM70.5484 39.9883L71.433 40.8118L71.4374 40.8071L70.5484 39.9883ZM66.856 51.4491L68.0557 51.3026L68.055 51.2969L66.856 51.4491ZM72.2526 61.0314L73.0031 60.0841L72.9998 60.0815L72.2526 61.0314ZM76.7372 63.4232L76.3687 64.5742L76.3803 64.5778L76.7372 63.4232ZM81.3365 64.1158L81.3375 65.3244L81.3494 65.3243L81.3365 64.1158ZM88.8109 61.9283V60.7197H88.4642L88.1703 60.9035L88.8109 61.9283ZM88.8956 61.9283L89.2036 60.7596L89.0522 60.7197H88.8956V61.9283ZM97.8646 63.0419L89.1146 60.8893L88.5372 63.2364L97.2872 65.389L97.8646 63.0419ZM88.8259 63.2714H88.8906V60.8543H88.8259V63.2714ZM88.242 61.0431C86.1707 62.3606 83.7754 63.08 81.3209 63.1217L81.362 65.5385C84.262 65.4892 87.092 64.6393 89.5393 63.0826L88.242 61.0431ZM81.336 63.1215C79.8716 63.1282 78.4145 62.9156 77.0131 62.4908L76.3119 64.804C77.9442 65.2988 79.6414 65.5464 81.347 65.5386L81.336 63.1215ZM77.0319 62.4967C74.5848 61.711 72.4138 60.2411 70.7755 58.2608L68.9131 59.8016C70.8456 62.1375 73.4065 63.8713 76.293 64.7981L77.0319 62.4967ZM70.7755 58.2608C69.1371 56.2806 68.0999 53.8726 67.7865 51.3217L65.3874 51.6165C65.7571 54.6255 66.9806 57.4658 68.9131 59.8016L70.7755 58.2608ZM67.7858 51.3161C67.5399 49.3894 67.7209 47.4323 68.3159 45.5834L66.015 44.8429C65.3114 47.0293 65.0974 49.3437 65.3881 51.6221L67.7858 51.3161ZM68.3159 45.5834C68.9109 43.7345 69.9053 42.0391 71.2287 40.6175L69.4595 38.9706C67.8945 40.6517 66.7186 42.6566 66.015 44.8429L68.3159 45.5834ZM71.2378 40.6076C71.9357 39.841 72.7179 39.1556 73.5696 38.5644L72.1912 36.5788C71.1902 37.2737 70.2708 38.0793 69.4504 38.9804L71.2378 40.6076ZM73.5229 38.5952C74.0152 38.2863 74.4301 38.0171 74.8635 37.7916L73.7476 35.6475C73.2043 35.9302 72.6825 36.269 72.2379 36.548L73.5229 38.5952ZM74.8314 37.8077L75.5738 37.4489L74.5222 35.2726L73.7797 35.6314L74.8314 37.8077ZM75.5767 37.4475L75.9454 37.2682L74.888 35.0946L74.5193 35.274L75.5767 37.4475ZM75.8251 37.3189L76.2137 37.1793L75.3971 34.9044L75.0084 35.0439L75.8251 37.3189ZM76.2422 37.1687C78.0786 36.4569 80.0486 36.1556 82.0138 36.286L82.1739 33.8742C79.8567 33.7204 77.5339 34.0757 75.3686 34.915L76.2422 37.1687ZM82.0156 36.2862C84.6471 36.457 87.1692 37.4031 89.264 39.005L90.7323 37.085C88.2585 35.1931 85.28 34.0759 82.1722 33.8741L82.0156 36.2862ZM89.264 39.005C91.3587 40.607 92.9324 42.7932 93.7866 45.2881L96.0734 44.5051C95.0645 41.5587 93.2061 38.9769 90.7323 37.085L89.264 39.005ZM93.7858 45.2856C94.2621 46.6864 94.5129 48.1539 94.5287 49.6334L96.9457 49.6074C96.9271 47.872 96.6329 46.1506 96.0742 44.5075L93.7858 45.2856ZM94.5287 49.626C94.5401 52.0747 93.8746 54.4789 92.6058 56.5732L94.673 57.8257C96.1728 55.3505 96.9593 52.5089 96.9458 49.6148L94.5287 49.626ZM94.848 57.1995V57.1197H92.4308V57.1995H94.848ZM92.5822 57.7054C95.0115 62.0911 96.2408 64.3147 96.517 64.807L98.6249 63.624C98.353 63.1396 97.1306 60.9284 94.6966 56.5341L92.5822 57.7054ZM98.6209 63.617C98.3343 63.1142 97.0572 60.9256 94.5457 56.5888L92.454 57.8002C94.9753 62.1537 96.2395 64.3202 96.521 64.814L98.6209 63.617ZM94.7084 57.1945V57.1546H92.2913V57.1945H94.7084ZM94.7084 57.1546V57.1148H92.2913V57.1546H94.7084ZM94.5408 57.7288C95.9876 55.2759 96.7349 52.4737 96.7015 49.6262L94.2846 49.6545C94.3127 52.0605 93.6813 54.4283 92.4589 56.5008L94.5408 57.7288ZM96.7015 49.6227C96.6765 47.9121 96.3781 46.2166 95.8177 44.6003L93.534 45.3921C94.01 46.765 94.2634 48.2051 94.2846 49.658L96.7015 49.6227ZM95.8181 44.6013C94.819 41.7116 92.9895 39.1808 90.5589 37.3258L89.0925 39.2473C91.1451 40.8138 92.6899 42.9509 93.5336 45.3911L95.8181 44.6013ZM90.5589 37.3258C88.1283 35.4709 85.2044 34.3742 82.1534 34.1732L81.9945 36.5851C84.5709 36.7548 87.0399 37.6809 89.0925 39.2473L90.5589 37.3258ZM82.1526 34.1731C79.8779 34.0249 77.5984 34.375 75.4731 35.1991L76.347 37.4527C78.1442 36.7558 80.0719 36.4598 81.9954 36.5851L82.1526 34.1731ZM75.5055 35.1871L75.1268 35.3216L75.9359 37.5992L76.3146 37.4647L75.5055 35.1871ZM74.9968 35.3765L74.6331 35.5559L75.7021 37.7237L76.0659 37.5443L74.9968 35.3765ZM74.6451 35.55L73.9176 35.8988L74.9626 38.0784L75.6901 37.7296L74.6451 35.55ZM73.891 35.912C73.3316 36.1973 72.8211 36.5379 72.4003 36.8003L73.6794 38.8512C74.1855 38.5356 74.552 38.2882 74.9892 38.0652L73.891 35.912ZM72.3543 36.8305C71.3716 37.5073 70.4677 38.2919 69.6594 39.1696L71.4374 40.8071C72.1237 40.0619 72.8911 39.3957 73.7255 38.821L72.3543 36.8305ZM69.6638 39.1649C68.1253 40.8175 66.969 42.7882 66.2766 44.9373L68.5773 45.6785C69.161 43.8666 70.1359 42.2052 71.433 40.8118L69.6638 39.1649ZM66.2766 44.9373C65.5842 47.0864 65.3727 49.3614 65.6571 51.6013L68.055 51.2969C67.8152 49.4085 67.9935 47.4904 68.5773 45.6785L66.2766 44.9373ZM65.6564 51.5957C66.1571 55.6944 68.2599 59.4283 71.5053 61.9813L72.9998 60.0815C70.2564 57.9235 68.4789 54.7672 68.0557 51.3026L65.6564 51.5957ZM71.502 61.9786C72.9548 63.1297 74.6034 64.009 76.3687 64.5742L77.1057 62.2722C75.6176 61.7957 74.2278 61.0545 73.0031 60.0841L71.502 61.9786ZM76.3803 64.5778C77.9858 65.0742 79.657 65.3258 81.3375 65.3244L81.3354 62.9073C79.8976 62.9085 78.4678 62.6932 77.0942 62.2685L76.3803 64.5778ZM81.3494 65.3243C84.2168 65.2936 87.0201 64.4731 89.4516 62.9531L88.1703 60.9035C86.1156 62.188 83.7466 62.8814 81.3235 62.9073L81.3494 65.3243ZM88.8109 63.1369H88.8408V60.7197H88.8109V63.1369ZM88.8408 63.1369H88.8956V60.7197H88.8408V63.1369ZM88.5877 63.097L97.268 65.3841L97.8839 63.0468L89.2036 60.7596L88.5877 63.097Z" fill="#CCBCE6" mask="url(#path-2-inside-1_107_5759)"/>
<path d="M220.114 208.339C220.114 208.414 172.217 208.469 113.154 208.469C54.0914 208.469 6.1853 208.414 6.1853 208.339C6.1853 208.264 54.0715 208.209 113.154 208.209C172.237 208.209 220.114 208.269 220.114 208.339Z" fill="#263238"/>
<path d="M204.722 195.298C204.745 195.226 204.775 195.156 204.811 195.089C204.881 194.94 204.976 194.74 205.091 194.486C205.437 193.708 205.716 192.901 205.923 192.074C206.471 189.932 206.665 186.658 205.853 182.771C205.412 180.652 204.834 178.563 204.124 176.518C203.396 174.3 202.544 171.948 201.852 169.402C201.07 166.746 200.692 163.988 200.73 161.22C200.835 158.325 201.692 155.44 202.634 152.56C203.576 149.679 204.547 146.874 204.836 144.034C205.158 141.31 204.61 138.554 203.272 136.161C202.026 133.863 200.456 131.895 199.285 129.862C198.189 127.973 197.381 125.931 196.889 123.803C196.181 120.722 196.129 117.527 196.734 114.425C196.955 113.29 197.288 112.18 197.731 111.111C197.717 111.186 197.697 111.259 197.671 111.331L197.472 111.963C197.302 112.521 197.078 113.359 196.864 114.455C196.307 117.543 196.39 120.713 197.108 123.768C197.608 125.87 198.419 127.885 199.515 129.748C200.686 131.741 202.26 133.734 203.536 136.041C204.907 138.483 205.47 141.297 205.145 144.079C204.851 146.959 203.875 149.794 202.933 152.669C201.991 155.544 201.144 158.4 201.039 161.245C200.995 163.985 201.364 166.717 202.136 169.347C202.818 171.878 203.655 174.23 204.378 176.458C205.082 178.514 205.648 180.615 206.072 182.746C206.864 186.663 206.64 189.972 206.072 192.119C205.85 192.947 205.551 193.753 205.18 194.526L204.871 195.119C204.828 195.184 204.778 195.244 204.722 195.298Z" fill="#263238"/>
<path d="M200.88 131.87C200.88 131.87 198.498 124.242 202.773 119.777C202.806 119.741 202.849 119.715 202.896 119.702C202.943 119.689 202.993 119.689 203.04 119.702C203.087 119.715 203.129 119.742 203.162 119.778C203.195 119.814 203.218 119.858 203.227 119.906C203.456 121.167 203.74 125.004 200.88 131.87Z" fill="#CCBCE6"/>
<path d="M202.31 122.318C202.303 122.79 202.249 123.261 202.151 123.723C201.991 124.695 201.807 125.831 201.607 127.087C201.408 128.342 201.224 129.483 201.069 130.45C201.026 130.921 200.942 131.388 200.82 131.845C200.773 131.374 200.783 130.899 200.85 130.43C200.93 129.558 201.084 128.362 201.299 127.047C201.513 125.731 201.747 124.555 201.931 123.693C202.004 123.222 202.131 122.76 202.31 122.318Z" fill="#263238"/>
<path d="M203.68 149.864C203.68 149.864 205.14 142.005 211.01 140.062C211.056 140.046 211.106 140.043 211.154 140.054C211.202 140.064 211.246 140.088 211.281 140.122C211.316 140.156 211.341 140.199 211.353 140.247C211.365 140.294 211.364 140.344 211.349 140.391C210.96 141.602 209.421 145.125 203.68 149.864Z" fill="#CCBCE6"/>
<path d="M209.411 142.081C209.183 142.496 208.916 142.888 208.613 143.252L206.555 145.967L204.512 148.693C204.255 149.088 203.963 149.46 203.64 149.804C203.822 149.366 204.057 148.951 204.338 148.568C204.836 147.836 205.514 146.849 206.331 145.788C207.148 144.727 207.891 143.795 208.454 143.117C208.734 142.737 209.055 142.39 209.411 142.081Z" fill="#263238"/>
<path d="M202.096 169.561C202.096 169.561 201.209 161.618 206.262 158.056C206.3 158.025 206.347 158.006 206.397 158.002C206.446 157.997 206.495 158.006 206.539 158.029C206.583 158.051 206.62 158.086 206.645 158.129C206.67 158.171 206.682 158.22 206.68 158.27C206.665 159.55 206.212 163.367 202.096 169.561Z" fill="#CCBCE6"/>
<path d="M205.335 160.458C205.242 160.921 205.1 161.374 204.911 161.808L203.735 165.007C203.297 166.203 202.903 167.284 202.569 168.206C202.442 168.66 202.275 169.101 202.071 169.526C202.117 169.054 202.221 168.589 202.38 168.141C202.624 167.304 203.003 166.148 203.466 164.902C203.93 163.657 204.383 162.535 204.727 161.733C204.886 161.288 205.089 160.861 205.335 160.458Z" fill="#263238"/>
<path d="M206.516 189.384C206.516 189.384 205.918 181.411 211.09 178.032C211.131 178.005 211.178 177.989 211.227 177.986C211.276 177.984 211.325 177.995 211.368 178.019C211.411 178.043 211.447 178.078 211.471 178.121C211.495 178.164 211.506 178.213 211.504 178.262C211.444 179.542 210.856 183.344 206.516 189.384Z" fill="#CCBCE6"/>
<path d="M210.064 180.404C209.952 180.865 209.793 181.312 209.59 181.74C209.221 182.647 208.783 183.733 208.3 184.894C207.816 186.055 207.393 187.136 207.024 188.048C206.876 188.498 206.688 188.933 206.461 189.349C206.527 188.877 206.649 188.416 206.825 187.973C207.099 187.146 207.517 186.01 208.026 184.779C208.534 183.549 209.022 182.442 209.396 181.655C209.573 181.216 209.797 180.796 210.064 180.404Z" fill="#263238"/>
<path d="M197.452 125.168C197.452 125.168 190.386 121.461 190.231 115.287C190.231 115.239 190.244 115.191 190.268 115.149C190.293 115.107 190.328 115.073 190.37 115.049C190.412 115.026 190.46 115.014 190.509 115.016C190.557 115.017 190.604 115.032 190.645 115.058C191.696 115.785 194.616 118.297 197.452 125.168Z" fill="#CCBCE6"/>
<path d="M191.701 117.41C192.033 117.749 192.328 118.121 192.583 118.521C193.161 119.313 193.834 120.25 194.576 121.281L196.57 124.032C196.873 124.394 197.143 124.782 197.377 125.193C197.012 124.89 196.686 124.543 196.405 124.162C195.842 123.494 195.105 122.537 194.327 121.456C193.55 120.375 192.867 119.373 192.399 118.64C192.124 118.256 191.89 117.843 191.701 117.41Z" fill="#263238"/>
<path d="M205.06 141.547C205.06 141.547 197.765 138.283 197.252 132.12C197.248 132.071 197.257 132.023 197.279 131.979C197.301 131.936 197.334 131.899 197.375 131.873C197.417 131.847 197.464 131.834 197.513 131.833C197.561 131.833 197.609 131.845 197.651 131.87C198.742 132.533 201.807 134.855 205.06 141.547Z" fill="#CCBCE6"/>
<path d="M198.857 134.152C199.208 134.469 199.525 134.821 199.803 135.204L201.966 137.84L204.134 140.466C204.458 140.809 204.752 141.181 205.011 141.577C204.628 141.295 204.28 140.969 203.974 140.605C203.376 139.967 202.579 139.061 201.737 138.029C200.895 136.998 200.157 136.036 199.639 135.333C199.335 134.97 199.073 134.574 198.857 134.152Z" fill="#263238"/>
<path d="M200.85 159.83C200.85 159.83 195.867 153.601 198.194 147.871C198.213 147.826 198.243 147.787 198.282 147.758C198.321 147.729 198.368 147.712 198.416 147.707C198.465 147.703 198.513 147.713 198.557 147.734C198.6 147.756 198.637 147.79 198.663 147.831C199.355 148.912 201.015 152.38 200.85 159.83Z" fill="#CCBCE6"/>
<path d="M198.697 150.402C198.868 150.844 198.991 151.304 199.066 151.772C199.275 152.729 199.52 153.855 199.789 155.101C200.058 156.347 200.312 157.468 200.521 158.424C200.654 158.879 200.746 159.344 200.795 159.815C200.576 159.391 200.409 158.943 200.297 158.479C200.053 157.637 199.754 156.486 199.475 155.161C199.196 153.835 198.976 152.669 198.837 151.812C198.739 151.348 198.692 150.876 198.697 150.402Z" fill="#263238"/>
<path d="M205.833 181.311C205.833 181.311 198.593 177.928 198.184 171.759C198.18 171.71 198.189 171.66 198.211 171.616C198.233 171.572 198.266 171.535 198.308 171.509C198.351 171.483 198.399 171.469 198.448 171.469C198.498 171.469 198.546 171.484 198.588 171.51C199.659 172.193 202.684 174.569 205.833 181.311Z" fill="#CCBCE6"/>
<path d="M199.739 173.812C200.081 174.139 200.391 174.497 200.665 174.883L202.783 177.549L204.906 180.215C205.225 180.564 205.512 180.941 205.763 181.341C205.392 181.05 205.057 180.716 204.766 180.345C204.173 179.697 203.396 178.775 202.569 177.729C201.742 176.682 201.024 175.711 200.516 174.998C200.211 174.634 199.951 174.236 199.739 173.812Z" fill="#263238"/>
<path d="M220.239 149.898C220.239 149.898 220.239 149.958 220.239 150.073C220.239 150.187 220.239 150.377 220.239 150.571C220.239 151.069 220.189 151.702 220.154 152.51C220.064 154.214 219.93 156.591 219.775 159.431C219.277 162.321 217.782 165.525 215.789 168.639C214.339 170.931 212.799 173.014 211.503 174.953C210.321 176.654 209.259 178.435 208.324 180.284C207.706 181.534 207.205 182.839 206.829 184.181C206.705 184.655 206.605 185.028 206.55 185.282C206.527 185.415 206.492 185.545 206.446 185.671C206.448 185.537 206.464 185.403 206.496 185.272C206.53 185.013 206.605 184.635 206.72 184.151C207.055 182.785 207.531 181.458 208.14 180.19C209.066 178.326 210.127 176.532 211.314 174.823C212.62 172.87 214.13 170.782 215.575 168.505C217.543 165.405 219.008 162.251 219.561 159.406C219.76 156.571 219.925 154.199 220.059 152.495C220.124 151.687 220.179 151.045 220.219 150.561C220.219 150.362 220.254 150.192 220.269 150.063C220.252 150.01 220.242 149.954 220.239 149.898Z" fill="#263238"/>
<path d="M215.928 168.067C215.928 168.067 218.993 160.692 215.141 155.853C215.111 155.815 215.071 155.785 215.025 155.768C214.979 155.75 214.93 155.746 214.882 155.755C214.833 155.765 214.789 155.787 214.753 155.82C214.717 155.853 214.691 155.896 214.678 155.943C214.334 157.179 213.701 160.971 215.928 168.067Z" fill="#CCBCE6"/>
<path d="M215.37 158.43C215.503 158.884 215.584 159.352 215.615 159.825C215.724 160.692 215.844 161.893 215.938 163.223C216.033 164.554 216.078 165.76 216.078 166.637C216.108 167.11 216.079 167.585 215.993 168.052C215.907 167.587 215.866 167.115 215.869 166.642C215.804 165.645 215.724 164.514 215.639 163.243C215.555 161.973 215.475 160.822 215.405 159.845C215.347 159.375 215.336 158.901 215.37 158.43Z" fill="#263238"/>
<g opacity="0.3">
<path d="M215.928 168.067C215.928 168.067 218.993 160.692 215.141 155.853C215.111 155.815 215.071 155.785 215.025 155.768C214.979 155.75 214.93 155.746 214.882 155.755C214.833 155.765 214.789 155.787 214.753 155.82C214.717 155.853 214.691 155.896 214.678 155.943C214.334 157.179 213.701 160.971 215.928 168.067Z" fill="black"/>
</g>
<path d="M206.436 185.851C206.436 185.851 208.892 178.247 204.657 173.742C204.624 173.706 204.582 173.68 204.535 173.667C204.488 173.653 204.439 173.653 204.392 173.666C204.345 173.679 204.303 173.704 204.269 173.74C204.236 173.775 204.213 173.819 204.203 173.867C203.964 175.122 203.64 178.959 206.436 185.851Z" fill="#CCBCE6"/>
<path d="M205.095 176.273C205.268 176.716 205.389 177.178 205.454 177.649C205.634 178.501 205.848 179.692 206.052 181.007C206.256 182.323 206.396 183.524 206.471 184.396C206.535 184.866 206.544 185.343 206.496 185.816C206.377 185.358 206.297 184.891 206.256 184.421C206.112 183.449 205.943 182.313 205.758 181.052C205.574 179.791 205.394 178.655 205.26 177.684C205.159 177.22 205.104 176.748 205.095 176.273Z" fill="#263238"/>
<g opacity="0.3">
<path d="M206.436 185.851C206.436 185.851 208.892 178.247 204.657 173.742C204.624 173.706 204.582 173.68 204.535 173.667C204.488 173.653 204.439 173.653 204.392 173.666C204.345 173.679 204.303 173.704 204.269 173.74C204.236 173.775 204.213 173.819 204.203 173.867C203.964 175.122 203.64 178.959 206.436 185.851Z" fill="black"/>
</g>
<path d="M219.835 159.052C219.835 159.052 226.378 154.468 225.72 148.319C225.715 148.271 225.696 148.225 225.667 148.186C225.637 148.147 225.598 148.118 225.552 148.1C225.507 148.083 225.458 148.078 225.41 148.087C225.362 148.095 225.318 148.117 225.281 148.15C224.33 149.007 221.778 151.857 219.835 159.052Z" fill="#CCBCE6"/>
<g opacity="0.3">
<path d="M219.835 159.052C219.835 159.052 226.378 154.468 225.72 148.319C225.715 148.271 225.696 148.225 225.667 148.186C225.637 148.147 225.598 148.118 225.552 148.1C225.507 148.083 225.458 148.078 225.41 148.087C225.362 148.095 225.318 148.117 225.281 148.15C224.33 149.007 221.778 151.857 219.835 159.052Z" fill="black"/>
</g>
<path d="M224.534 150.616C224.404 151.073 224.222 151.512 223.991 151.927C223.617 152.714 223.074 153.79 222.441 154.966C221.808 156.142 221.2 157.184 220.732 157.921C220.502 158.335 220.222 158.72 219.9 159.067C220.075 158.629 220.292 158.208 220.548 157.812C221.016 156.95 221.569 155.943 222.177 154.822L223.802 151.832C224.006 151.404 224.251 150.997 224.534 150.616Z" fill="#263238"/>
<path d="M209.077 178.311C209.077 178.311 216.97 177.081 219.083 171.27C219.1 171.225 219.104 171.176 219.095 171.128C219.086 171.081 219.064 171.037 219.032 171.001C218.999 170.964 218.958 170.938 218.911 170.924C218.865 170.91 218.816 170.909 218.769 170.922C217.538 171.29 213.97 172.711 209.077 178.311Z" fill="#CCBCE6"/>
<g opacity="0.3">
<path d="M209.077 178.311C209.077 178.311 216.97 177.081 219.083 171.27C219.1 171.225 219.104 171.176 219.095 171.128C219.086 171.081 219.064 171.037 219.032 171.001C218.999 170.964 218.958 170.938 218.911 170.924C218.865 170.91 218.816 170.909 218.769 170.922C217.538 171.29 213.97 172.711 209.077 178.311Z" fill="black"/>
</g>
<path d="M217.01 172.81C216.69 173.159 216.332 173.472 215.943 173.742C215.261 174.29 214.299 175.018 213.218 175.795C212.137 176.572 211.125 177.235 210.378 177.693C209.988 177.965 209.566 178.188 209.122 178.356C209.475 178.041 209.857 177.759 210.263 177.514L213.043 175.551L215.819 173.558C216.188 173.267 216.587 173.016 217.01 172.81Z" fill="#263238"/>
<path d="M201.543 192.842L199.24 208.339H213.591L211.733 192.842H201.543Z" fill="#CCBCE6"/>
<path d="M212.311 197.64C212.311 197.725 209.72 197.79 206.526 197.79C203.332 197.79 200.736 197.725 200.736 197.64C202.662 197.493 204.594 197.443 206.526 197.491C208.455 197.443 210.386 197.493 212.311 197.64Z" fill="#263238"/>
<path d="M212.59 198.876C212.59 198.961 209.914 199.026 206.61 199.026C203.307 199.026 200.631 198.961 200.631 198.876C200.631 198.791 203.307 198.727 206.61 198.727C209.914 198.727 212.59 198.791 212.59 198.876Z" fill="#263238"/>
<path d="M143.755 34.6178C143.755 34.6178 143.62 34.6178 143.361 34.6178C142.983 34.5954 142.603 34.5954 142.225 34.6178C140.761 34.7035 139.323 35.0406 137.974 35.6144C135.836 36.5108 133.975 37.9607 132.583 39.815C131.724 40.9729 131.086 42.2785 130.699 43.6669C129.827 46.9741 130.298 50.4921 132.01 53.4534C132.476 54.2733 133.046 55.0302 133.704 55.7057C134.368 56.4214 135.142 57.0269 135.996 57.4996C136.873 57.9929 137.866 58.2424 138.871 58.2221C139.908 58.2096 140.903 57.8076 141.657 57.0959C142.021 56.7139 142.307 56.2638 142.498 55.7714C142.688 55.2789 142.78 54.7537 142.768 54.2257C142.76 53.1289 142.412 52.0615 141.771 51.1712C140.481 49.3524 138.388 48.1316 136.161 47.4738C133.851 46.8252 131.412 46.7908 129.085 47.3742C127.897 47.6832 126.752 48.1385 125.676 48.7296C124.59 49.3424 123.604 50.117 122.751 51.0267C122.547 51.2609 122.313 51.4752 122.129 51.7343L121.565 52.4917C121.223 53.0254 120.917 53.5814 120.649 54.156C120.116 55.3226 119.752 56.5591 119.567 57.8284C119.206 60.3641 119.55 62.9505 120.564 65.3029C121.533 67.6014 123.22 69.5244 125.372 70.7841C126.416 71.3805 127.581 71.7331 128.781 71.8156C129.957 71.8814 131.126 71.6007 132.144 71.0083C133.155 70.4499 133.953 69.5743 134.417 68.5169C134.854 67.4747 134.884 66.3065 134.501 65.2431C134.107 64.2171 133.463 63.3058 132.628 62.5921C131.817 61.8916 130.882 61.3491 129.872 60.9926C127.902 60.3713 125.793 60.335 123.803 60.888C121.94 61.3927 120.229 62.3456 118.82 63.6635C117.536 64.8935 116.558 66.4072 115.965 68.0833C114.927 70.9916 114.974 74.1769 116.099 77.0527C116.976 79.1996 118.388 81.0864 120.2 82.5339C121.342 83.4494 122.613 84.19 123.972 84.7314C124.441 84.9058 124.804 85.0354 125.054 85.1051L125.422 85.2247C125.422 85.2247 125.293 85.1998 125.044 85.13C124.675 85.0315 124.313 84.9134 123.957 84.7762C122.58 84.2587 121.292 83.529 120.14 82.6136C118.298 81.1672 116.858 79.271 115.96 77.1075C114.815 74.2045 114.757 70.986 115.795 68.0435C116.39 66.342 117.378 64.8052 118.68 63.5588C120.11 62.2145 121.846 61.2395 123.738 60.7185C125.77 60.1515 127.924 60.1861 129.937 60.8182C130.977 61.1809 131.939 61.7372 132.772 62.4576C133.641 63.1946 134.309 64.139 134.715 65.2032C135.125 66.3142 135.108 67.5378 134.666 68.6365C134.174 69.7356 133.34 70.6462 132.289 71.2326C131.233 71.8478 130.021 72.1422 128.801 72.0797C127.572 71.994 126.379 71.6293 125.313 71.0133C123.111 69.736 121.382 67.7797 120.385 65.4374C119.349 63.0419 118.994 60.4075 119.358 57.8234C119.548 56.5285 119.921 55.2669 120.464 54.0763C120.738 53.4895 121.051 52.9218 121.401 52.3771L121.979 51.6047C122.163 51.3406 122.403 51.1064 122.612 50.8772C123.485 49.9502 124.493 49.1606 125.602 48.5352C126.702 47.9328 127.874 47.4708 129.09 47.1599C131.461 46.5656 133.947 46.6017 136.3 47.2646C138.572 47.9422 140.7 49.183 142.04 51.0666C142.714 51.994 143.08 53.1093 143.087 54.2556C143.111 55.3838 142.686 56.4753 141.906 57.2903C141.109 58.0386 140.059 58.4602 138.966 58.4712C137.92 58.495 136.887 58.235 135.976 57.7188C135.101 57.2362 134.311 56.6153 133.634 55.8801C132.967 55.1894 132.39 54.4177 131.915 53.583C130.173 50.5667 129.7 46.9821 130.6 43.617C130.998 42.2126 131.652 40.8934 132.528 39.7254C133.946 37.857 135.839 36.4029 138.009 35.5148C139.369 34.9521 140.819 34.6349 142.29 34.578C142.671 34.5528 143.054 34.5528 143.436 34.578L143.755 34.6178Z" fill="#263238"/>
<path d="M160.392 84.4775H90.5259V138.363H160.392V84.4775Z" fill="#CCBCE6"/>
<path d="M90.5259 84.4775L103.432 96.5164H172.112L160.392 84.4775H90.5259Z" fill="#CCBCE6"/>
<path d="M90.5259 84.4771L160.412 84.3525H160.467L160.506 84.3874L172.107 96.3017L172.226 96.4262L172.441 96.6455H172.132L103.452 96.5907H103.422L90.5259 84.4771L103.482 96.4362H103.427L172.107 96.3864L172.017 96.6056L171.893 96.481L160.297 84.5668L160.387 84.6067L90.5259 84.4771Z" fill="#263238"/>
<path d="M111.514 109.327C111.136 109.341 110.778 109.503 110.517 109.778C110.257 110.053 110.115 110.419 110.122 110.797C110.129 111.176 110.284 111.537 110.554 111.802C110.824 112.068 111.188 112.216 111.567 112.216C111.945 112.216 112.309 112.068 112.579 111.802C112.849 111.537 113.005 111.176 113.011 110.797C113.018 110.419 112.876 110.053 112.616 109.778C112.355 109.503 111.997 109.341 111.619 109.327" fill="#263238"/>
<path d="M128.023 109.327C127.646 109.342 127.29 109.503 127.031 109.777C126.772 110.052 126.631 110.416 126.638 110.794C126.645 111.171 126.8 111.53 127.069 111.794C127.339 112.058 127.701 112.206 128.078 112.206C128.455 112.206 128.817 112.058 129.087 111.794C129.356 111.53 129.511 111.171 129.518 110.794C129.525 110.416 129.384 110.052 129.125 109.777C128.866 109.503 128.51 109.342 128.133 109.327" fill="#263238"/>
<path d="M128.118 122.223C127.83 121.122 127.362 120.077 126.732 119.129C126.033 118.115 125.134 117.254 124.091 116.597C122.834 115.763 121.366 115.298 119.857 115.257C118.348 115.215 116.858 115.599 115.556 116.363C114.48 116.964 113.537 117.773 112.78 118.745C112.099 119.658 111.575 120.679 111.23 121.765C111.234 121.684 111.248 121.603 111.27 121.526C111.318 121.301 111.38 121.08 111.455 120.863C111.728 120.062 112.126 119.311 112.636 118.635C113.387 117.618 114.342 116.77 115.441 116.144C116.776 115.347 118.311 114.946 119.866 114.988C121.42 115.031 122.931 115.515 124.221 116.383C125.282 117.065 126.188 117.961 126.882 119.014C127.355 119.717 127.714 120.491 127.943 121.306C128.005 121.528 128.053 121.752 128.088 121.979C128.105 122.059 128.115 122.141 128.118 122.223Z" fill="#263238"/>
<path opacity="0.5" d="M90.6855 85.0703L103.043 100.737H160.392V96.5162H103.432L90.6855 85.0703Z" fill="black"/>
<path d="M146.614 138.244C146.545 138.244 146.485 128.871 146.485 117.315C146.485 105.76 146.545 96.3867 146.614 96.3867C146.684 96.3867 146.749 105.755 146.749 117.315C146.749 128.876 146.689 138.244 146.614 138.244Z" fill="#263238"/>
<path d="M157.587 126.025H151.428V132.987H157.587V126.025Z" fill="#F5F5F5"/>
<path d="M90.5262 84.4775L76.1853 96.5164H90.5262V84.4775Z" fill="#CCBCE6"/>
<g opacity="0.4">
<path d="M90.5262 84.4775L76.1853 96.5164H90.5262V84.4775Z" fill="black"/>
</g>
<path d="M162.455 138.363H82.125V200.321H162.455V138.363Z" fill="#CCBCE6"/>
<path opacity="0.3" d="M162.455 138.363H82.125V200.321H162.455V138.363Z" fill="black"/>
<path d="M142.329 199.883C142.26 199.883 142.2 186.075 142.2 169.043C142.2 152.011 142.26 138.199 142.329 138.199C142.399 138.199 142.459 152.006 142.459 169.043C142.459 186.08 142.399 199.883 142.329 199.883Z" fill="#263238"/>
<path d="M155.644 186.219H149.485V193.18H155.644V186.219Z" fill="#F5F5F5"/>
<path d="M115.755 138.527H106.631V151.747H115.755V138.527Z" fill="#263238"/>
<path d="M115.755 186.917H106.631V200.137H115.755V186.917Z" fill="#263238"/>
<path d="M161.758 138.363H161.548H160.945L158.628 138.388L150.092 138.428L121.944 138.492L93.7851 138.458L85.2543 138.418L82.9372 138.393L85.2543 138.368L93.7851 138.328L121.944 138.288L150.092 138.328L158.628 138.368L160.945 138.393H161.548L161.758 138.363Z" fill="#263238"/>
<path d="M79.7672 42.0826L80.2107 49.4075C80.2284 49.6964 80.3511 49.9689 80.5558 50.1736C80.7605 50.3782 81.033 50.501 81.3219 50.5187C81.6259 50.5359 81.9249 50.436 82.1575 50.2395C82.3902 50.043 82.5387 49.7649 82.5726 49.4623L83.3848 42.1224C83.399 41.9911 83.385 41.8583 83.3439 41.7328C83.3028 41.6072 83.2355 41.4919 83.1465 41.3943C83.0574 41.2968 82.9487 41.2193 82.8274 41.167C82.7061 41.1147 82.5751 41.0888 82.443 41.0909H80.6641C80.5393 41.0947 80.4165 41.1236 80.3031 41.1759C80.1898 41.2283 80.0881 41.303 80.0044 41.3956C79.9206 41.4882 79.8564 41.5968 79.8156 41.7149C79.7749 41.8329 79.7584 41.958 79.7672 42.0826Z" fill="#CCBCE6"/>
<path d="M83.2554 54.6096C83.1438 54.9442 82.9357 55.2382 82.6571 55.4546C82.3785 55.6709 82.0421 55.7998 81.6903 55.825C81.3385 55.8501 80.9871 55.7705 80.6806 55.596C80.374 55.4215 80.1261 55.1601 79.9681 54.8448C79.8101 54.5295 79.7491 54.1744 79.7928 53.8244C79.8366 53.4744 79.9831 53.1453 80.2138 52.8785C80.4445 52.6118 80.7492 52.4194 81.0892 52.3258C81.4293 52.2321 81.7894 52.2413 82.1242 52.3523C82.3468 52.4261 82.5527 52.543 82.73 52.6965C82.9074 52.8499 83.0528 53.0368 83.1578 53.2464C83.2629 53.4561 83.3256 53.6844 83.3423 53.9183C83.359 54.1522 83.3295 54.3871 83.2554 54.6096Z" fill="#CCBCE6"/>
</svg>
