<svg width="201" height="175" viewBox="0 0 201 175" fill="none" xmlns="http://www.w3.org/2000/svg">
<path d="M172.194 53.5576C170.311 46.4047 166.301 39.5072 160.013 33.3898C152.601 26.1798 141.054 18.8129 125.951 20.9888C98.0689 25.0058 97.5611 44.2764 78.8134 40.4288C57.5777 36.0705 32.6681 38.9933 25.7412 58.5497C12.5844 95.6943 89.5673 140.597 131.869 127.985C158.204 120.134 182.192 91.5377 172.194 53.5576Z" fill="#847E79"/>
<path d="M184.237 169.966C184.237 171.326 146.69 172.428 100.374 172.428C54.0581 172.428 16.5115 171.326 16.5115 169.966C16.5115 168.606 54.0581 167.504 100.374 167.504C146.69 167.504 184.237 168.606 184.237 169.966Z" fill="#F5F5F5"/>
<path d="M136.089 64.7668L104.626 64.7621L104.626 64.8047L73.1644 64.7668C73.1644 64.7668 61.0436 129.874 63.1414 138.826C65.2393 147.778 74.796 161.41 81.7888 166.09H127.464C134.457 161.41 144.014 147.778 146.112 138.826C148.209 129.874 136.089 64.7668 136.089 64.7668Z" fill="#847E79"/>
<path opacity="0.8" d="M136.089 64.7668L104.626 64.7621L104.626 64.8047L73.1644 64.7668C73.1644 64.7668 61.0436 129.874 63.1414 138.826C65.2393 147.778 74.796 161.41 81.7888 166.09H127.464C134.457 161.41 144.014 147.778 146.112 138.826C148.209 129.874 136.089 64.7668 136.089 64.7668Z" fill="white"/>
<path opacity="0.4" d="M138.048 99.0649C136.035 86.4134 133.569 70.3539 132.555 64.7727H78.051C77.0368 70.3559 73.2173 86.4167 71.2049 99.0649C66.1819 130.636 66.6615 136.801 66.9281 137.939C68.6699 145.372 76.705 157.361 83.0365 162.201C98.0137 164.489 112.472 164.746 126.216 162.201C132.548 157.361 140.583 145.372 142.325 137.939C142.591 136.801 143.071 130.635 138.048 99.0649Z" fill="#847E79"/>
<path d="M136.088 64.7621C136.088 66.0553 122.002 67.1037 104.626 67.1037C87.2504 67.1037 73.1643 66.0553 73.1643 64.7621C73.1643 63.4688 87.2504 62.4205 104.626 62.4205C122.002 62.4205 136.088 63.4688 136.088 64.7621Z" fill="#847E79"/>
<path opacity="0.8" d="M136.088 64.7621C136.088 66.0553 122.002 67.1037 104.626 67.1037C87.2504 67.1037 73.1643 66.0553 73.1643 64.7621C73.1643 63.4688 87.2504 62.4205 104.626 62.4205C122.002 62.4205 136.088 63.4688 136.088 64.7621Z" fill="white"/>
<path d="M104.537 167.646C117.298 167.646 127.643 166.833 127.643 165.83C127.643 164.827 117.298 164.013 104.537 164.013C91.7758 164.013 81.4309 164.827 81.4309 165.83C81.4309 166.833 91.7758 167.646 104.537 167.646Z" fill="#847E79"/>
<path opacity="0.8" d="M104.537 167.646C117.298 167.646 127.643 166.833 127.643 165.83C127.643 164.827 117.298 164.013 104.537 164.013C91.7758 164.013 81.4309 164.827 81.4309 165.83C81.4309 166.833 91.7758 167.646 104.537 167.646Z" fill="white"/>
<path opacity="0.8" d="M136.088 64.7621C136.073 64.9379 135.895 65.0286 135.76 65.1076C134.7 65.5846 133.521 65.7177 132.385 65.9143C128.452 66.4928 124.478 66.7243 120.512 66.9374C105.978 67.4769 91.3284 67.6654 76.8673 65.9148C75.7311 65.718 74.5531 65.5847 73.493 65.1077C73.3577 65.0286 73.1799 64.9379 73.1643 64.7621C73.1842 64.9366 73.3622 65.0213 73.4987 65.0967C74.5661 65.5457 75.7442 65.6493 76.8809 65.8173C91.3624 67.2201 105.97 67.036 120.499 66.6305C124.463 66.4726 128.431 66.2827 132.372 65.8176C133.509 65.6495 134.686 65.5458 135.754 65.0968C135.891 65.0214 136.069 64.9366 136.088 64.7621Z" fill="white"/>
<path d="M71.2049 99.0649C66.1819 130.636 66.6615 136.801 66.9281 137.939C68.6699 145.372 76.705 157.361 83.0365 162.201C98.0137 164.489 112.472 164.746 126.216 162.201C132.548 157.361 140.583 145.372 142.325 137.939C142.591 136.801 143.071 130.635 138.048 99.0649" fill="#847E79"/>
<path opacity="0.2" d="M105.236 156.853C101.949 157.635 98.7678 158.349 95.7402 158.963C95.2163 159.07 94.6969 159.173 94.1824 159.274C91.3465 159.827 88.6573 160.285 86.1554 160.623C84.737 160.903 83.36 159.98 83.0798 158.562C82.6366 154.542 81.6217 148.765 79.6703 141.305C79.39 139.886 80.3127 138.509 81.7311 138.229C85.4851 136.429 93.0264 135.419 100.812 134.459C102.23 134.179 103.607 135.102 103.887 136.52C105.338 144.756 106.41 149.995 107.297 153.777C107.577 155.196 106.654 156.573 105.236 156.853Z" fill="white"/>
<g opacity="0.1">
<path d="M101.59 153.925C101.167 153.807 100.718 153.921 100.296 154.04C97.3855 154.858 94.2464 155.934 91.4372 154.816C90.1003 154.284 87.9006 155.199 86.9613 154.109C84.5933 151.361 84.234 145.932 83.9827 142.313C83.9525 141.878 83.9357 141.427 83.7476 141.034C83.5595 140.64 83.1452 140.315 82.7142 140.384C82.2833 140.453 81.4108 141.424 81.7172 141.735C82.4123 146.233 83.4366 150.68 84.7793 155.028C85.1759 156.313 85.709 157.719 86.9173 158.308C87.8543 158.765 88.9622 158.606 89.9878 158.419C93.8182 157.719 97.604 156.776 101.314 155.595C101.703 155.471 102.144 155.292 102.257 154.9C102.379 154.479 102.012 154.042 101.59 153.925Z" fill="white"/>
</g>
<g opacity="0.1">
<path d="M95.1343 138.895C95.9888 138.883 96.7983 138.532 97.6369 138.367C98.4754 138.203 99.4626 138.277 100.012 138.931C100.476 139.483 100.489 140.269 100.546 140.987C100.639 142.173 100.915 143.343 101.357 144.446C101.605 145.063 102.526 144.946 102.621 144.288C102.791 143.11 102.657 141.858 102.514 140.661C102.422 139.894 102.327 139.114 102.018 138.406C101.709 137.697 101.149 137.059 100.406 136.845C99.6902 136.638 98.9278 136.847 98.2124 137.056C97.2137 137.347 96.215 137.638 95.2163 137.93C94.9885 137.996 94.7335 138.085 94.638 138.303C94.5425 138.52 94.7964 138.834 94.9877 138.694" fill="white"/>
</g>
<path d="M92.2373 112.813C92.0223 112.938 92.2633 109.892 87.9454 107.574C83.6275 105.257 77.7352 107.329 74.7462 113.739C71.4939 120.714 73.0265 127.16 80.2539 131.995C87.4813 136.83 92.9164 133.178 94.2921 132.397C97.9485 130.319 103.474 123.599 101.167 118.234C98.6296 112.331 93.8778 111.86 92.2373 112.813Z" fill="#847E79"/>
<path opacity="0.2" d="M92.2373 112.813C92.0223 112.938 92.2633 109.892 87.9454 107.574C83.6275 105.257 77.7352 107.329 74.7462 113.739C71.4939 120.714 73.0265 127.16 80.2539 131.995C87.4813 136.83 92.9164 133.178 94.2921 132.397C97.9485 130.319 103.474 123.599 101.167 118.234C98.6296 112.331 93.8778 111.86 92.2373 112.813Z" fill="white"/>
<g opacity="0.2">
<path d="M95.0737 114.801C93.8666 115.138 92.5209 115.111 91.4774 114.416C90.7745 113.949 90.2429 113.268 89.7593 112.576C89.2978 111.915 88.8679 111.233 88.4714 110.532C88.4714 110.532 90.9029 112.256 91.6557 113.045C92.4085 113.834 93.911 113.356 94.6477 113.749C95.3844 114.142 95.8069 114.596 95.0737 114.801Z" fill="black"/>
</g>
<g opacity="0.2">
<path d="M85.2223 108.793C83.1442 107.97 81.2937 108.315 79.4837 109.627C77.6736 110.938 75.8372 113.641 75.5615 116.967C76.8466 115.061 80.0802 112.507 82.3563 112.184C84.6324 111.861 87.033 112.544 88.7979 114.017C86.5344 111.131 86.3946 110.205 85.2223 108.793Z" fill="white"/>
</g>
<g opacity="0.2">
<path d="M101.167 118.234C100.777 117.327 100.335 116.548 99.8592 115.883C99.9114 116.025 99.9718 116.163 100.03 116.293C101.424 119.384 100.999 123.153 99.19 126.02C97.3807 128.887 94.3002 130.851 90.9889 131.578C85.8128 132.715 79.8621 131.816 75.1698 126.284C73.1897 123.949 73.1721 119.323 73.2896 118.358C72.4753 123.535 74.654 128.249 80.2538 131.995C87.4812 136.83 92.9164 133.178 94.292 132.397C97.9484 130.319 103.474 123.599 101.167 118.234Z" fill="black"/>
</g>
<g opacity="0.2">
<path d="M99.3709 118.783C99.4926 117.275 98.4201 115.758 96.9584 115.369L96.7109 115.527C96.009 115.875 95.3072 116.223 94.6054 116.571C94.4439 116.651 94.2721 116.74 94.1885 116.9C94.0365 117.191 94.2499 117.534 94.4665 117.781C95.2608 118.686 96.2451 119.422 97.3368 119.93C97.7152 120.105 98.1462 120.256 98.5423 120.124C99.0713 119.949 99.3261 119.338 99.3709 118.783Z" fill="white"/>
</g>
<path opacity="0.1" d="M103.247 109.44C103.247 110.043 102.759 110.532 102.156 110.532C101.553 110.532 101.065 110.043 101.065 109.44C101.065 108.838 101.553 108.349 102.156 108.349C102.759 108.349 103.247 108.838 103.247 109.44Z" fill="black"/>
<path opacity="0.1" d="M104.608 111.497C104.608 111.851 104.322 112.137 103.968 112.137C103.615 112.137 103.328 111.851 103.328 111.497C103.328 111.144 103.615 110.857 103.968 110.857C104.322 110.857 104.608 111.144 104.608 111.497Z" fill="black"/>
<path opacity="0.1" d="M113.089 158.926C112.754 158.262 113.02 157.451 113.684 157.116C114.348 156.78 115.159 157.046 115.494 157.71C115.83 158.375 115.564 159.185 114.9 159.521C114.235 159.856 113.425 159.59 113.089 158.926Z" fill="black"/>
<path opacity="0.1" d="M110.444 157.417C110.247 157.028 110.403 156.552 110.792 156.356C111.182 156.159 111.657 156.315 111.854 156.704C112.051 157.094 111.895 157.569 111.505 157.766C111.116 157.963 110.641 157.807 110.444 157.417Z" fill="black"/>
<path opacity="0.1" d="M110.987 160.018C110.858 159.763 110.96 159.452 111.215 159.323C111.47 159.194 111.782 159.296 111.911 159.551C112.04 159.807 111.938 160.118 111.682 160.247C111.427 160.376 111.116 160.274 110.987 160.018Z" fill="black"/>
<path opacity="0.1" d="M136.855 133.951C136.519 133.286 136.785 132.476 137.449 132.14C138.114 131.805 138.924 132.071 139.26 132.735C139.595 133.399 139.329 134.21 138.665 134.545C138.001 134.881 137.19 134.615 136.855 133.951Z" fill="black"/>
<path opacity="0.1" d="M134.209 132.442C134.012 132.052 134.168 131.577 134.558 131.38C134.947 131.183 135.423 131.339 135.619 131.729C135.816 132.118 135.66 132.594 135.271 132.79C134.881 132.987 134.406 132.831 134.209 132.442Z" fill="black"/>
<path opacity="0.1" d="M138.113 128.404C137.984 128.149 138.086 127.838 138.342 127.709C138.597 127.58 138.908 127.682 139.037 127.937C139.166 128.192 139.064 128.504 138.809 128.633C138.553 128.762 138.242 128.66 138.113 128.404Z" fill="black"/>
<path opacity="0.1" d="M131.54 109.908C131.204 109.244 131.471 108.434 132.135 108.098C132.799 107.762 133.609 108.028 133.945 108.693C134.281 109.357 134.015 110.167 133.35 110.503C132.686 110.839 131.876 110.572 131.54 109.908Z" fill="black"/>
<path opacity="0.1" d="M128.894 108.399C128.698 108.01 128.854 107.535 129.243 107.338C129.633 107.141 130.108 107.297 130.305 107.686C130.502 108.076 130.345 108.551 129.956 108.748C129.567 108.945 129.091 108.789 128.894 108.399Z" fill="black"/>
<path d="M116.597 134.354C116.64 134.599 113.862 133.326 110.202 136.585C106.543 139.844 106.465 146.09 111.458 151.099C116.891 156.549 123.472 157.324 130.496 152.197C137.519 147.07 135.956 140.711 135.694 139.151C134.999 135.003 130.586 127.506 124.755 127.829C118.34 128.185 116.265 132.486 116.597 134.354Z" fill="#847E79"/>
<path opacity="0.1" d="M116.597 134.354C116.64 134.599 113.862 133.326 110.202 136.585C106.543 139.844 106.465 146.09 111.458 151.099C116.891 156.549 123.472 157.324 130.496 152.197C137.519 147.07 135.956 140.711 135.694 139.151C134.999 135.003 130.586 127.506 124.755 127.829C118.34 128.185 116.265 132.486 116.597 134.354Z" fill="black"/>
<g opacity="0.2">
<path d="M119.437 132.373C119.339 133.622 118.852 134.877 117.841 135.618C117.16 136.118 116.339 136.383 115.523 136.6C114.744 136.806 113.955 136.975 113.16 137.107C113.16 137.107 115.615 135.415 116.614 134.98C117.614 134.544 117.681 132.968 118.303 132.411C118.925 131.854 119.497 131.614 119.437 132.373Z" fill="black"/>
</g>
<g opacity="0.2">
<path d="M110.412 139.561C108.925 141.23 108.613 143.087 109.223 145.237C109.833 147.387 111.74 150.04 114.77 151.442C113.421 149.58 112.133 145.666 112.611 143.417C113.09 141.169 114.556 139.149 116.546 137.997C113.058 139.132 112.14 138.945 110.412 139.561Z" fill="white"/>
</g>
<g opacity="0.2">
<path d="M124.755 127.829C123.769 127.884 122.886 128.032 122.098 128.25C122.249 128.25 122.4 128.24 122.542 128.23C125.923 127.983 129.317 129.676 131.388 132.36C133.459 135.044 134.246 138.612 133.791 141.972C133.081 147.223 130.192 152.503 123.385 155.01C120.513 156.067 116.162 154.495 115.296 154.053C119.878 156.596 125.054 156.169 130.496 152.197C137.519 147.07 135.956 140.711 135.694 139.151C134.999 135.003 130.586 127.506 124.755 127.829Z" fill="black"/>
</g>
<g opacity="0.2">
<path d="M124.653 129.704C123.279 129.072 121.486 129.558 120.619 130.798L120.682 131.085C120.768 131.863 120.853 132.642 120.939 133.42C120.959 133.599 120.984 133.792 121.105 133.925C121.326 134.168 121.722 134.085 122.028 133.966C123.15 133.531 124.18 132.86 125.032 132.009C125.327 131.714 125.616 131.361 125.629 130.943C125.645 130.386 125.16 129.937 124.653 129.704Z" fill="white"/>
</g>
<path opacity="0.2" d="M121.411 139.428C118.134 137.262 115.001 135.131 112.072 133.051C111.566 132.691 111.065 132.333 110.571 131.976C107.848 130.01 105.321 128.093 103.046 126.24C101.681 125.259 101.369 123.358 102.35 121.993C105.408 118.421 109.501 112.968 114.278 105.383C115.259 104.018 117.16 103.706 118.525 104.687C123.036 106.44 129.887 112.034 136.889 117.876C138.255 118.856 138.566 120.757 137.586 122.122C131.754 129.899 128.161 134.973 125.658 138.732C124.677 140.097 122.776 140.409 121.411 139.428Z" fill="white"/>
<g opacity="0.1">
<path d="M120.996 134.008C120.76 133.556 120.307 133.266 119.871 133.002C116.863 131.183 113.455 129.376 112.17 126.105C111.559 124.548 109.034 123.409 109.212 121.746C109.661 117.553 113.981 112.933 116.851 109.843C117.196 109.471 117.565 109.099 117.749 108.626C117.934 108.154 117.88 107.544 117.479 107.234C117.078 106.923 115.561 106.955 115.541 107.462C112.278 111.626 109.32 116.03 106.698 120.626C105.924 121.983 105.155 123.553 105.615 125.046C105.972 126.204 106.988 127.017 107.962 127.738C111.6 130.432 115.41 132.893 119.361 135.102C119.774 135.333 120.277 135.565 120.699 135.35C121.153 135.118 121.233 134.46 120.996 134.008Z" fill="white"/>
</g>
<g opacity="0.1">
<path d="M128.614 116.585C129.303 117.301 130.245 117.709 131.051 118.289C131.857 118.869 132.579 119.766 132.461 120.752C132.362 121.584 131.705 122.22 131.141 122.839C130.209 123.86 129.436 125.024 128.852 126.277C128.525 126.977 129.357 127.665 129.99 127.223C131.125 126.431 132.08 125.322 132.982 124.249C133.56 123.561 134.146 122.861 134.501 122.036C134.856 121.21 134.952 120.227 134.544 119.427C134.15 118.656 133.367 118.176 132.621 117.735C131.58 117.119 130.539 116.503 129.498 115.888C129.261 115.747 128.982 115.602 128.722 115.693C128.462 115.785 128.397 116.25 128.669 116.301" fill="white"/>
</g>
<path d="M128.758 27.0191L123.898 25.9504L102.031 125.407L106.892 126.476L128.758 27.0191Z" fill="#847E79"/>
<path opacity="0.7" d="M118.426 50.7788L121.245 61.2144L119.889 67.3497L116.852 57.9469L118.426 50.7788Z" fill="white"/>
<path opacity="0.7" d="M114.062 70.5805L116.884 81.0282L115.528 87.1934L112.498 77.7486L114.062 70.5805Z" fill="white"/>
<path opacity="0.7" d="M109.458 91.483L112.281 101.931L110.925 108.096L107.895 98.6512L109.458 91.483Z" fill="white"/>
<path opacity="0.7" d="M104.713 113.234L107.535 123.682L106.892 126.476L104.961 126.051L103.149 120.403L104.713 113.234Z" fill="white"/>
<path opacity="0.7" d="M122.991 30.0724L125.792 40.508L124.444 46.6432L121.427 37.2405L122.991 30.0724Z" fill="white"/>
<g opacity="0.2">
<path d="M106.912 126.48L102.031 125.407L114.834 67.1734L119.968 66.9949L106.912 126.48Z" fill="black"/>
</g>
<path d="M104.582 100.366C123.02 100.366 137.967 99.741 137.967 98.9698C137.967 98.1986 123.02 97.5735 104.582 97.5735C86.1449 97.5735 71.1982 98.1986 71.1982 98.9698C71.1982 99.741 86.1449 100.366 104.582 100.366Z" fill="#847E79"/>
<path opacity="0.2" d="M104.582 100.366C123.02 100.366 137.967 99.741 137.967 98.9698C137.967 98.1986 123.02 97.5735 104.582 97.5735C86.1449 97.5735 71.1982 98.1986 71.1982 98.9698C71.1982 99.741 86.1449 100.366 104.582 100.366Z" fill="white"/>
<path opacity="0.3" d="M80.168 68.0542C79.8627 68.0123 79.5797 68.2183 79.5281 68.522C78.6696 73.5772 72.0876 112.443 71.0057 122.058C69.9165 131.737 74.9357 150.832 83.4691 158.48C83.9113 158.877 84.5901 158.409 84.382 157.853C82.1795 151.969 75.8926 134.036 76.8983 123.56C78.029 111.782 85.251 74.6345 86.2556 69.4963C86.3185 69.1744 86.0976 68.867 85.7726 68.8225L80.168 68.0542Z" fill="white"/>
<path d="M158.281 75.0086C158.47 75.1981 159.062 71.9625 164.195 70.7458C169.328 69.5291 174.884 73.3151 176.221 80.8102C177.675 88.9656 174.297 95.2483 165.441 98.2788C156.585 101.309 151.941 96.0067 150.726 94.8131C147.497 91.6407 143.608 83.1212 147.491 78.178C151.764 72.7391 156.838 73.5632 158.281 75.0086Z" fill="#847E79"/>
<path opacity="0.5" d="M158.281 75.0086C158.47 75.1981 159.062 71.9625 164.195 70.7458C169.328 69.5291 174.884 73.3151 176.221 80.8102C177.675 88.9656 174.297 95.2483 165.441 98.2788C156.585 101.309 151.941 96.0067 150.726 94.8131C147.497 91.6407 143.608 83.1212 147.491 78.178C151.764 72.7391 156.838 73.5632 158.281 75.0086Z" fill="white"/>
<g opacity="0.3">
<path d="M154.78 76.2915C155.943 76.9759 157.35 77.3202 158.628 76.8866C159.488 76.5945 160.23 76.0334 160.924 75.4472C161.587 74.8877 162.223 74.2966 162.829 73.6766C162.829 73.6766 159.823 74.7978 158.822 75.4103C157.82 76.0228 156.389 75.1099 155.514 75.315C154.639 75.5201 154.074 75.8758 154.78 76.2915Z" fill="black"/>
</g>
<g opacity="0.3">
<path d="M166.69 72.7671C169.08 72.4857 170.91 73.3564 172.43 75.2214C173.95 77.0865 175.113 80.406 174.48 83.9427C173.67 81.6041 171.013 78.0529 168.734 77.0871C166.456 76.1213 163.769 76.168 161.526 77.2124C164.679 74.8364 165.08 73.9115 166.69 72.7671Z" fill="white"/>
</g>
<g opacity="0.3">
<path d="M147.491 78.178C148.148 77.3419 148.824 76.6544 149.502 76.0939C149.409 76.2267 149.307 76.3541 149.211 76.473C146.906 79.3028 146.305 83.3413 147.394 86.8246C148.483 90.3078 151.145 93.2028 154.388 94.8753C159.459 97.4895 167.236 97.1082 171.914 93.8439C174.616 91.9584 176.133 88.5083 176.458 86.0182C175.873 91.6293 172.303 95.9308 165.441 98.2788C156.585 101.309 151.941 96.0067 150.726 94.8131C147.497 91.6407 143.608 83.1212 147.491 78.178Z" fill="black"/>
</g>
<g opacity="0.3">
<path d="M149.208 79.2454C149.498 77.6434 151.034 76.3614 152.662 76.3615L152.876 76.5946C153.51 77.1505 154.144 77.7065 154.778 78.2624C154.923 78.3904 155.077 78.5313 155.12 78.7206C155.198 79.0653 154.881 79.3633 154.587 79.56C153.511 80.2812 152.283 80.7754 151.007 81.0012C150.565 81.0794 150.075 81.1166 149.699 80.8702C149.197 80.5411 149.101 79.8359 149.208 79.2454Z" fill="white"/>
</g>
<path d="M137.75 47.1082C135.432 45.7436 133.161 44.7539 133.068 44.8304C132.975 44.9069 132.122 47.5321 132.359 47.441C132.596 47.3499 135.79 47.6309 138.431 49.198C141.073 50.765 146.255 54.6676 148.643 57.0567C150.83 59.2446 153.14 62.2198 155.924 68.1087C158.707 73.9975 157.646 77.0812 157.646 77.0812C157.646 77.0812 159.096 77.1827 159.877 76.2513C159.877 76.2513 159.674 73.232 158.378 70.1421C157.081 67.0522 154.065 61.5947 151.21 58.2175C148.516 55.0303 143.951 51.3574 142.033 49.9745C140.115 48.5915 137.75 47.1082 137.75 47.1082Z" fill="#263238"/>
<path d="M139.818 49.0265C139.818 49.0265 147.811 39.8687 156.638 42.4655C165.466 45.0624 172.637 50.4306 174.665 54.0178C174.665 54.0178 174.276 53.9526 172.369 53.6119C170.707 53.3152 157.995 54.5469 153.234 54.4109C148.104 54.2644 141.743 52.4434 139.818 49.0265Z" fill="#263238"/>
<path opacity="0.3" d="M141.328 48.5905C150.777 46.6031 164.862 47.0132 173.045 52.5654C173.615 53.0173 174.155 53.5034 174.665 54.0178C174.12 53.5407 173.558 53.0839 172.973 52.6612C164.475 47.4825 150.983 47.1141 141.328 48.5905Z" fill="white"/>
<path opacity="0.3" d="M154.642 47.7023C156.596 49.5727 159.348 52.1556 161.248 54.0326C158.711 52.3201 156.448 50.1763 154.642 47.7023Z" fill="white"/>
<path opacity="0.3" d="M161.282 48.3404C162.408 47.0896 164.15 46.5302 165.793 46.4528C164.25 47.0878 162.752 47.5376 161.282 48.3404Z" fill="white"/>
<path opacity="0.3" d="M146.332 47.9293C147.491 46.7747 148.69 45.6687 149.955 44.6314C151.243 43.6503 152.51 42.4883 154.096 42.0233C152.831 42.6367 151.336 44.0821 150.209 44.9419C148.943 45.964 147.694 47.0142 146.332 47.9293Z" fill="white"/>
</svg>
