<svg width="201" height="175" viewBox="0 0 201 175" fill="none" xmlns="http://www.w3.org/2000/svg">
<path d="M172.193 53.5578C170.31 46.4049 166.301 39.5074 160.013 33.39C152.601 26.18 141.054 18.8131 125.951 20.989C98.0687 25.006 97.5608 44.2766 78.8132 40.429C57.5775 36.0707 32.6679 38.9935 25.7409 58.5499C12.5841 95.6944 89.567 140.597 131.868 127.985C158.204 120.134 182.192 91.5379 172.193 53.5578Z" fill="#F0EBF6"/>
<path d="M184.237 169.966C184.237 171.326 146.69 172.428 100.374 172.428C54.0583 172.428 16.5117 171.326 16.5117 169.966C16.5117 168.606 54.0583 167.504 100.374 167.504C146.69 167.504 184.237 168.606 184.237 169.966Z" fill="#F5F5F5"/>
<path d="M136.089 64.767L104.626 64.7622L104.626 64.8048L73.1644 64.767C73.1644 64.767 61.0436 129.874 63.1414 138.826C65.2393 147.779 74.796 161.41 81.7888 166.09H127.464C134.457 161.41 144.014 147.779 146.112 138.826C148.209 129.874 136.089 64.767 136.089 64.767Z" fill="white"/>
<path opacity="0.8" d="M136.089 64.767L104.626 64.7622L104.626 64.8048L73.1644 64.767C73.1644 64.767 61.0436 129.874 63.1414 138.826C65.2393 147.779 74.796 161.41 81.7888 166.09H127.464C134.457 161.41 144.014 147.779 146.112 138.826C148.209 129.874 136.089 64.767 136.089 64.767Z" fill="white"/>
<path opacity="0.4" d="M138.048 99.0646C136.035 86.4132 133.569 70.3536 132.555 64.7725H78.051C77.0368 70.3557 73.2173 86.4164 71.2049 99.0646C66.1819 130.635 66.6615 136.801 66.9281 137.939C68.6699 145.372 76.705 157.361 83.0365 162.2C98.0137 164.489 112.472 164.746 126.216 162.2C132.548 157.361 140.583 145.372 142.325 137.939C142.591 136.801 143.071 130.635 138.048 99.0646Z" fill="white"/>
<path d="M136.089 64.762C136.089 66.0552 122.003 67.1036 104.627 67.1036C87.2506 67.1036 73.1646 66.0552 73.1646 64.762C73.1646 63.4688 87.2506 62.4204 104.627 62.4204C122.003 62.4204 136.089 63.4688 136.089 64.762Z" fill="white"/>
<path opacity="0.8" d="M136.089 64.762C136.089 66.0552 122.003 67.1036 104.627 67.1036C87.2506 67.1036 73.1646 66.0552 73.1646 64.762C73.1646 63.4688 87.2506 62.4204 104.627 62.4204C122.003 62.4204 136.089 63.4688 136.089 64.762Z" fill="white"/>
<path d="M104.537 167.646C117.298 167.646 127.643 166.833 127.643 165.83C127.643 164.826 117.298 164.013 104.537 164.013C91.776 164.013 81.4312 164.826 81.4312 165.83C81.4312 166.833 91.776 167.646 104.537 167.646Z" fill="white"/>
<path opacity="0.8" d="M104.537 167.646C117.298 167.646 127.643 166.833 127.643 165.83C127.643 164.826 117.298 164.013 104.537 164.013C91.776 164.013 81.4312 164.826 81.4312 165.83C81.4312 166.833 91.776 167.646 104.537 167.646Z" fill="white"/>
<path opacity="0.8" d="M136.089 64.7622C136.073 64.938 135.895 65.0287 135.76 65.1078C134.7 65.5848 133.521 65.7179 132.386 65.9144C128.453 66.493 124.478 66.7245 120.512 66.9376C105.978 67.477 91.3286 67.6656 76.8676 65.9149C75.7313 65.7181 74.5534 65.5849 73.4933 65.1078C73.3579 65.0287 73.1801 64.938 73.1646 64.7622C73.1845 64.9367 73.3625 65.0215 73.4989 65.0969C74.5664 65.5458 75.7444 65.6494 76.8811 65.8174C91.3627 67.2202 105.97 67.0361 120.499 66.6306C124.463 66.4727 128.431 66.2829 132.372 65.8177C133.51 65.6497 134.686 65.546 135.754 65.097C135.891 65.0215 136.069 64.9367 136.089 64.7622Z" fill="white"/>
<path d="M71.2049 99.0645C66.1819 130.635 66.6615 136.801 66.9281 137.939C68.6699 145.372 76.705 157.361 83.0365 162.2C98.0137 164.489 112.472 164.745 126.216 162.2C132.548 157.361 140.583 145.371 142.325 137.939C142.591 136.801 143.071 130.635 138.048 99.0645" fill="#A086CC"/>
<path opacity="0.2" d="M105.236 156.852C101.949 157.635 98.7678 158.348 95.7402 158.963C95.2163 159.069 94.6969 159.173 94.1824 159.273C91.3465 159.826 88.6573 160.284 86.1554 160.622C84.737 160.902 83.36 159.98 83.0798 158.561C82.6366 154.541 81.6217 148.764 79.6703 141.304C79.39 139.886 80.3127 138.509 81.7311 138.229C85.4851 136.428 93.0264 135.418 100.812 134.459C102.23 134.179 103.607 135.101 103.887 136.52C105.338 144.755 106.41 149.994 107.297 153.777C107.577 155.195 106.654 156.572 105.236 156.852Z" fill="white"/>
<g opacity="0.1">
<path d="M101.59 153.924C101.167 153.807 100.718 153.921 100.296 154.039C97.3855 154.857 94.2464 155.934 91.4372 154.816C90.1003 154.284 87.9006 155.199 86.9613 154.109C84.5933 151.36 84.234 145.932 83.9827 142.313C83.9525 141.877 83.9357 141.427 83.7476 141.033C83.5595 140.639 83.1452 140.315 82.7142 140.384C82.2833 140.453 81.4108 141.424 81.7172 141.734C82.4123 146.232 83.4366 150.679 84.7793 155.028C85.1759 156.312 85.709 157.718 86.9173 158.308C87.8543 158.765 88.9622 158.605 89.9878 158.418C93.8182 157.719 97.604 156.775 101.314 155.594C101.703 155.471 102.144 155.291 102.257 154.9C102.379 154.479 102.012 154.042 101.59 153.924Z" fill="white"/>
</g>
<g opacity="0.1">
<path d="M95.1343 138.894C95.9888 138.883 96.7983 138.532 97.6369 138.367C98.4754 138.202 99.4626 138.276 100.012 138.93C100.476 139.482 100.489 140.268 100.546 140.987C100.639 142.172 100.915 143.342 101.357 144.445C101.605 145.063 102.526 144.945 102.621 144.287C102.791 143.109 102.657 141.857 102.514 140.66C102.422 139.893 102.327 139.113 102.018 138.405C101.709 137.697 101.149 137.058 100.406 136.844C99.6902 136.637 98.9278 136.847 98.2124 137.055C97.2137 137.346 96.215 137.638 95.2163 137.929C94.9885 137.995 94.7335 138.085 94.638 138.302C94.5425 138.519 94.7964 138.833 94.9877 138.693" fill="white"/>
</g>
<path d="M92.2371 112.813C92.0221 112.938 92.2631 109.892 87.9452 107.574C83.6273 105.256 77.735 107.329 74.7459 113.739C71.4936 120.713 73.0262 127.16 80.2536 131.995C87.4811 136.83 92.9162 133.178 94.2919 132.396C97.9483 130.319 103.473 123.599 101.167 118.234C98.6293 112.331 93.8776 111.86 92.2371 112.813Z" fill="#A086CC"/>
<path opacity="0.2" d="M92.2371 112.813C92.0221 112.938 92.2631 109.892 87.9452 107.574C83.6273 105.256 77.735 107.329 74.7459 113.739C71.4936 120.713 73.0262 127.16 80.2536 131.995C87.4811 136.83 92.9162 133.178 94.2919 132.396C97.9483 130.319 103.473 123.599 101.167 118.234C98.6293 112.331 93.8776 111.86 92.2371 112.813Z" fill="white"/>
<g opacity="0.2">
<path d="M95.0735 114.8C93.8663 115.137 92.5206 115.11 91.4772 114.416C90.7742 113.948 90.2427 113.267 89.7591 112.575C89.2976 111.915 88.8677 111.232 88.4712 110.531C88.4712 110.531 90.9027 112.255 91.6555 113.044C92.4082 113.833 93.9107 113.355 94.6475 113.748C95.3842 114.141 95.8067 114.595 95.0735 114.8Z" fill="#C0B2D6"/>
</g>
<g opacity="0.2">
<path d="M85.2218 108.793C83.1437 107.97 81.2932 108.315 79.4832 109.626C77.6731 110.938 75.8367 113.64 75.561 116.967C76.8461 115.06 80.0797 112.507 82.3558 112.183C84.6319 111.86 87.0325 112.544 88.7974 114.017C86.5339 111.131 86.3941 110.205 85.2218 108.793Z" fill="white"/>
</g>
<g opacity="0.2">
<path d="M101.167 118.234C100.777 117.327 100.335 116.548 99.8592 115.883C99.9114 116.024 99.9718 116.163 100.03 116.293C101.424 119.383 100.999 123.153 99.19 126.02C97.3807 128.887 94.3002 130.851 90.9889 131.578C85.8128 132.714 79.8621 131.815 75.1698 126.283C73.1897 123.949 73.1721 119.323 73.2896 118.358C72.4753 123.535 74.654 128.249 80.2538 131.995C87.4812 136.83 92.9164 133.178 94.292 132.396C97.9484 130.319 103.474 123.599 101.167 118.234Z" fill="#C0B2D6"/>
</g>
<g opacity="0.2">
<path d="M99.3709 118.782C99.4926 117.275 98.4201 115.757 96.9584 115.369L96.7109 115.527C96.009 115.875 95.3072 116.222 94.6054 116.57C94.4439 116.65 94.2721 116.74 94.1885 116.9C94.0365 117.191 94.2499 117.534 94.4665 117.781C95.2608 118.685 96.2451 119.422 97.3368 119.929C97.7152 120.105 98.1462 120.255 98.5423 120.124C99.0713 119.948 99.3261 119.338 99.3709 118.782Z" fill="white"/>
</g>
<path opacity="0.1" d="M103.247 109.44C103.247 110.043 102.758 110.531 102.156 110.531C101.553 110.531 101.064 110.043 101.064 109.44C101.064 108.837 101.553 108.349 102.156 108.349C102.758 108.349 103.247 108.837 103.247 109.44Z" fill="#C0B2D6"/>
<path opacity="0.1" d="M104.608 111.497C104.608 111.85 104.321 112.137 103.968 112.137C103.615 112.137 103.328 111.85 103.328 111.497C103.328 111.143 103.615 110.857 103.968 110.857C104.321 110.857 104.608 111.143 104.608 111.497Z" fill="#C0B2D6"/>
<path opacity="0.1" d="M113.09 158.926C112.754 158.262 113.02 157.451 113.684 157.115C114.348 156.78 115.159 157.046 115.495 157.71C115.83 158.374 115.564 159.185 114.9 159.52C114.236 159.856 113.425 159.59 113.09 158.926Z" fill="#C0B2D6"/>
<path opacity="0.1" d="M110.444 157.417C110.247 157.027 110.403 156.552 110.793 156.355C111.182 156.158 111.657 156.314 111.854 156.704C112.051 157.093 111.895 157.569 111.506 157.765C111.116 157.962 110.641 157.806 110.444 157.417Z" fill="#C0B2D6"/>
<path opacity="0.1" d="M110.987 160.018C110.858 159.763 110.96 159.451 111.215 159.322C111.471 159.193 111.782 159.296 111.911 159.551C112.04 159.806 111.938 160.118 111.683 160.247C111.427 160.376 111.116 160.273 110.987 160.018Z" fill="#C0B2D6"/>
<path opacity="0.1" d="M136.855 133.95C136.519 133.286 136.785 132.475 137.449 132.14C138.114 131.804 138.924 132.07 139.26 132.735C139.595 133.399 139.329 134.209 138.665 134.545C138.001 134.881 137.19 134.614 136.855 133.95Z" fill="#C0B2D6"/>
<path opacity="0.1" d="M134.209 132.441C134.012 132.052 134.168 131.576 134.558 131.38C134.947 131.183 135.423 131.339 135.619 131.728C135.816 132.118 135.66 132.593 135.271 132.79C134.881 132.987 134.406 132.831 134.209 132.441Z" fill="#C0B2D6"/>
<path opacity="0.1" d="M138.113 128.404C137.984 128.149 138.086 127.837 138.341 127.708C138.597 127.579 138.908 127.681 139.037 127.937C139.166 128.192 139.064 128.503 138.809 128.632C138.553 128.761 138.242 128.659 138.113 128.404Z" fill="#C0B2D6"/>
<path opacity="0.1" d="M131.54 109.908C131.204 109.244 131.471 108.433 132.135 108.097C132.799 107.762 133.61 108.028 133.945 108.692C134.281 109.356 134.015 110.167 133.351 110.502C132.686 110.838 131.876 110.572 131.54 109.908Z" fill="#C0B2D6"/>
<path opacity="0.1" d="M128.895 108.399C128.698 108.009 128.854 107.534 129.243 107.337C129.633 107.14 130.108 107.296 130.305 107.686C130.502 108.075 130.346 108.551 129.956 108.747C129.567 108.944 129.092 108.788 128.895 108.399Z" fill="#C0B2D6"/>
<path d="M116.597 134.353C116.64 134.598 113.862 133.325 110.202 136.584C106.543 139.844 106.465 146.089 111.458 151.098C116.891 156.548 123.472 157.323 130.496 152.196C137.519 147.069 135.956 140.71 135.694 139.15C134.999 135.002 130.586 127.505 124.755 127.828C118.34 128.184 116.265 132.485 116.597 134.353Z" fill="#A086CC"/>
<path opacity="0.1" d="M116.597 134.353C116.64 134.598 113.862 133.325 110.202 136.584C106.543 139.844 106.465 146.089 111.458 151.098C116.891 156.548 123.472 157.323 130.496 152.196C137.519 147.069 135.956 140.71 135.694 139.15C134.999 135.002 130.586 127.505 124.755 127.828C118.34 128.184 116.265 132.485 116.597 134.353Z" fill="#C0B2D6"/>
<g opacity="0.2">
<path d="M119.437 132.372C119.339 133.622 118.852 134.876 117.841 135.618C117.16 136.117 116.339 136.383 115.523 136.599C114.744 136.806 113.955 136.975 113.16 137.106C113.16 137.106 115.615 135.415 116.614 134.979C117.614 134.543 117.681 132.968 118.303 132.411C118.925 131.854 119.497 131.613 119.437 132.372Z" fill="#C0B2D6"/>
</g>
<g opacity="0.2">
<path d="M110.412 139.56C108.925 141.229 108.613 143.086 109.223 145.236C109.833 147.386 111.741 150.039 114.77 151.441C113.421 149.579 112.133 145.665 112.612 143.417C113.09 141.168 114.556 139.148 116.546 137.997C113.058 139.131 112.14 138.944 110.412 139.56Z" fill="white"/>
</g>
<g opacity="0.2">
<path d="M124.755 127.828C123.769 127.883 122.886 128.031 122.098 128.249C122.249 128.249 122.4 128.24 122.542 128.229C125.923 127.982 129.317 129.676 131.388 132.36C133.459 135.044 134.246 138.611 133.791 141.971C133.081 147.222 130.192 152.502 123.385 155.009C120.513 156.067 116.162 154.494 115.296 154.052C119.878 156.596 125.054 156.169 130.496 152.196C137.519 147.069 135.956 140.71 135.694 139.15C134.999 135.002 130.586 127.505 124.755 127.828Z" fill="#C0B2D6"/>
</g>
<g opacity="0.2">
<path d="M124.653 129.704C123.279 129.072 121.486 129.558 120.619 130.797L120.682 131.084C120.768 131.862 120.853 132.641 120.939 133.419C120.959 133.599 120.984 133.791 121.105 133.924C121.326 134.167 121.722 134.084 122.028 133.966C123.15 133.53 124.18 132.859 125.032 132.008C125.327 131.713 125.616 131.36 125.629 130.943C125.645 130.385 125.16 129.937 124.653 129.704Z" fill="white"/>
</g>
<path opacity="0.2" d="M121.41 139.428C118.134 137.261 115 135.13 112.072 133.051C111.566 132.691 111.065 132.333 110.571 131.976C107.848 130.01 105.321 128.093 103.046 126.239C101.681 125.259 101.369 123.357 102.349 121.992C105.407 118.421 109.501 112.968 114.278 105.383C115.258 104.018 117.16 103.706 118.525 104.686C123.036 106.44 129.887 112.034 136.889 117.875C138.254 118.856 138.566 120.757 137.586 122.122C131.753 129.899 128.161 134.972 125.657 138.732C124.677 140.097 122.775 140.409 121.41 139.428Z" fill="white"/>
<g opacity="0.1">
<path d="M120.996 134.007C120.759 133.556 120.306 133.265 119.87 133.001C116.863 131.183 113.454 129.376 112.17 126.104C111.558 124.547 109.034 123.409 109.212 121.745C109.661 117.552 113.98 112.932 116.85 109.842C117.196 109.471 117.564 109.099 117.749 108.626C117.933 108.153 117.879 107.544 117.478 107.233C117.077 106.922 115.56 106.954 115.54 107.461C112.277 111.626 109.319 116.03 106.698 120.625C105.923 121.983 105.154 123.552 105.615 125.046C105.972 126.204 106.988 127.017 107.962 127.738C111.6 130.432 115.41 132.893 119.36 135.101C119.774 135.333 120.277 135.564 120.699 135.349C121.153 135.117 121.232 134.459 120.996 134.007Z" fill="white"/>
</g>
<g opacity="0.1">
<path d="M128.614 116.585C129.303 117.301 130.244 117.708 131.05 118.289C131.857 118.869 132.579 119.765 132.461 120.752C132.361 121.584 131.705 122.219 131.14 122.838C130.209 123.86 129.435 125.024 128.851 126.276C128.524 126.977 129.356 127.665 129.99 127.223C131.125 126.43 132.08 125.322 132.982 124.249C133.559 123.561 134.146 122.861 134.5 122.035C134.855 121.21 134.952 120.227 134.543 119.427C134.15 118.656 133.366 118.175 132.62 117.734C131.58 117.119 130.539 116.503 129.498 115.887C129.26 115.747 128.982 115.602 128.722 115.693C128.462 115.785 128.397 116.25 128.668 116.301" fill="white"/>
</g>
<path d="M128.758 27.0189L123.897 25.9502L102.031 125.407L106.892 126.476L128.758 27.0189Z" fill="white"/>
<path opacity="0.7" d="M118.426 50.7788L121.245 61.2144L119.889 67.3496L116.852 57.9469L118.426 50.7788Z" fill="white"/>
<path opacity="0.7" d="M114.062 70.5801L116.884 81.0278L115.528 87.1929L112.498 77.7482L114.062 70.5801Z" fill="white"/>
<path opacity="0.7" d="M109.458 91.4829L112.281 101.931L110.925 108.096L107.895 98.651L109.458 91.4829Z" fill="white"/>
<path opacity="0.7" d="M104.712 113.234L107.535 123.682L106.892 126.476L104.961 126.051L103.148 120.402L104.712 113.234Z" fill="white"/>
<path opacity="0.7" d="M122.991 30.0723L125.792 40.5079L124.444 46.6431L121.427 37.2404L122.991 30.0723Z" fill="white"/>
<g opacity="0.2">
<path d="M106.911 126.48L102.031 125.407L114.834 67.1732L119.968 66.9946L106.911 126.48Z" fill="#C0B2D6"/>
</g>
<path d="M104.582 100.366C123.02 100.366 137.967 99.7408 137.967 98.9696C137.967 98.1984 123.02 97.5732 104.582 97.5732C86.1449 97.5732 71.1982 98.1984 71.1982 98.9696C71.1982 99.7408 86.1449 100.366 104.582 100.366Z" fill="white"/>
<path opacity="0.2" d="M104.582 100.366C123.02 100.366 137.967 99.7408 137.967 98.9696C137.967 98.1984 123.02 97.5732 104.582 97.5732C86.1449 97.5732 71.1982 98.1984 71.1982 98.9696C71.1982 99.7408 86.1449 100.366 104.582 100.366Z" fill="white"/>
<path opacity="0.3" d="M80.1677 68.0537C79.8624 68.0119 79.5794 68.2178 79.5278 68.5216C78.6694 73.5768 72.0874 112.443 71.0055 122.057C69.9163 131.736 74.9355 150.832 83.4688 158.48C83.911 158.876 84.5899 158.408 84.3817 157.852C82.1793 151.968 75.8924 134.036 76.8981 123.56C78.0288 111.782 85.2507 74.6341 86.2553 69.4959C86.3182 69.174 86.0974 68.8666 85.7724 68.822L80.1677 68.0537Z" fill="white"/>
<path d="M57.6108 110.219C57.5448 110.421 59.2097 116.496 60.964 118.966L61.5838 118.3C61.5838 118.3 60.0976 116.077 59.278 112.128C58.4583 108.178 58.8429 107.594 58.6263 107.722C58.4098 107.85 57.6108 110.219 57.6108 110.219Z" fill="#8C6BC2"/>
<path d="M61.1664 117.452C61.1664 117.452 57.6256 131.721 66.3168 138.673C75.0079 145.625 85.2989 149.015 90.2602 148.54C90.2602 148.54 89.9257 148.199 88.2664 146.545C86.8212 145.103 79.2342 131.648 75.8002 127.022C72.1004 122.038 65.8878 116.994 61.1664 117.452Z" fill="#8C6BC2"/>
<path opacity="0.3" d="M61.3438 118.336C64.4316 124.705 68.4129 130.653 73.1438 135.916C76.6689 139.89 80.6948 143.411 85.3406 146.017L89.8521 148.84L85.2359 146.192C74.7419 140.619 66.0506 129.101 61.3438 118.336Z" fill="white"/>
<path opacity="0.3" d="M59.0543 108.235C59.9908 106.107 61.1735 104.587 61.3613 104.492C61.6287 104.357 58.6539 103.025 58.5133 103.046C58.4128 103.061 57.2214 104.946 55.9907 106.734L59.0543 108.235Z" fill="#C0B2D6"/>
<path opacity="0.3" d="M58.7655 108.932C58.6707 109.04 58.0913 111.14 57.9839 111.764L58.2084 112.516L58.9689 110.476L58.7655 108.932Z" fill="#C0B2D6"/>
<path opacity="0.3" d="M65.6262 126.269C64.792 129.567 65.2501 133.035 65.4236 136.392C65.4446 136.879 65.4813 137.365 65.4918 137.854C65.3909 137.375 65.3153 136.894 65.228 136.414C64.7589 133.086 64.2878 129.454 65.6262 126.269Z" fill="white"/>
<path opacity="0.3" d="M69.689 132.15C73.3851 132.284 77.0706 133.044 80.5418 134.313C77.4679 133.683 72.7387 132.717 69.689 132.15Z" fill="white"/>
<path opacity="0.3" d="M74.922 138.291C75.1173 140.519 75.7482 142.571 76.2748 144.735C75.2297 142.793 74.5558 140.504 74.922 138.291Z" fill="white"/>
<path opacity="0.3" d="M63.4043 122.016C66.5329 121.814 69.6565 122.535 72.6481 123.391C69.5851 123.084 66.4611 122.36 63.4043 122.016Z" fill="white"/>
<path d="M158.281 75.0086C158.47 75.198 159.062 71.9625 164.195 70.7458C169.328 69.5291 174.884 73.315 176.221 80.8102C177.675 88.9655 174.297 95.2483 165.441 98.2788C156.585 101.309 151.941 96.0067 150.726 94.8131C147.497 91.6406 143.608 83.1211 147.491 78.178C151.764 72.7391 156.838 73.5632 158.281 75.0086Z" fill="#B69AE3"/>
<path opacity="0.5" d="M158.281 75.0086C158.47 75.198 159.062 71.9625 164.195 70.7458C169.328 69.5291 174.884 73.315 176.221 80.8102C177.675 88.9655 174.297 95.2483 165.441 98.2788C156.585 101.309 151.941 96.0067 150.726 94.8131C147.497 91.6406 143.608 83.1211 147.491 78.178C151.764 72.7391 156.838 73.5632 158.281 75.0086Z" fill="white"/>
<g opacity="0.3">
<path d="M154.78 76.2917C155.942 76.9761 157.35 77.3204 158.627 76.8868C159.488 76.5946 160.229 76.0336 160.924 75.4473C161.587 74.8879 162.223 74.2968 162.829 73.6768C162.829 73.6768 159.823 74.798 158.821 75.4105C157.82 76.0229 156.389 75.1101 155.514 75.3152C154.639 75.5203 154.074 75.8759 154.78 76.2917Z" fill="#9F8EB9"/>
</g>
<g opacity="0.3">
<path d="M166.691 72.7672C169.08 72.4858 170.91 73.3565 172.43 75.2215C173.95 77.0865 175.113 80.4061 174.48 83.9427C173.67 81.6042 171.013 78.053 168.734 77.0872C166.456 76.1214 163.769 76.1681 161.526 77.2124C164.679 74.8364 165.081 73.9116 166.691 72.7672Z" fill="white"/>
</g>
<g opacity="0.3">
<path d="M147.491 78.1778C148.148 77.3418 148.824 76.6543 149.502 76.0938C149.409 76.2265 149.307 76.354 149.211 76.4729C146.906 79.3027 146.305 83.3412 147.394 86.8244C148.483 90.3077 151.145 93.2026 154.388 94.8751C159.459 97.4894 167.236 97.108 171.914 93.8438C174.616 91.9583 176.133 88.5082 176.458 86.0181C175.873 91.6292 172.303 95.9307 165.441 98.2787C156.585 101.309 151.941 96.0065 150.726 94.8129C147.497 91.6405 143.608 83.121 147.491 78.1778Z" fill="#9F8EB9"/>
</g>
<g opacity="0.3">
<path d="M149.208 79.2452C149.499 77.6432 151.034 76.3612 152.662 76.3613L152.876 76.5944C153.51 77.1504 154.144 77.7063 154.778 78.2623C154.924 78.3902 155.077 78.5311 155.12 78.7204C155.198 79.0651 154.881 79.3632 154.587 79.5598C153.511 80.2811 152.283 80.7753 151.007 81.001C150.565 81.0793 150.075 81.1165 149.699 80.8701C149.197 80.541 149.101 79.8357 149.208 79.2452Z" fill="white"/>
</g>
<path d="M137.75 47.1081C135.432 45.7435 133.161 44.7538 133.068 44.8303C132.975 44.9068 132.122 47.532 132.359 47.4409C132.596 47.3498 135.79 47.6308 138.431 49.1978C141.073 50.7649 146.255 54.6675 148.643 57.0565C150.83 59.2445 153.14 62.2197 155.924 68.1086C158.707 73.9974 157.646 77.0811 157.646 77.0811C157.646 77.0811 159.096 77.1826 159.877 76.2512C159.877 76.2512 159.674 73.2319 158.378 70.142C157.081 67.0521 154.065 61.5946 151.21 58.2174C148.516 55.0302 143.951 51.3573 142.033 49.9743C140.115 48.5914 137.75 47.1081 137.75 47.1081Z" fill="#8C6BC2"/>
<path d="M139.818 49.0266C139.818 49.0266 147.811 39.8688 156.638 42.4656C165.466 45.0625 172.638 50.4307 174.666 54.0179C174.666 54.0179 174.276 53.9527 172.369 53.612C170.708 53.3153 157.996 54.547 153.234 54.411C148.104 54.2645 141.744 52.4435 139.818 49.0266Z" fill="#8C6BC2"/>
<path opacity="0.3" d="M141.328 48.5906C150.777 46.6032 164.862 47.0133 173.045 52.5655C173.615 53.0174 174.155 53.5035 174.665 54.0179C174.12 53.5408 173.558 53.084 172.973 52.6613C164.475 47.4826 150.983 47.1142 141.328 48.5906Z" fill="white"/>
<path opacity="0.3" d="M154.642 47.7026C156.596 49.573 159.347 52.156 161.248 54.0329C158.711 52.3204 156.448 50.1766 154.642 47.7026Z" fill="white"/>
<path opacity="0.3" d="M161.282 48.3407C162.408 47.0899 164.15 46.5305 165.793 46.4531C164.25 47.0881 162.752 47.5379 161.282 48.3407Z" fill="white"/>
<path opacity="0.3" d="M146.332 47.9294C147.491 46.7748 148.69 45.6688 149.955 44.6315C151.243 43.6504 152.51 42.4884 154.096 42.0234C152.831 42.6368 151.336 44.0822 150.209 44.942C148.943 45.9641 147.694 47.0142 146.332 47.9294Z" fill="white"/>
</svg>
