<svg xmlns="http://www.w3.org/2000/svg" xmlns:xlink="http://www.w3.org/1999/xlink" width="793" zoomAndPan="magnify" viewBox="0 0 595.5 842.249979" height="1122" preserveAspectRatio="xMidYMid meet" version="1.0"><defs><clipPath id="39ab2bb3ed"><path d="M 111.957031 618 L 117 618 L 117 637 L 111.957031 637 Z M 111.957031 618 " clip-rule="nonzero"/></clipPath><clipPath id="b8b22e7514"><path d="M 111.957031 188.058594 L 482.878906 188.058594 L 482.878906 527 L 111.957031 527 Z M 111.957031 188.058594 " clip-rule="nonzero"/></clipPath><clipPath id="c5910591c2"><path d="M 477 618 L 482.878906 618 L 482.878906 637 L 477 637 Z M 477 618 " clip-rule="nonzero"/></clipPath><clipPath id="bb6ef8e377"><path d="M 419 188.058594 L 482.878906 188.058594 L 482.878906 257 L 419 257 Z M 419 188.058594 " clip-rule="nonzero"/></clipPath><clipPath id="44f1578380"><path d="M 116 636 L 478 636 L 478 653.394531 L 116 653.394531 Z M 116 636 " clip-rule="nonzero"/></clipPath><clipPath id="c90ad05925"><path d="M 111.957031 526 L 482.878906 526 L 482.878906 650 L 111.957031 650 Z M 111.957031 526 " clip-rule="nonzero"/></clipPath></defs><g clip-path="url(#39ab2bb3ed)"><path fill="#e6e6e6" d="M 111.957031 620.371094 C 111.957031 626.390625 113.816406 632.019531 116.996094 636.621094 C 113.769531 631.382812 111.957031 625.265625 111.957031 618.660156 Z M 111.957031 620.371094 " fill-opacity="1" fill-rule="nonzero"/></g><path fill="#e6e6e6" d="M 308.621094 284.953125 C 308.179688 277.023438 303.289062 272.863281 300.109375 272.519531 C 300.011719 272.519531 299.863281 272.519531 299.765625 272.519531 C 296.734375 272.519531 295.167969 276.679688 294.484375 279.226562 C 291.15625 291.902344 294.726562 304.628906 301.773438 316.617188 C 307.984375 297.480469 308.867188 288.769531 308.621094 284.953125 Z M 308.621094 284.953125 " fill-opacity="1" fill-rule="nonzero"/><path fill="#e6e6e6" d="M 307.449219 351.808594 C 304.121094 360.328125 300.746094 368.355469 297.90625 375.011719 C 304.609375 372.613281 309.011719 371.144531 309.40625 371.046875 L 309.503906 370.996094 C 309.894531 370.851562 315.371094 369.1875 323.347656 367.179688 C 318.113281 362.429688 312.683594 357.292969 307.449219 351.808594 Z M 307.449219 351.808594 " fill-opacity="1" fill-rule="nonzero"/><path fill="#e6e6e6" d="M 233.234375 426.84375 C 231.570312 428.652344 231.082031 429.78125 230.933594 430.21875 C 231.082031 430.367188 231.328125 430.660156 231.765625 431.050781 C 237.097656 435.457031 240.621094 435.066406 242.824219 434.429688 C 246.148438 433.402344 249.867188 430.464844 253.632812 425.863281 C 257.15625 421.558594 260.679688 415.878906 264.054688 409.027344 C 264.347656 408.390625 264.691406 407.753906 264.984375 407.117188 C 255.640625 411.523438 248.007812 415.683594 242.1875 419.597656 C 238.273438 422.191406 235.289062 424.640625 233.234375 426.84375 Z M 233.234375 426.84375 " fill-opacity="1" fill-rule="nonzero"/><g clip-path="url(#b8b22e7514)"><path fill="#e6e6e6" d="M 433.761719 260.382812 C 428.675781 260.382812 423.878906 258.179688 420.554688 254.3125 C 417.128906 250.347656 415.660156 245.109375 416.492188 239.921875 L 425.199219 188.234375 L 140.773438 188.234375 C 124.875 188.234375 111.957031 201.15625 111.957031 217.066406 L 111.957031 526.203125 L 482.828125 526.203125 L 482.828125 259.109375 L 434.203125 260.332031 C 434.054688 260.382812 433.910156 260.382812 433.761719 260.382812 Z M 399.417969 384.164062 C 398.636719 388.371094 396.386719 392.191406 392.863281 395.175781 C 388.363281 398.992188 382.199219 401.097656 375.59375 401.097656 C 374.714844 401.097656 373.832031 401.050781 372.902344 401 C 364.78125 400.316406 356.808594 396.546875 349.960938 390.183594 C 347.21875 387.636719 343.648438 384.652344 339.539062 381.128906 C 326.378906 383.871094 315.519531 387.199219 314.6875 387.441406 C 313.757812 387.734375 302.113281 391.601562 287.683594 397.328125 C 285.921875 402.273438 283.230469 409.175781 279.660156 416.367188 C 275.699219 424.445312 271.441406 431.296875 267.085938 436.632812 C 261.070312 444.070312 254.5625 448.867188 247.863281 450.925781 C 245.660156 451.609375 243.066406 452.097656 240.179688 452.097656 C 234.605469 452.097656 227.851562 450.289062 220.710938 444.367188 C 213.078125 438.050781 213.128906 430.855469 213.8125 427.136719 C 214.644531 422.828125 217.042969 418.667969 221.101562 414.410156 C 224.183594 411.230469 228.144531 408.046875 233.28125 404.671875 C 241.304688 399.386719 252.019531 393.804688 265.179688 387.980469 C 268.507812 386.511719 271.832031 385.09375 275.0625 383.769531 C 277.558594 378.289062 284.945312 361.746094 292.085938 343.34375 C 292.96875 341.089844 293.796875 338.9375 294.582031 336.882812 C 287.242188 327.140625 282.007812 317.5 279.023438 308.25 C 275.304688 296.796875 274.867188 285.539062 277.753906 274.769531 C 279.464844 268.261719 282.496094 263.21875 286.804688 259.792969 C 291.058594 256.367188 296.390625 254.800781 301.820312 255.339844 C 304.953125 255.683594 308.035156 256.660156 310.96875 258.324219 C 313.757812 259.890625 316.203125 261.996094 318.355469 264.542969 C 320.507812 267.085938 322.269531 270.070312 323.542969 273.300781 C 324.863281 276.679688 325.644531 280.300781 325.84375 284.070312 C 326.234375 291.019531 324.519531 300.859375 320.605469 314.21875 C 318.894531 320.09375 316.742188 326.605469 314.199219 333.699219 C 323.640625 344.617188 334.746094 354.503906 344.335938 362.726562 C 344.53125 362.675781 344.773438 362.675781 344.96875 362.628906 C 356.027344 360.765625 365.417969 360.03125 372.902344 360.425781 C 377.894531 360.71875 382.050781 361.5 385.625 362.773438 C 390.367188 364.535156 393.988281 367.226562 396.386719 370.800781 C 399.222656 374.960938 400.25 379.5625 399.417969 384.164062 Z M 399.417969 384.164062 " fill-opacity="1" fill-rule="nonzero"/></g><path fill="#e6e6e6" d="M 372.070312 377.605469 C 369.136719 377.457031 365.761719 377.507812 361.996094 377.800781 C 370.996094 385.972656 379.117188 384.210938 381.660156 382.058594 C 382.199219 381.617188 382.394531 381.226562 382.394531 381.128906 C 382.394531 381.078125 382.34375 380.785156 382.003906 380.246094 C 381.660156 379.660156 379.066406 377.996094 372.070312 377.605469 Z M 372.070312 377.605469 " fill-opacity="1" fill-rule="nonzero"/><g clip-path="url(#c5910591c2)"><path fill="#e6e6e6" d="M 482.828125 620.371094 L 482.828125 618.707031 C 482.828125 625.265625 481.019531 631.433594 477.789062 636.671875 C 480.96875 631.972656 482.828125 626.390625 482.828125 620.371094 Z M 482.828125 620.371094 " fill-opacity="1" fill-rule="nonzero"/></g><g clip-path="url(#bb6ef8e377)"><path fill="#e6e6e6" d="M 466.882812 230.378906 L 458.808594 221.078125 L 430.386719 188.234375 L 428.871094 188.234375 L 423.195312 221.960938 L 420.0625 240.507812 C 418.597656 249.171875 425.394531 256.953125 434.152344 256.757812 L 452.9375 256.269531 L 482.878906 255.535156 L 482.878906 251.570312 Z M 466.882812 230.378906 " fill-opacity="1" fill-rule="nonzero"/></g><g clip-path="url(#44f1578380)"><path fill="#f80707" d="M 454.015625 649.199219 L 140.773438 649.199219 C 130.890625 649.199219 122.183594 644.207031 116.996094 636.621094 C 123.015625 646.558594 133.972656 653.214844 146.496094 653.214844 L 448.339844 653.214844 C 460.816406 653.214844 471.773438 646.558594 477.839844 636.621094 C 472.652344 644.207031 463.898438 649.199219 454.015625 649.199219 Z M 454.015625 649.199219 " fill-opacity="1" fill-rule="nonzero"/></g><path fill="#f80707" d="M 324.421875 588.605469 C 324.519531 571.574219 314.640625 561.636719 296.878906 561.636719 C 292.378906 561.636719 289.296875 561.980469 287.195312 562.421875 L 287.195312 618.070312 C 289.152344 618.414062 292.136719 618.414062 295.023438 618.414062 C 313.515625 618.5625 324.421875 608.332031 324.421875 588.605469 Z M 324.421875 588.605469 " fill-opacity="1" fill-rule="nonzero"/><g clip-path="url(#c90ad05925)"><path fill="#f80707" d="M 111.957031 618.660156 C 111.957031 625.21875 113.769531 631.382812 116.996094 636.621094 C 122.183594 644.207031 130.890625 649.199219 140.773438 649.199219 L 454.0625 649.199219 C 463.945312 649.199219 472.652344 644.207031 477.839844 636.621094 C 481.019531 631.382812 482.878906 625.265625 482.878906 618.660156 L 482.878906 526.152344 L 111.957031 526.152344 Z M 351.722656 551.164062 L 396.679688 551.164062 L 396.679688 562.8125 L 365.90625 562.8125 L 365.90625 584.25 L 394.476562 584.25 L 394.476562 595.753906 L 365.90625 595.753906 L 365.90625 628.839844 L 351.722656 628.839844 Z M 273.054688 552.191406 C 279.367188 551.261719 287.242188 550.578125 295.609375 550.578125 C 310.136719 550.578125 320.019531 553.5625 327.164062 559.582031 C 334.746094 565.699219 339.394531 575 339.394531 588.167969 C 339.394531 602.117188 334.648438 612.34375 327.308594 619.050781 C 319.578125 626.097656 307.25 629.671875 292.183594 629.671875 C 284.015625 629.671875 277.800781 629.230469 273.054688 628.644531 Z M 208.675781 552.191406 C 213.863281 551.261719 220.90625 550.578125 230.347656 550.578125 C 240.71875 550.578125 248.203125 552.777344 253.144531 556.890625 C 257.742188 560.707031 260.726562 566.777344 260.726562 574.070312 C 260.726562 581.460938 258.429688 587.433594 254.171875 591.59375 C 248.398438 597.222656 239.644531 600.011719 229.664062 600.011719 C 227.019531 600.011719 224.722656 599.914062 222.765625 599.421875 L 222.765625 628.789062 L 208.726562 628.789062 L 208.726562 552.191406 Z M 208.675781 552.191406 " fill-opacity="1" fill-rule="nonzero"/></g><path fill="#f80707" d="M 246.6875 574.65625 C 246.6875 565.992188 240.71875 561.539062 230.886719 561.539062 C 226.972656 561.539062 224.183594 561.882812 222.714844 562.226562 L 222.714844 588.265625 C 224.574219 588.851562 226.726562 588.949219 229.613281 588.949219 C 240.230469 588.949219 246.6875 583.664062 246.6875 574.65625 Z M 246.6875 574.65625 " fill-opacity="1" fill-rule="nonzero"/><path fill="#ffffff" d="M 222.765625 599.421875 C 224.722656 599.863281 227.019531 600.011719 229.664062 600.011719 C 239.691406 600.011719 248.449219 597.222656 254.171875 591.59375 C 258.429688 587.433594 260.726562 581.460938 260.726562 574.070312 C 260.726562 566.824219 257.742188 560.707031 253.144531 556.890625 C 248.203125 552.730469 240.71875 550.578125 230.347656 550.578125 C 220.90625 550.578125 213.863281 551.261719 208.675781 552.191406 L 208.675781 628.839844 L 222.714844 628.839844 L 222.714844 599.421875 Z M 222.765625 562.226562 C 224.28125 561.882812 227.019531 561.539062 230.933594 561.539062 C 240.71875 561.539062 246.738281 566.042969 246.738281 574.65625 C 246.738281 583.664062 240.277344 588.949219 229.710938 588.949219 C 226.824219 588.949219 224.625 588.851562 222.8125 588.265625 L 222.8125 562.226562 Z M 222.765625 562.226562 " fill-opacity="1" fill-rule="nonzero"/><path fill="#ffffff" d="M 327.308594 619.050781 C 334.695312 612.34375 339.394531 602.117188 339.394531 588.167969 C 339.394531 575.046875 334.792969 565.699219 327.164062 559.582031 C 320.019531 553.609375 310.136719 550.578125 295.609375 550.578125 C 287.195312 550.578125 279.367188 551.261719 273.054688 552.191406 L 273.054688 628.59375 C 277.800781 629.183594 284.015625 629.621094 292.183594 629.621094 C 307.300781 629.621094 319.628906 626.050781 327.308594 619.050781 Z M 287.242188 562.46875 C 289.296875 562.03125 292.429688 561.6875 296.929688 561.6875 C 314.6875 561.6875 324.570312 571.574219 324.472656 588.65625 C 324.472656 608.378906 313.515625 618.609375 295.121094 618.511719 C 292.234375 618.511719 289.25 618.511719 287.292969 618.167969 L 287.292969 562.46875 Z M 287.242188 562.46875 " fill-opacity="1" fill-rule="nonzero"/><path fill="#ffffff" d="M 365.90625 595.753906 L 394.476562 595.753906 L 394.476562 584.25 L 365.90625 584.25 L 365.90625 562.8125 L 396.679688 562.8125 L 396.679688 551.164062 L 351.722656 551.164062 L 351.722656 628.839844 L 365.90625 628.839844 Z M 365.90625 595.753906 " fill-opacity="1" fill-rule="nonzero"/><path fill="#fe0606" d="M 385.722656 362.675781 C 382.148438 361.355469 377.992188 360.621094 373 360.328125 C 365.515625 359.886719 356.074219 360.621094 345.066406 362.527344 C 344.871094 362.578125 344.628906 362.578125 344.433594 362.628906 C 334.84375 354.453125 323.6875 344.515625 314.296875 333.601562 C 316.839844 326.457031 318.992188 319.945312 320.707031 314.121094 C 324.617188 300.808594 326.332031 290.921875 325.941406 283.972656 C 325.742188 280.203125 324.960938 276.582031 323.640625 273.203125 C 322.367188 269.972656 320.65625 267.039062 318.453125 264.441406 C 316.300781 261.898438 313.808594 259.792969 311.066406 258.226562 C 308.179688 256.5625 305.097656 255.585938 301.917969 255.242188 C 296.488281 254.703125 291.15625 256.269531 286.902344 259.695312 C 282.644531 263.121094 279.5625 268.210938 277.851562 274.671875 C 275.011719 285.441406 275.453125 296.699219 279.121094 308.152344 C 282.105469 317.402344 287.339844 327.042969 294.679688 336.785156 C 293.894531 338.839844 293.066406 340.992188 292.183594 343.246094 C 284.992188 361.648438 277.65625 378.191406 275.160156 383.671875 C 271.929688 384.996094 268.605469 386.414062 265.277344 387.882812 C 252.117188 393.707031 241.402344 399.335938 233.382812 404.574219 C 228.246094 407.949219 224.28125 411.132812 221.199219 414.3125 C 217.089844 418.570312 214.691406 422.730469 213.910156 427.039062 C 213.226562 430.757812 213.175781 437.953125 220.808594 444.269531 C 227.949219 450.191406 234.703125 452 240.277344 452 C 243.164062 452 245.757812 451.511719 247.960938 450.828125 C 254.710938 448.769531 261.167969 443.972656 267.183594 436.535156 C 271.539062 431.199219 275.746094 424.347656 279.757812 416.269531 C 283.28125 409.074219 286.019531 402.125 287.78125 397.230469 C 302.214844 391.503906 313.855469 387.636719 314.785156 387.34375 C 315.617188 387.101562 326.476562 383.769531 339.636719 381.03125 C 343.746094 384.503906 347.316406 387.539062 350.058594 390.085938 C 356.957031 396.449219 364.878906 400.167969 373 400.902344 C 373.882812 401 374.8125 401 375.691406 401 C 382.246094 401 388.460938 398.894531 392.960938 395.078125 C 396.484375 392.09375 398.734375 388.273438 399.515625 384.066406 C 400.347656 379.464844 399.320312 374.816406 396.582031 370.652344 C 394.085938 367.128906 390.515625 364.4375 385.722656 362.675781 Z M 264.054688 408.976562 C 260.679688 415.832031 257.15625 421.507812 253.632812 425.816406 C 249.867188 430.417969 246.148438 433.351562 242.824219 434.378906 C 240.621094 435.066406 237.097656 435.410156 231.765625 431.003906 C 231.277344 430.613281 231.03125 430.316406 230.933594 430.171875 C 231.082031 429.730469 231.570312 428.605469 233.234375 426.792969 C 235.289062 424.589844 238.273438 422.144531 242.1875 419.5 C 248.007812 415.585938 255.640625 411.425781 264.984375 407.019531 C 264.691406 407.753906 264.398438 408.390625 264.054688 408.976562 Z M 294.53125 279.175781 C 295.21875 276.628906 296.78125 272.46875 299.816406 272.46875 C 299.914062 272.46875 300.058594 272.46875 300.160156 272.46875 C 303.339844 272.8125 308.230469 276.972656 308.671875 284.902344 C 308.867188 288.71875 308.035156 297.480469 301.871094 316.570312 C 294.777344 304.578125 291.15625 291.851562 294.53125 279.175781 Z M 309.503906 370.996094 L 309.40625 371.046875 C 309.011719 371.191406 304.609375 372.613281 297.90625 375.011719 C 300.746094 368.355469 304.121094 360.328125 307.449219 351.808594 C 312.683594 357.292969 318.113281 362.429688 323.347656 367.179688 C 315.371094 369.1875 309.894531 370.851562 309.503906 370.996094 Z M 382.445312 381.078125 C 382.445312 381.175781 382.246094 381.519531 381.710938 382.007812 C 379.164062 384.164062 371.042969 385.925781 362.042969 377.75 C 365.808594 377.457031 369.1875 377.410156 372.121094 377.554688 C 379.117188 377.945312 381.660156 379.609375 382.050781 380.199219 C 382.394531 380.785156 382.445312 381.078125 382.445312 381.078125 Z M 382.445312 381.078125 " fill-opacity="1" fill-rule="nonzero"/></svg>